{
.appVersion = "3258";
.formatVersion = 3;
DisplayStrings = (
ABCDEFGHIJKLMNOPQRSTUVWXYZ
);
axes = (
{
name = Growth;
tag = GROW;
}
);
date = "2024-05-02 19:34:29 +0000";
familyName = Lawnmower;
fontMaster = (
{
axesValues = (
0
);
iconName = Light_Condensed;
id = m01;
metricValues = (
{
pos = 667;
},
{
over = 16;
pos = 800;
},
{
over = 16;
pos = 700;
},
{
over = 16;
pos = 500;
},
{
over = -16;
},
{
over = -16;
pos = -200;
},
{
},
{
}
);
name = Cut;
},
{
axesValues = (
500
);
iconName = SemiLight_SemiCondensed;
id = m002;
metricValues = (
{
pos = 667;
},
{
over = 16;
pos = 800;
},
{
over = 16;
pos = 600;
},
{
over = 16;
pos = 500;
},
{
over = -16;
},
{
over = -16;
pos = -200;
},
{
},
{
}
);
name = Tall;
},
{
axesValues = (
1000
);
id = m003;
metricValues = (
{
pos = 800;
},
{
over = 16;
pos = 900;
},
{
over = 16;
pos = 600;
},
{
over = 16;
pos = 500;
},
{
over = -16;
},
{
over = -16;
pos = -200;
},
{
},
{
pos = 845;
}
);
name = Taller;
}
);
glyphs = (
{
glyphname = A;
lastChange = "2024-05-10 15:40:11 +0000";
layers = (
{
layerId = m01;
shapes = (
{
closed = 1;
nodes = (
(56,507,l),
(56,0,l),
(189,0,l),
(189,211,l),
(376,211,l),
(376,0,l),
(509,0,l),
(509,507,l),
(377,639,ls),
(349,667,o),
(315,683,o),
(283,683,cs),
(249,683,o),
(217,668,o),
(188,639,cs)
);
},
{
closed = 1;
nodes = (
(247,511,ls),
(258,522,o),
(270,528,o),
(282,528,cs),
(295,528,o),
(307,522,o),
(318,511,cs),
(376,453,l),
(376,344,l),
(189,344,l),
(189,453,l)
);
}
);
width = 567;
},
{
layerId = m002;
shapes = (
{
closed = 1;
nodes = (
(56,600,l),
(56,0,l),
(189,0,l),
(189,211,l),
(376,211,l),
(376,0,l),
(509,0,l),
(509,600,l),
(377,756,ls),
(349,789,o),
(315,800,o),
(283,800,cs),
(249,800,o),
(217,790,o),
(188,756,cs)
);
},
{
closed = 1;
nodes = (
(247,511,ls),
(258,522,o),
(270,528,o),
(282,528,cs),
(295,528,o),
(307,522,o),
(318,511,cs),
(376,453,l),
(376,344,l),
(189,344,l),
(189,453,l)
);
}
);
width = 567;
},
{
layerId = m003;
shapes = (
{
closed = 1;
nodes = (
(56,600,l),
(56,0,l),
(189,0,l),
(189,211,l),
(376,211,l),
(376,0,l),
(509,0,l),
(509,600,l),
(405,800,ls),
(353,900,o),
(316,800,o),
(283,800,cs),
(250,800,o),
(209,900,o),
(158,800,cs)
);
},
{
closed = 1;
nodes = (
(247,511,ls),
(258,522,o),
(270,528,o),
(282,528,cs),
(295,528,o),
(307,522,o),
(318,511,cs),
(376,453,l),
(376,344,l),
(189,344,l),
(189,453,l)
);
}
);
width = 567;
}
);
unicode = 65;
},
{
glyphname = B;
lastChange = "2024-05-10 15:40:24 +0000";
layers = (
{
layerId = m01;
shapes = (
{
closed = 1;
nodes = (
(494,399,ls),
(523,429,o),
(539,457,o),
(538,483,cs),
(537,526,o),
(519,541,o),
(494,566,cs),
(393,667,l),
(340,667,o),
(349,667,o),
(305,667,c),
(259,667,o),
(259,667,o),
(212,667,c),
(161,667,o),
(163,667,o),
(118,667,cs),
(78,667,o),
(94,667,o),
(28,667,c),
(28,533,l),
(61,533,ls),
(94,533,o),
(111,516,o),
(111,483,cs),
(111,0,l),
(397,0,l),
(506,109,ls),
(535,138,o),
(549,165,o),
(549,192,cs),
(549,219,o),
(535,247,o),
(506,274,cs),
(438,342,l)
);
},
{
closed = 1;
nodes = (
(244,409,l),
(244,533,l),
(340,533,l),
(367,507,ls),
(378,495,o),
(384,483,o),
(384,471,cs),
(384,459,o),
(378,447,o),
(367,436,cs),
(340,409,l)
);
},
{
closed = 1;
nodes = (
(244,129,l),
(244,276,l),
(340,276,l),
(378,238,ls),
(389,227,o),
(395,215,o),
(395,202,cs),
(395,190,o),
(389,178,o),
(378,167,cs),
(340,129,l)
);
}
);
width = 567;
},
{
layerId = m002;
shapes = (
{
closed = 1;
nodes = (
);
},
{
closed = 1;
nodes = (
(494,399,ls),
(523,429,o),
(538,457,o),
(538,483,cs),
(538,509,o),
(512,565,o),
(494,600,cs),
(393,800,l),
(340,800,o),
(349,800,o),
(305,800,c),
(259,800,o),
(259,800,o),
(212,800,c),
(161,800,o),
(163,800,o),
(118,800,cs),
(78,800,o),
(94,800,o),
(28,800,c),
(28,533,l),
(61,533,ls),
(94,533,o),
(111,516,o),
(111,483,cs),
(111,0,l),
(397,0,l),
(506,109,ls),
(535,138,o),
(549,165,o),
(549,192,cs),
(549,219,o),
(535,247,o),
(506,274,cs),
(438,342,l)
);
},
{
closed = 1;
nodes = (
(244,409,l),
(244,533,l),
(340,533,l),
(367,507,ls),
(378,495,o),
(384,483,o),
(384,471,cs),
(384,459,o),
(378,447,o),
(367,436,cs),
(340,409,l)
);
},
{
closed = 1;
nodes = (
(244,129,l),
(244,276,l),
(340,276,l),
(378,238,ls),
(389,227,o),
(395,215,o),
(395,202,cs),
(395,190,o),
(389,178,o),
(378,167,cs),
(340,129,l)
);
}
);
width = 567;
},
{
layerId = m003;
shapes = (
{
closed = 1;
nodes = (
);
},
{
closed = 1;
nodes = (
(494,399,ls),
(523,429,o),
(538,457,o),
(538,483,cs),
(538,509,o),
(508,565,o),
(494,600,cs),
(393,845,l),
(360,845,o),
(338,800,o),
(305,800,c),
(272,800,o),
(245,845,o),
(212,845,c),
(179,845,o),
(151,800,o),
(118,800,cs),
(85,800,o),
(61,845,o),
(28,845,c),
(28,533,l),
(61,533,ls),
(94,533,o),
(111,516,o),
(111,483,cs),
(111,0,l),
(397,0,l),
(506,109,ls),
(535,138,o),
(549,165,o),
(549,192,cs),
(549,219,o),
(535,247,o),
(506,274,cs),
(438,342,l)
);
},
{
closed = 1;
nodes = (
(244,409,l),
(244,533,l),
(340,533,l),
(367,507,ls),
(378,495,o),
(384,483,o),
(384,471,cs),
(384,459,o),
(378,447,o),
(367,436,cs),
(340,409,l)
);
},
{
closed = 1;
nodes = (
(244,129,l),
(244,276,l),
(340,276,l),
(378,238,ls),
(389,227,o),
(395,215,o),
(395,202,cs),
(395,190,o),
(389,178,o),
(378,167,cs),
(340,129,l)
);
}
);
width = 567;
}
);
unicode = 66;
},
{
glyphname = C;
lastChange = "2024-05-10 15:39:21 +0000";
layers = (
{
layerId = m01;
shapes = (
{
closed = 1;
nodes = (
(56,149,l),
(177,28,ls),
(207,-1,o),
(238,-16,o),
(271,-16,cs),
(304,-16,o),
(336,-1,o),
(366,28,cs),
(487,149,l),
(393,242,l),
(307,156,ls),
(295,144,o),
(283,138,o),
(271,138,cs),
(260,138,o),
(248,144,o),
(236,156,cs),
(189,202,l),
(189,464,l),
(236,511,ls),
(247,522,o),
(259,528,o),
(271,528,cs),
(284,528,o),
(296,522,o),
(307,511,cs),
(393,424,l),
(487,518,l),
(366,639,ls),
(336,668,o),
(304,683,o),
(271,683,cs),
(238,683,o),
(207,668,o),
(177,639,cs),
(56,518,l)
);
}
);
width = 517;
},
{
layerId = m002;
shapes = (
{
closed = 1;
nodes = (
(56,149,l),
(177,28,ls),
(207,-1,o),
(238,-16,o),
(271,-16,cs),
(304,-16,o),
(336,-1,o),
(366,28,cs),
(487,149,l),
(393,242,l),
(307,156,ls),
(295,144,o),
(283,138,o),
(271,138,cs),
(260,138,o),
(248,144,o),
(236,156,cs),
(189,202,l),
(189,464,l),
(236,511,ls),
(247,522,o),
(259,528,o),
(271,528,cs),
(284,528,o),
(296,522,o),
(307,511,cs),
(393,424,l),
(487,600,l),
(366,756,ls),
(340,789,o),
(304,800,o),
(271,800,cs),
(238,800,o),
(203,789,o),
(177,756,cs),
(56,600,l)
);
}
);
width = 517;
},
{
layerId = m003;
shapes = (
{
closed = 1;
nodes = (
(56,149,l),
(177,28,ls),
(207,-1,o),
(238,-16,o),
(271,-16,cs),
(304,-16,o),
(336,-1,o),
(366,28,cs),
(487,149,l),
(393,242,l),
(307,156,ls),
(295,144,o),
(283,138,o),
(271,138,cs),
(260,138,o),
(248,144,o),
(236,156,cs),
(189,202,l),
(189,464,l),
(236,511,ls),
(247,522,o),
(259,528,o),
(271,528,cs),
(284,528,o),
(296,522,o),
(307,511,cs),
(393,424,l),
(487,600,l),
(385,800,ls),
(334,900,o),
(293,800,o),
(260,800,cs),
(227,800,o),
(178,900,o),
(137,800,cs),
(56,600,l)
);
}
);
width = 517;
}
);
unicode = 67;
},
{
glyphname = D;
lastChange = "2024-05-10 15:49:52 +0000";
layers = (
{
layerId = m01;
shapes = (
{
closed = 1;
nodes = (
(111,0,l),
(400,0,ls),
(480,0,o),
(533,49,o),
(533,133,cs),
(533,533,ls),
(533,616,o),
(483,667,o),
(400,667,cs),
(367,667,o),
(438,667,o),
(405,667,cs),
(372,667,o),
(359,667,o),
(326,667,cs),
(293,667,o),
(280,667,o),
(247,667,cs),
(214,667,o),
(209,667,o),
(176,667,cs),
(143,667,o),
(133,667,o),
(100,667,c),
(67,667,o),
(61,667,o),
(28,667,c),
(28,533,l),
(61,533,ls),
(94,533,o),
(111,516,o),
(111,483,cs)
);
},
{
closed = 1;
nodes = (
(244,133,l),
(244,533,l),
(350,533,ls),
(383,533,o),
(400,516,o),
(400,483,cs),
(400,183,ls),
(400,150,o),
(383,133,o),
(350,133,cs)
);
}
);
width = 589;
},
{
layerId = m002;
shapes = (
{
closed = 1;
nodes = (
(111,0,l),
(400,0,ls),
(480,0,o),
(533,49,o),
(533,133,cs),
(533,533,ls),
(533,700,o),
(483,800,o),
(400,800,cs),
(367,800,o),
(438,800,o),
(405,800,cs),
(372,800,o),
(359,800,o),
(326,800,cs),
(293,800,o),
(280,800,o),
(247,800,cs),
(214,800,o),
(209,800,o),
(176,800,cs),
(143,800,o),
(133,800,o),
(100,800,c),
(67,800,o),
(61,800,o),
(28,800,c),
(28,533,l),
(61,533,ls),
(94,533,o),
(111,516,o),
(111,483,cs)
);
},
{
closed = 1;
nodes = (
(244,133,l),
(244,533,l),
(350,533,ls),
(383,533,o),
(400,516,o),
(400,483,cs),
(400,183,ls),
(400,150,o),
(383,133,o),
(350,133,cs)
);
}
);
width = 589;
},
{
layerId = m003;
shapes = (
{
closed = 1;
nodes = (
(111,0,l),
(400,0,ls),
(480,0,o),
(533,49,o),
(533,133,cs),
(533,533,ls),
(533,784,o),
(527,845,o),
(480,845,cs),
(447,845,o),
(438,800,o),
(405,800,cs),
(372,800,o),
(359,845,o),
(326,845,cs),
(293,845,o),
(280,800,o),
(247,800,cs),
(214,800,o),
(209,845,o),
(176,845,cs),
(143,845,o),
(133,800,o),
(100,800,c),
(67,800,o),
(61,845,o),
(28,845,c),
(28,533,l),
(61,533,ls),
(94,533,o),
(111,516,o),
(111,483,cs)
);
},
{
closed = 1;
nodes = (
(244,133,l),
(244,533,l),
(350,533,ls),
(383,533,o),
(400,516,o),
(400,483,cs),
(400,183,ls),
(400,150,o),
(383,133,o),
(350,133,cs)
);
}
);
width = 589;
}
);
unicode = 68;
},
{
glyphname = E;
lastChange = "2024-05-10 15:53:01 +0000";
layers = (
{
layerId = m01;
shapes = (
{
closed = 1;
nodes = (
(294,133,ls),
(261,133,o),
(244,150,o),
(244,183,cs),
(244,278,l),
(422,278,l),
(422,411,l),
(244,411,l),
(244,533,l),
(444,533,l),
(444,667,l),
(411,667,o),
(414,667,o),
(381,667,c),
(348,667,o),
(346,667,o),
(313,667,c),
(280,667,o),
(273,667,o),
(240,667,cs),
(207,667,o),
(203,667,o),
(170,667,cs),
(137,667,o),
(125,667,o),
(92,667,cs),
(59,667,o),
(61,667,o),
(28,667,c),
(28,533,l),
(61,533,ls),
(94,533,o),
(111,516,o),
(111,483,cs),
(111,133,ls),
(111,50,o),
(163,0,o),
(244,0,cs),
(456,0,l),
(456,133,l)
);
}
);
width = 500;
},
{
layerId = m002;
shapes = (
{
closed = 1;
nodes = (
(294,133,ls),
(261,133,o),
(244,150,o),
(244,183,cs),
(244,278,l),
(422,278,l),
(422,411,l),
(244,411,l),
(244,533,l),
(444,533,l),
(444,800,l),
(411,800,o),
(414,800,o),
(381,800,c),
(348,800,o),
(346,800,o),
(313,800,c),
(280,800,o),
(273,800,o),
(240,800,cs),
(207,800,o),
(203,800,o),
(170,800,cs),
(137,800,o),
(125,800,o),
(92,800,cs),
(59,800,o),
(61,800,o),
(28,800,c),
(28,533,l),
(61,533,ls),
(94,533,o),
(111,516,o),
(111,483,cs),
(111,133,ls),
(111,50,o),
(163,0,o),
(244,0,cs),
(456,0,l),
(456,133,l)
);
}
);
width = 500;
},
{
layerId = m003;
shapes = (
{
closed = 1;
nodes = (
(294,133,ls),
(261,133,o),
(244,150,o),
(244,183,cs),
(244,278,l),
(422,278,l),
(422,411,l),
(244,411,l),
(244,533,l),
(444,533,l),
(444,845,l),
(411,845,o),
(414,800,o),
(381,800,c),
(348,800,o),
(346,845,o),
(313,845,c),
(280,845,o),
(273,800,o),
(240,800,cs),
(207,800,o),
(203,845,o),
(170,845,cs),
(137,845,o),
(125,800,o),
(92,800,cs),
(59,800,o),
(61,845,o),
(28,845,c),
(28,533,l),
(61,533,ls),
(94,533,o),
(111,516,o),
(111,483,cs),
(111,133,ls),
(111,50,o),
(163,0,o),
(244,0,cs),
(456,0,l),
(456,133,l)
);
}
);
width = 500;
}
);
unicode = 69;
},
{
glyphname = F;
lastChange = "2024-05-10 15:56:54 +0000";
layers = (
{
layerId = m01;
shapes = (
{
closed = 1;
nodes = (
(444,624,l),
(444,667,l),
(411,667,o),
(401,666,o),
(368,667,c),
(335,667,o),
(334,667,o),
(301,667,cs),
(268,667,o),
(267,667,o),
(234,667,c),
(201,667,o),
(202,667,o),
(169,667,cs),
(136,667,o),
(133,667,o),
(100,667,cs),
(67,667,o),
(61,667,o),
(28,667,c),
(28,624,l)
);
},
{
closed = 1;
nodes = (
(28,624,l),
(28,533,l),
(61,533,ls),
(94,533,o),
(111,516,o),
(111,483,cs),
(111,0,l),
(244,0,l),
(244,256,l),
(422,256,l),
(422,389,l),
(244,389,l),
(244,533,l),
(444,533,l),
(444,624,l)
);
}
);
width = 467;
},
{
layerId = m002;
shapes = (
{
closed = 1;
nodes = (
(444,624,l),
(444,800,l),
(411,800,o),
(401,799,o),
(368,800,c),
(335,800,o),
(334,800,o),
(301,800,cs),
(268,800,o),
(267,800,o),
(234,800,c),
(201,800,o),
(202,800,o),
(169,800,cs),
(136,800,o),
(133,800,o),
(100,800,cs),
(67,800,o),
(61,800,o),
(28,800,c),
(28,624,l)
);
},
{
closed = 1;
nodes = (
(28,624,l),
(28,533,l),
(61,533,ls),
(94,533,o),
(111,516,o),
(111,483,cs),
(111,0,l),
(244,0,l),
(244,256,l),
(422,256,l),
(422,389,l),
(244,389,l),
(244,533,l),
(444,533,l),
(444,624,l)
);
}
);
width = 467;
},
{
layerId = m003;
shapes = (
{
closed = 1;
nodes = (
(444,624,l),
(444,845,l),
(411,845,o),
(401,799,o),
(368,800,c),
(335,800,o),
(334,845,o),
(301,845,cs),
(268,845,o),
(267,800,o),
(234,800,c),
(201,800,o),
(202,845,o),
(169,845,cs),
(136,845,o),
(133,800,o),
(100,800,cs),
(67,800,o),
(61,845,o),
(28,845,c),
(28,624,l)
);
},
{
closed = 1;
nodes = (
(28,624,l),
(28,533,l),
(61,533,ls),
(94,533,o),
(111,516,o),
(111,483,cs),
(111,0,l),
(244,0,l),
(244,256,l),
(422,256,l),
(422,389,l),
(244,389,l),
(244,533,l),
(444,533,l),
(444,624,l)
);
}
);
width = 467;
}
);
unicode = 70;
},
{
glyphname = G;
lastChange = "2024-05-10 15:58:04 +0000";
layers = (
{
layerId = m01;
shapes = (
{
closed = 1;
nodes = (
(56,160,l),
(188,28,ls),
(217,-1,o),
(249,-16,o),
(283,-16,cs),
(316,-16,o),
(348,-1,o),
(377,28,cs),
(492,143,l),
(492,250,ls),
(492,333,o),
(442,383,o),
(359,383,cs),
(278,383,l),
(278,250,l),
(309,250,ls),
(342,250,o),
(359,232,o),
(359,197,c),
(318,156,ls),
(306,144,o),
(294,138,o),
(282,138,cs),
(271,138,o),
(259,144,o),
(247,156,cs),
(189,213,l),
(189,464,l),
(236,511,ls),
(247,522,o),
(259,528,o),
(271,528,cs),
(284,528,o),
(296,522,o),
(307,511,cs),
(382,436,l),
(476,529,l),
(366,639,ls),
(336,668,o),
(304,683,o),
(271,683,cs),
(238,683,o),
(207,668,o),
(177,639,cs),
(56,518,l)
);
}
);
width = 544;
},
{
layerId = m002;
shapes = (
{
closed = 1;
nodes = (
(56,160,l),
(188,28,ls),
(217,-1,o),
(249,-16,o),
(283,-16,cs),
(316,-16,o),
(348,-1,o),
(377,28,cs),
(492,143,l),
(492,250,ls),
(492,333,o),
(442,383,o),
(359,383,cs),
(278,383,l),
(278,250,l),
(309,250,ls),
(342,250,o),
(359,232,o),
(359,197,c),
(318,156,ls),
(306,144,o),
(294,138,o),
(282,138,cs),
(271,138,o),
(259,144,o),
(247,156,cs),
(189,213,l),
(189,464,l),
(236,511,ls),
(247,522,o),
(259,528,o),
(271,528,cs),
(284,528,o),
(296,522,o),
(307,511,cs),
(382,436,l),
(518,600,l),
(366,756,ls),
(328,795,o),
(304,800,o),
(271,800,cs),
(238,800,o),
(204,791,o),
(177,756,cs),
(56,600,l)
);
}
);
width = 544;
},
{
layerId = m003;
shapes = (
{
closed = 1;
nodes = (
(56,160,l),
(188,28,ls),
(217,-1,o),
(249,-16,o),
(283,-16,cs),
(316,-16,o),
(348,-1,o),
(377,28,cs),
(492,143,l),
(492,250,ls),
(492,333,o),
(442,383,o),
(359,383,cs),
(278,383,l),
(278,250,l),
(309,250,ls),
(342,250,o),
(359,232,o),
(359,197,c),
(318,156,ls),
(306,144,o),
(294,138,o),
(282,138,cs),
(271,138,o),
(259,144,o),
(247,156,cs),
(189,213,l),
(189,464,l),
(236,511,ls),
(247,522,o),
(259,528,o),
(271,528,cs),
(284,528,o),
(296,522,o),
(307,511,cs),
(382,436,l),
(518,600,l),
(401,798,ls),
(341,900,o),
(304,800,o),
(271,800,c),
(238,800,o),
(199,900,o),
(151,799,cs),
(56,600,l)
);
}
);
width = 544;
}
);
unicode = 71;
},
{
glyphname = H;
lastChange = "2024-05-10 16:46:03 +0000";
layers = (
{
layerId = m01;
shapes = (
{
closed = 1;
nodes = (
(56,0,l),
(189,0,l),
(189,272,l),
(356,272,l),
(356,0,l),
(489,0,l),
(489,483,ls),
(489,516,o),
(506,533,o),
(539,533,cs),
(550,533,l),
(550,667,l),
(517,667,o),
(513,667,o),
(480,667,c),
(447,667,o),
(522,667,o),
(489,667,cs),
(405,667,o),
(356,617,o),
(356,533,cs),
(356,406,l),
(189,406,l),
(189,667,l),
(156,667,o),
(156,667,o),
(123,667,c),
(90,667,o),
(89,667,o),
(56,667,c)
);
}
);
width = 578;
},
{
layerId = m002;
shapes = (
{
closed = 1;
nodes = (
(56,0,l),
(189,0,l),
(189,272,l),
(356,272,l),
(356,0,l),
(489,0,l),
(489,550,ls),
(489,583,o),
(506,600,o),
(539,600,cs),
(550,600,l),
(550,800,l),
(517,800,o),
(513,800,o),
(480,800,c),
(447,800,o),
(443,800,o),
(410,800,cs),
(356,800,o),
(356,700,o),
(356,533,cs),
(356,406,l),
(189,406,l),
(189,800,l),
(156,800,o),
(156,800,o),
(123,800,c),
(90,800,o),
(89,800,o),
(56,800,c)
);
}
);
width = 578;
},
{
layerId = m003;
shapes = (
{
closed = 1;
nodes = (
(56,0,l),
(189,0,l),
(189,272,l),
(356,272,l),
(356,0,l),
(489,0,l),
(489,550,ls),
(489,583,o),
(506,600,o),
(539,600,cs),
(550,600,l),
(550,845,l),
(517,845,o),
(513,800,o),
(480,800,c),
(447,800,o),
(443,845,o),
(410,845,cs),
(363,845,o),
(356,800,o),
(356,533,cs),
(356,406,l),
(189,406,l),
(189,845,l),
(156,845,o),
(156,800,o),
(123,800,c),
(90,800,o),
(89,845,o),
(56,845,c)
);
}
);
width = 578;
}
);
unicode = 72;
},
{
glyphname = I;
lastChange = "2024-05-10 16:24:08 +0000";
layers = (
{
layerId = m01;
shapes = (
{
closed = 1;
nodes = (
(222,533,ls),
(222,617,o),
(172,667,o),
(89,667,cs),
(56,667,o),
(172,667,o),
(89,667,c),
(56,667,o),
(61,667,o),
(28,667,c),
(28,533,l),
(39,533,ls),
(72,533,o),
(89,516,o),
(89,483,cs),
(89,133,ls),
(89,50,o),
(141,0,o),
(222,0,cs),
(283,0,l),
(283,133,l),
(272,133,ls),
(239,133,o),
(222,150,o),
(222,183,cs)
);
}
);
width = 311;
},
{
layerId = m002;
shapes = (
{
closed = 1;
nodes = (
(222,533,ls),
(222,700,o),
(225,800,o),
(172,800,cs),
(139,800,o),
(133,800,o),
(100,800,c),
(67,800,o),
(61,800,o),
(28,800,c),
(28,600,l),
(39,600,ls),
(72,600,o),
(89,583,o),
(89,550,cs),
(89,133,ls),
(89,50,o),
(141,0,o),
(222,0,cs),
(283,0,l),
(283,133,l),
(272,133,ls),
(239,133,o),
(222,150,o),
(222,183,cs)
);
}
);
width = 311;
},
{
layerId = m003;
shapes = (
{
closed = 1;
nodes = (
(222,533,ls),
(222,800,o),
(217,845,o),
(172,845,cs),
(139,845,o),
(133,800,o),
(100,800,c),
(67,800,o),
(61,845,o),
(28,845,c),
(28,600,l),
(39,600,ls),
(72,600,o),
(89,583,o),
(89,550,cs),
(89,133,ls),
(89,50,o),
(141,0,o),
(222,0,cs),
(283,0,l),
(283,133,l),
(272,133,ls),
(239,133,o),
(222,150,o),
(222,183,cs)
);
}
);
width = 311;
}
);
unicode = 73;
},
{
glyphname = J;
lastChange = "2024-05-10 17:50:23 +0000";
layers = (
{
layerId = m01;
shapes = (
{
closed = 1;
nodes = (
(139,183,ls),
(139,150,o),
(122,133,o),
(89,133,cs),
(22,133,l),
(22,0,l),
(139,0,ls),
(222,0,o),
(272,49,o),
(272,133,cs),
(272,667,l),
(251,667,o),
(231,667,o),
(210,667,c),
(186,667,o),
(163,667,o),
(139,667,c)
);
}
);
width = 339;
},
{
layerId = m002;
shapes = (
{
closed = 1;
nodes = (
(139,183,ls),
(139,150,o),
(122,133,o),
(89,133,cs),
(22,133,l),
(22,0,l),
(139,0,ls),
(222,0,o),
(272,49,o),
(272,133,cs),
(272,800,l),
(251,800,o),
(231,800,o),
(210,800,c),
(186,800,o),
(163,800,o),
(139,800,c)
);
}
);
width = 339;
},
{
layerId = m003;
shapes = (
{
closed = 1;
nodes = (
(139,183,ls),
(139,150,o),
(122,133,o),
(89,133,cs),
(22,133,l),
(22,0,l),
(139,0,ls),
(222,0,o),
(272,49,o),
(272,133,cs),
(272,845,l),
(239,845,o),
(239,800,o),
(206,800,c),
(173,800,o),
(172,845,o),
(139,845,c)
);
}
);
width = 339;
}
);
unicode = 74;
},
{
glyphname = K;
lastChange = "2024-05-10 16:43:55 +0000";
layers = (
{
layerId = m01;
shapes = (
{
closed = 1;
nodes = (
(534,616,l),
(426,694,l),
(222,444,l),
(222,667,l),
(189,667,o),
(188,667,o),
(155,667,c),
(122,667,o),
(122,667,o),
(89,667,c),
(89,183,ls),
(89,150,o),
(72,133,o),
(39,133,cs),
(28,133,l),
(28,0,l),
(89,0,ls),
(170,0,o),
(222,50,o),
(222,133,cs),
(222,261,l),
(311,261,ls),
(344,261,o),
(361,244,o),
(361,211,cs),
(361,0,l),
(494,0,l),
(494,261,ls),
(494,375,o),
(435,394,o),
(346,394,c)
);
}
);
width = 550;
},
{
layerId = m002;
shapes = (
{
closed = 1;
nodes = (
(534,722,l),
(426,800,l),
(222,500,l),
(222,800,l),
(189,800,o),
(188,800,o),
(155,800,c),
(122,800,o),
(122,800,o),
(89,800,c),
(89,183,ls),
(89,150,o),
(72,133,o),
(39,133,cs),
(28,133,l),
(28,0,l),
(89,0,ls),
(170,0,o),
(222,50,o),
(222,133,cs),
(222,261,l),
(311,261,ls),
(344,261,o),
(361,244,o),
(361,211,cs),
(361,0,l),
(494,0,l),
(494,261,ls),
(494,375,o),
(428,408,o),
(339,408,c)
);
}
);
width = 550;
},
{
layerId = m003;
shapes = (
{
closed = 1;
nodes = (
(534,722,l),
(426,800,l),
(222,500,l),
(222,845,l),
(189,845,o),
(188,800,o),
(155,800,c),
(122,800,o),
(122,845,o),
(89,845,c),
(89,183,ls),
(89,150,o),
(72,133,o),
(39,133,cs),
(28,133,l),
(28,0,l),
(89,0,ls),
(170,0,o),
(222,50,o),
(222,133,cs),
(222,261,l),
(311,261,ls),
(344,261,o),
(361,244,o),
(361,211,cs),
(361,0,l),
(494,0,l),
(494,261,ls),
(494,375,o),
(428,408,o),
(339,408,c)
);
}
);
width = 550;
}
);
unicode = 75;
},
{
glyphname = L;
lastChange = "2024-05-10 16:45:29 +0000";
layers = (
{
layerId = m01;
shapes = (
{
closed = 1;
nodes = (
(56,133,ls),
(56,50,o),
(106,0,o),
(189,0,cs),
(361,0,l),
(361,133,l),
(239,133,ls),
(206,133,o),
(189,150,o),
(189,183,cs),
(189,667,l),
(156,667,o),
(157,667,o),
(124,667,c),
(91,667,o),
(89,667,o),
(56,667,c)
);
}
);
width = 383;
},
{
layerId = m002;
shapes = (
{
closed = 1;
nodes = (
(56,133,ls),
(56,50,o),
(106,0,o),
(189,0,cs),
(361,0,l),
(361,133,l),
(239,133,ls),
(206,133,o),
(189,150,o),
(189,183,cs),
(189,800,l),
(156,800,o),
(157,800,o),
(124,800,c),
(91,800,o),
(89,800,o),
(56,800,c)
);
}
);
width = 383;
},
{
layerId = m003;
shapes = (
{
closed = 1;
nodes = (
(56,133,ls),
(56,50,o),
(106,0,o),
(189,0,cs),
(361,0,l),
(361,133,l),
(239,133,ls),
(206,133,o),
(189,150,o),
(189,183,cs),
(189,845,l),
(156,845,o),
(157,800,o),
(124,800,c),
(91,800,o),
(89,845,o),
(56,845,c)
);
}
);
width = 383;
}
);
unicode = 76;
},
{
glyphname = M;
lastChange = "2024-05-10 17:45:45 +0000";
layers = (
{
layerId = m01;
shapes = (
{
closed = 1;
nodes = (
(432,618,o),
(412,598,o),
(391,577,c),
(370,598,o),
(350,618,o),
(329,639,cs),
(299,669,o),
(271,683,o),
(246,683,cs),
(219,683,o),
(191,668,o),
(162,639,cs),
(56,532,l),
(56,0,l),
(189,0,l),
(189,479,l),
(221,511,ls),
(232,522,o),
(244,528,o),
(257,528,cs),
(270,528,o),
(281,522,o),
(292,511,cs),
(324,479,l),
(324,0,l),
(458,0,l),
(458,479,l),
(490,511,ls),
(501,522,o),
(513,528,o),
(526,528,cs),
(539,528,o),
(550,522,o),
(561,511,cs),
(593,479,l),
(593,133,ls),
(593,50,o),
(644,0,o),
(727,0,cs),
(788,0,l),
(788,133,l),
(777,133,ls),
(744,133,o),
(727,150,o),
(727,183,cs),
(727,532,l),
(620,639,ls),
(591,668,o),
(563,682,o),
(536,682,cs),
(509,682,o),
(482,668,o),
(453,639,cs)
);
}
);
width = 817;
},
{
layerId = m002;
shapes = (
{
closed = 1;
nodes = (
(432,735,o),
(412,715,o),
(391,694,c),
(370,715,o),
(350,735,o),
(329,756,cs),
(299,786,o),
(271,800,o),
(246,800,cs),
(219,800,o),
(187,792,o),
(162,756,cs),
(56,600,l),
(56,0,l),
(189,0,l),
(189,479,l),
(221,511,ls),
(232,522,o),
(244,528,o),
(257,528,cs),
(270,528,o),
(281,522,o),
(292,511,cs),
(324,479,l),
(324,0,l),
(458,0,l),
(458,479,l),
(490,511,ls),
(501,522,o),
(513,528,o),
(526,528,cs),
(539,528,o),
(550,522,o),
(561,511,cs),
(593,479,l),
(593,133,ls),
(593,50,o),
(644,0,o),
(727,0,cs),
(788,0,l),
(788,133,l),
(777,133,ls),
(744,133,o),
(727,150,o),
(727,183,cs),
(727,600,l),
(620,756,ls),
(595,792,o),
(563,799,o),
(536,799,cs),
(509,799,o),
(482,785,o),
(453,756,cs)
);
}
);
width = 817;
},
{
layerId = m003;
shapes = (
{
closed = 1;
nodes = (
(439,772,o),
(424,739,o),
(391,739,c),
(358,739,o),
(344,771,o),
(329,801,cs),
(281,900,o),
(257,800,o),
(232,800,cs),
(205,800,o),
(178,901,o),
(137,800,cs),
(56,600,l),
(56,0,l),
(189,0,l),
(189,480,l),
(221,512,ls),
(232,523,o),
(244,529,o),
(257,529,cs),
(270,529,o),
(281,523,o),
(292,512,cs),
(324,480,l),
(324,0,l),
(458,0,l),
(458,480,l),
(490,512,ls),
(501,523,o),
(513,529,o),
(526,529,cs),
(539,529,o),
(550,523,o),
(561,512,cs),
(593,480,l),
(593,133,ls),
(593,50,o),
(644,0,o),
(727,0,cs),
(788,0,l),
(788,133,l),
(777,133,ls),
(744,133,o),
(727,150,o),
(727,183,cs),
(727,600,l),
(637,800,ls),
(591,903,o),
(566,800,o),
(539,800,cs),
(512,800,o),
(501,900,o),
(453,801,cs)
);
}
);
width = 817;
}
);
unicode = 77;
},
{
glyphname = N;
lastChange = "2024-05-10 17:49:56 +0000";
layers = (
{
layerId = m01;
shapes = (
{
closed = 1;
nodes = (
(356,378,l),
(189,544,l),
(189,667,l),
(167,667,o),
(146,667,o),
(124,667,c),
(101,667,o),
(79,667,o),
(56,667,c),
(56,0,l),
(189,0,l),
(189,344,l),
(356,178,l),
(356,0,l),
(489,0,l),
(489,483,ls),
(489,516,o),
(506,533,o),
(539,533,cs),
(550,533,l),
(550,667,l),
(540,667,o),
(531,667,o),
(521,667,c),
(510,667,o),
(500,667,o),
(489,667,cs),
(405,667,o),
(356,617,o),
(356,533,cs)
);
}
);
width = 578;
},
{
layerId = m002;
shapes = (
{
closed = 1;
nodes = (
(356,424,l),
(189,600,l),
(189,800,l),
(156,800,o),
(156,800,o),
(123,800,c),
(90,800,o),
(89,800,o),
(56,800,c),
(56,0,l),
(189,0,l),
(189,344,l),
(356,178,l),
(356,0,l),
(489,0,l),
(489,550,ls),
(489,583,o),
(506,600,o),
(539,600,cs),
(550,600,l),
(550,800,l),
(517,800,o),
(512,800,o),
(479,800,c),
(446,800,o),
(439,800,o),
(406,800,cs),
(356,800,o),
(356,700,o),
(356,550,cs)
);
}
);
width = 578;
},
{
layerId = m003;
shapes = (
{
closed = 1;
nodes = (
(356,424,l),
(189,600,l),
(189,845,l),
(156,845,o),
(156,800,o),
(123,800,c),
(90,800,o),
(89,845,o),
(56,845,c),
(56,0,l),
(189,0,l),
(189,344,l),
(356,178,l),
(356,0,l),
(489,0,l),
(489,550,ls),
(489,583,o),
(506,600,o),
(539,600,cs),
(550,600,l),
(550,845,l),
(517,845,o),
(512,800,o),
(479,800,c),
(446,800,o),
(439,845,o),
(406,845,cs),
(356,845,o),
(356,846,o),
(356,550,cs)
);
}
);
width = 578;
}
);
unicode = 78;
},
{
glyphname = O;
lastChange = "2024-05-10 17:56:46 +0000";
layers = (
{
layerId = m01;
shapes = (
{
closed = 1;
nodes = (
(56,160,l),
(188,28,ls),
(217,-1,o),
(249,-16,o),
(283,-16,cs),
(316,-16,o),
(348,-1,o),
(377,28,cs),
(509,160,l),
(509,507,l),
(377,639,ls),
(349,667,o),
(315,683,o),
(283,683,cs),
(249,683,o),
(217,668,o),
(188,639,cs),
(56,507,l)
);
},
{
closed = 1;
nodes = (
(376,213,l),
(318,156,ls),
(306,144,o),
(294,138,o),
(282,138,cs),
(271,138,o),
(259,144,o),
(247,156,cs),
(189,213,l),
(189,453,l),
(247,511,ls),
(258,522,o),
(270,528,o),
(282,528,cs),
(295,528,o),
(307,522,o),
(318,511,cs),
(376,453,l)
);
}
);
width = 567;
},
{
layerId = m002;
shapes = (
{
closed = 1;
nodes = (
(56,160,l),
(188,28,ls),
(217,-1,o),
(249,-16,o),
(283,-16,cs),
(316,-16,o),
(348,-1,o),
(377,28,cs),
(509,160,l),
(509,600,l),
(377,756,ls),
(348,790,o),
(315,800,o),
(283,800,cs),
(249,800,o),
(218,792,o),
(188,756,cs),
(56,600,l)
);
},
{
closed = 1;
nodes = (
(376,213,l),
(318,156,ls),
(306,144,o),
(294,138,o),
(282,138,cs),
(271,138,o),
(259,144,o),
(247,156,cs),
(189,213,l),
(189,453,l),
(247,511,ls),
(258,522,o),
(270,528,o),
(282,528,cs),
(295,528,o),
(307,522,o),
(318,511,cs),
(376,453,l)
);
}
);
width = 567;
},
{
layerId = m003;
shapes = (
{
closed = 1;
nodes = (
(56,160,l),
(188,28,ls),
(217,-1,o),
(249,-16,o),
(283,-16,cs),
(316,-16,o),
(348,-1,o),
(377,28,cs),
(509,160,l),
(509,600,l),
(398,800,ls),
(344,898,o),
(316,800,o),
(283,800,cs),
(250,800,o),
(221,898,o),
(167,800,cs),
(56,600,l)
);
},
{
closed = 1;
nodes = (
(376,213,l),
(318,156,ls),
(306,144,o),
(294,138,o),
(282,138,cs),
(271,138,o),
(259,144,o),
(247,156,cs),
(189,213,l),
(189,453,l),
(247,511,ls),
(258,522,o),
(270,528,o),
(282,528,cs),
(295,528,o),
(307,522,o),
(318,511,cs),
(376,453,l)
);
}
);
width = 567;
}
);
unicode = 79;
},
{
glyphname = P;
lastChange = "2024-05-10 18:01:38 +0000";
layers = (
{
layerId = m01;
shapes = (
{
closed = 1;
nodes = (
(111,0,l),
(244,0,l),
(244,200,l),
(389,200,ls),
(470,200,o),
(522,250,o),
(522,333,cs),
(522,533,ls),
(522,618,o),
(473,667,o),
(389,667,cs),
(368,667,o),
(347,667,o),
(326,667,c),
(306,667,o),
(285,667,o),
(265,667,c),
(244,667,o),
(222,667,o),
(201,667,c),
(181,667,o),
(161,667,o),
(141,667,c),
(121,667,o),
(102,667,o),
(82,667,c),
(64,667,o),
(46,667,o),
(28,667,c),
(28,533,l),
(61,533,ls),
(94,533,o),
(111,516,o),
(111,483,cs)
);
},
{
closed = 1;
nodes = (
(244,333,l),
(244,533,l),
(339,533,ls),
(372,533,o),
(389,516,o),
(389,483,cs),
(389,383,ls),
(389,350,o),
(372,333,o),
(339,333,cs)
);
}
);
width = 567;
},
{
layerId = m002;
shapes = (
{
closed = 1;
nodes = (
(111,0,l),
(244,0,l),
(244,200,l),
(389,200,ls),
(470,200,o),
(522,250,o),
(522,333,cs),
(522,533,ls),
(522,800,o),
(473,800,o),
(389,800,cs),
(375,800,o),
(360,800,o),
(346,800,c),
(333,800,o),
(321,800,o),
(308,800,c),
(287,800,o),
(266,800,o),
(245,800,c),
(222,800,o),
(199,800,o),
(176,800,c),
(149,800,o),
(123,800,o),
(96,800,c),
(73,800,o),
(51,800,o),
(28,800,c),
(28,533,l),
(61,533,ls),
(94,533,o),
(111,516,o),
(111,483,cs)
);
},
{
closed = 1;
nodes = (
(244,333,l),
(244,533,l),
(339,533,ls),
(372,533,o),
(389,516,o),
(389,483,cs),
(389,383,ls),
(389,350,o),
(372,333,o),
(339,333,cs)
);
}
);
width = 567;
},
{
layerId = m003;
shapes = (
{
closed = 1;
nodes = (
(111,0,l),
(244,0,l),
(244,200,l),
(389,200,ls),
(470,200,o),
(522,250,o),
(522,333,cs),
(522,533,ls),
(522,800,o),
(511,845,o),
(460,845,cs),
(427,845,o),
(422,800,o),
(389,800,cs),
(356,800,o),
(349,845,o),
(316,845,cs),
(283,845,o),
(277,800,o),
(244,800,c),
(211,800,o),
(205,845,o),
(172,845,c),
(139,845,o),
(131,800,o),
(98,800,c),
(65,800,o),
(61,845,o),
(28,845,c),
(28,533,l),
(61,533,ls),
(94,533,o),
(111,516,o),
(111,483,cs)
);
},
{
closed = 1;
nodes = (
(244,333,l),
(244,533,l),
(339,533,ls),
(372,533,o),
(389,516,o),
(389,483,cs),
(389,383,ls),
(389,350,o),
(372,333,o),
(339,333,cs)
);
}
);
width = 567;
}
);
unicode = 80;
},
{
glyphname = Q;
lastChange = "2024-05-10 18:03:17 +0000";
layers = (
{
layerId = m01;
shapes = (
{
closed = 1;
nodes = (
(509,160,l),
(509,507,l),
(377,639,ls),
(348,668,o),
(317,682,o),
(282,682,cs),
(247,682,o),
(215,668,o),
(188,639,cs),
(56,507,l),
(56,160,l),
(383,-168,l),
(477,-74,l),
(376,27,l)
);
},
{
closed = 1;
nodes = (
(376,213,l),
(318,156,ls),
(306,144,o),
(294,138,o),
(282,138,cs),
(271,138,o),
(259,144,o),
(247,156,cs),
(189,213,l),
(189,453,l),
(247,511,ls),
(258,522,o),
(270,528,o),
(282,528,cs),
(295,528,o),
(307,522,o),
(318,511,cs),
(376,453,l)
);
}
);
width = 567;
},
{
layerId = m002;
shapes = (
{
closed = 1;
nodes = (
(509,160,l),
(509,600,l),
(377,757,ls),
(348,791,o),
(317,800,o),
(282,800,cs),
(247,800,o),
(217,791,o),
(188,757,cs),
(56,600,l),
(56,160,l),
(383,-168,l),
(477,-74,l),
(376,27,l)
);
},
{
closed = 1;
nodes = (
(376,213,l),
(318,156,ls),
(306,144,o),
(294,138,o),
(282,138,cs),
(271,138,o),
(259,144,o),
(247,156,cs),
(189,213,l),
(189,453,l),
(247,511,ls),
(258,522,o),
(270,528,o),
(282,528,cs),
(295,528,o),
(307,522,o),
(318,511,cs),
(376,453,l)
);
}
);
width = 567;
},
{
layerId = m003;
shapes = (
{
closed = 1;
nodes = (
(509,160,l),
(509,600,l),
(397,802,ls),
(340,904,o),
(315,800,o),
(282,800,cs),
(249,800,o),
(225,904,o),
(168,802,cs),
(56,600,l),
(56,160,l),
(383,-168,l),
(477,-74,l),
(376,27,l)
);
},
{
closed = 1;
nodes = (
(376,213,l),
(318,156,ls),
(306,144,o),
(294,138,o),
(282,138,cs),
(271,138,o),
(259,144,o),
(247,156,cs),
(189,213,l),
(189,453,l),
(247,511,ls),
(258,522,o),
(270,528,o),
(282,528,cs),
(295,528,o),
(307,522,o),
(318,511,cs),
(376,453,l)
);
}
);
width = 567;
}
);
unicode = 81;
},
{
glyphname = R;
lastChange = "2024-05-10 18:16:27 +0000";
layers = (
{
layerId = m01;
shapes = (
{
closed = 1;
nodes = (
(464,-28,l),
(573,51,l),
(402,249,l),
(477,256,o),
(522,298,o),
(522,378,cs),
(522,533,ls),
(522,618,o),
(473,667,o),
(389,667,cs),
(366,667,o),
(343,667,o),
(320,667,c),
(302,667,o),
(285,667,o),
(267,667,c),
(245,667,o),
(222,667,o),
(200,667,c),
(184,667,o),
(168,667,o),
(152,667,c),
(128,667,o),
(105,667,o),
(81,667,c),
(63,667,o),
(46,667,o),
(28,667,c),
(28,533,l),
(61,533,ls),
(94,533,o),
(111,516,o),
(111,483,cs),
(111,0,l),
(244,0,l),
(244,246,l)
);
},
{
closed = 1;
nodes = (
(244,378,l),
(244,533,l),
(339,533,ls),
(372,533,o),
(389,516,o),
(389,483,cs),
(389,428,ls),
(389,395,o),
(372,378,o),
(339,378,cs)
);
}
);
width = 589;
},
{
layerId = m002;
shapes = (
{
closed = 1;
nodes = (
(464,-28,l),
(573,51,l),
(402,249,l),
(477,256,o),
(522,298,o),
(522,378,cs),
(522,533,ls),
(522,800,o),
(473,800,o),
(389,800,cs),
(372,800,o),
(354,800,o),
(337,800,c),
(314,800,o),
(292,800,o),
(269,800,c),
(250,800,o),
(230,800,o),
(211,800,c),
(191,800,o),
(172,800,o),
(152,800,c),
(128,800,o),
(104,800,o),
(80,800,c),
(63,800,o),
(45,800,o),
(28,800,c),
(28,533,l),
(61,533,ls),
(94,533,o),
(111,516,o),
(111,483,cs),
(111,0,l),
(244,0,l),
(244,246,l)
);
},
{
closed = 1;
nodes = (
(244,378,l),
(244,533,l),
(339,533,ls),
(372,533,o),
(389,516,o),
(389,483,cs),
(389,428,ls),
(389,395,o),
(372,378,o),
(339,378,cs)
);
}
);
width = 589;
},
{
layerId = m003;
shapes = (
{
closed = 1;
nodes = (
(464,-28,l),
(573,51,l),
(402,249,l),
(477,256,o),
(522,298,o),
(522,378,cs),
(522,533,ls),
(522,800,o),
(513,845,o),
(460,845,cs),
(427,845,o),
(422,800,o),
(389,800,c),
(356,800,o),
(349,845,o),
(316,845,c),
(283,845,o),
(277,800,o),
(244,800,c),
(211,800,o),
(205,845,o),
(172,845,c),
(139,845,o),
(131,800,o),
(98,800,c),
(65,800,o),
(61,845,o),
(28,845,c),
(28,533,l),
(61,533,ls),
(94,533,o),
(111,516,o),
(111,483,cs),
(111,0,l),
(244,0,l),
(244,246,l)
);
},
{
closed = 1;
nodes = (
(244,378,l),
(244,533,l),
(339,533,ls),
(372,533,o),
(389,516,o),
(389,483,cs),
(389,428,ls),
(389,395,o),
(372,378,o),
(339,378,cs)
);
}
);
width = 589;
}
);
unicode = 82;
},
{
glyphname = S;
lastChange = "2024-05-10 18:10:48 +0000";
layers = (
{
layerId = m01;
shapes = (
{
closed = 1;
nodes = (
(178,483,ls),
(178,518,o),
(195,533,o),
(228,533,cs),
(389,533,l),
(389,667,l),
(376,667,o),
(364,667,o),
(351,667,c),
(334,667,o),
(318,667,o),
(301,667,c),
(282,667,o),
(264,667,o),
(245,667,c),
(223,667,o),
(200,667,o),
(178,667,cs),
(94,667,o),
(44,618,o),
(44,533,cs),
(44,400,ls),
(44,317,o),
(95,267,o),
(178,267,cs),
(239,267,ls),
(272,267,o),
(289,250,o),
(289,217,cs),
(289,183,ls),
(289,150,o),
(272,133,o),
(239,133,cs),
(56,133,l),
(56,0,l),
(289,0,ls),
(372,0,o),
(422,49,o),
(422,133,cs),
(422,267,ls),
(422,351,o),
(373,400,o),
(289,400,cs),
(228,400,ls),
(195,400,o),
(178,417,o),
(178,450,cs)
);
}
);
width = 467;
},
{
layerId = m002;
shapes = (
{
closed = 1;
nodes = (
(178,483,ls),
(178,518,o),
(195,533,o),
(228,533,cs),
(389,533,l),
(389,800,l),
(376,800,o),
(363,800,o),
(350,800,cs),
(337,800,o),
(323,800,o),
(310,800,c),
(287,800,o),
(264,800,o),
(241,800,c),
(220,800,o),
(199,800,o),
(178,800,cs),
(94,800,o),
(44,800,o),
(44,533,cs),
(44,400,ls),
(44,317,o),
(95,267,o),
(178,267,cs),
(239,267,ls),
(272,267,o),
(289,250,o),
(289,217,cs),
(289,183,ls),
(289,150,o),
(272,133,o),
(239,133,cs),
(56,133,l),
(56,0,l),
(289,0,ls),
(372,0,o),
(422,49,o),
(422,133,cs),
(422,267,ls),
(422,351,o),
(373,400,o),
(289,400,cs),
(228,400,ls),
(195,400,o),
(178,417,o),
(178,450,cs)
);
}
);
width = 467;
},
{
layerId = m003;
shapes = (
{
closed = 1;
nodes = (
(178,483,ls),
(178,518,o),
(195,533,o),
(228,533,cs),
(389,533,l),
(389,845,l),
(356,845,o),
(357,800,o),
(324,800,c),
(291,800,o),
(288,845,o),
(255,845,c),
(222,845,o),
(219,800,o),
(186,800,c),
(153,800,o),
(155,845,o),
(122,845,cs),
(71,845,o),
(44,800,o),
(44,533,cs),
(44,400,ls),
(44,317,o),
(95,267,o),
(178,267,cs),
(239,267,ls),
(272,267,o),
(289,250,o),
(289,217,cs),
(289,183,ls),
(289,150,o),
(272,133,o),
(239,133,cs),
(56,133,l),
(56,0,l),
(289,0,ls),
(372,0,o),
(422,49,o),
(422,133,cs),
(422,267,ls),
(422,351,o),
(373,400,o),
(289,400,cs),
(228,400,ls),
(195,400,o),
(178,417,o),
(178,450,cs)
);
}
);
width = 467;
}
);
unicode = 83;
},
{
glyphname = T;
lastChange = "2024-05-10 18:15:25 +0000";
layers = (
{
layerId = m01;
shapes = (
{
closed = 1;
nodes = (
(183,0,l),
(317,0,l),
(317,483,ls),
(317,518,o),
(332,533,o),
(367,533,cs),
(476,533,l),
(476,667,l),
(452,667,o),
(427,667,o),
(403,667,c),
(377,667,o),
(351,667,o),
(325,667,c),
(301,667,o),
(278,667,o),
(254,667,c),
(228,667,o),
(202,667,o),
(176,667,c),
(148,667,o),
(119,667,o),
(91,667,c),
(69,667,o),
(46,667,o),
(24,667,c),
(24,533,l),
(133,533,ls),
(168,533,o),
(183,518,o),
(183,483,cs)
);
}
);
width = 500;
},
{
layerId = m002;
shapes = (
{
closed = 1;
nodes = (
(183,0,l),
(317,0,l),
(317,483,ls),
(317,518,o),
(332,533,o),
(367,533,cs),
(476,533,l),
(476,800,l),
(449,800,o),
(423,800,o),
(396,800,c),
(368,800,o),
(341,800,o),
(313,800,c),
(288,800,o),
(263,800,o),
(238,800,c),
(214,800,o),
(189,800,o),
(165,800,c),
(140,800,o),
(116,800,o),
(91,800,c),
(69,800,o),
(46,800,o),
(24,800,c),
(24,533,l),
(133,533,ls),
(168,533,o),
(183,518,o),
(183,483,cs)
);
}
);
width = 500;
},
{
layerId = m003;
shapes = (
{
closed = 1;
nodes = (
(183,0,l),
(317,0,l),
(317,483,ls),
(317,518,o),
(332,533,o),
(367,533,cs),
(476,533,l),
(476,845,l),
(443,845,o),
(438,800,o),
(405,800,c),
(372,800,o),
(365,845,o),
(332,845,c),
(299,845,o),
(286,800,o),
(253,800,c),
(220,800,o),
(208,845,o),
(175,845,c),
(142,845,o),
(133,800,o),
(100,800,c),
(67,800,o),
(57,845,o),
(24,845,c),
(24,533,l),
(133,533,ls),
(168,533,o),
(183,518,o),
(183,483,cs)
);
}
);
width = 500;
}
);
unicode = 84;
},
{
glyphname = U;
lastChange = "2024-05-10 18:17:33 +0000";
layers = (
{
layerId = m01;
shapes = (
{
closed = 1;
nodes = (
(56,133,ls),
(56,50,o),
(106,0,o),
(189,0,cs),
(550,0,l),
(550,133,l),
(517,133,ls),
(484,133,o),
(467,150,o),
(467,183,cs),
(467,667,l),
(444,667,o),
(421,667,o),
(398,667,c),
(376,667,o),
(355,667,o),
(333,667,c),
(333,133,l),
(239,133,ls),
(206,133,o),
(189,150,o),
(189,183,cs),
(189,667,l),
(166,667,o),
(142,667,o),
(119,667,c),
(98,667,o),
(77,667,o),
(56,667,c)
);
}
);
width = 578;
},
{
layerId = m002;
shapes = (
{
closed = 1;
nodes = (
(56,133,ls),
(56,50,o),
(106,0,o),
(189,0,cs),
(550,0,l),
(550,133,l),
(517,133,ls),
(484,133,o),
(467,150,o),
(467,183,cs),
(467,800,l),
(447,800,o),
(428,800,o),
(408,800,c),
(383,800,o),
(358,800,o),
(333,800,c),
(333,133,l),
(239,133,ls),
(206,133,o),
(189,150,o),
(189,183,cs),
(189,800,l),
(167,800,o),
(144,800,o),
(122,800,c),
(100,800,o),
(78,800,o),
(56,800,c)
);
}
);
width = 578;
},
{
layerId = m003;
shapes = (
{
closed = 1;
nodes = (
(56,133,ls),
(56,50,o),
(106,0,o),
(189,0,cs),
(550,0,l),
(550,133,l),
(517,133,ls),
(484,133,o),
(467,150,o),
(467,183,cs),
(467,845,l),
(434,845,o),
(437,800,o),
(404,800,c),
(371,800,o),
(366,845,o),
(333,845,c),
(333,133,l),
(239,133,ls),
(206,133,o),
(189,150,o),
(189,183,cs),
(189,845,l),
(156,845,o),
(155,800,o),
(122,800,c),
(89,800,o),
(89,845,o),
(56,845,c)
);
}
);
width = 578;
}
);
unicode = 85;
},
{
glyphname = V;
lastChange = "2024-05-10 18:20:51 +0000";
layers = (
{
layerId = m01;
shapes = (
{
closed = 1;
nodes = (
(353,202,l),
(307,156,ls),
(295,144,o),
(283,138,o),
(271,138,cs),
(260,138,o),
(248,144,o),
(236,156,cs),
(189,202,l),
(189,667,l),
(167,667,o),
(145,667,o),
(123,667,c),
(101,667,o),
(78,667,o),
(56,667,c),
(56,149,l),
(177,28,ls),
(207,-1,o),
(238,-16,o),
(271,-16,cs),
(304,-16,o),
(336,-1,o),
(366,28,cs),
(487,149,l),
(487,483,ls),
(487,518,o),
(502,533,o),
(537,533,cs),
(570,533,l),
(570,667,l),
(557,667,o),
(544,667,o),
(531,667,c),
(516,667,o),
(502,667,o),
(487,667,cs),
(403,667,o),
(353,617,o),
(353,533,cs)
);
}
);
width = 594;
},
{
layerId = m002;
shapes = (
{
closed = 1;
nodes = (
(353,202,l),
(307,156,ls),
(295,144,o),
(283,138,o),
(271,138,cs),
(260,138,o),
(248,144,o),
(236,156,cs),
(189,202,l),
(189,800,l),
(167,800,o),
(146,800,o),
(124,800,c),
(101,800,o),
(79,800,o),
(56,800,c),
(56,149,l),
(177,28,ls),
(207,-1,o),
(238,-16,o),
(271,-16,cs),
(304,-16,o),
(336,-1,o),
(366,28,cs),
(487,149,l),
(487,483,ls),
(487,518,o),
(502,533,o),
(537,533,cs),
(570,533,l),
(570,800,l),
(556,800,o),
(541,800,o),
(527,800,c),
(514,800,o),
(500,800,o),
(487,800,cs),
(403,800,o),
(353,800,o),
(353,533,cs)
);
}
);
width = 594;
},
{
layerId = m003;
shapes = (
{
closed = 1;
nodes = (
(353,202,l),
(307,156,ls),
(295,144,o),
(283,138,o),
(271,138,cs),
(260,138,o),
(248,144,o),
(236,156,cs),
(189,202,l),
(189,845,l),
(156,845,o),
(157,800,o),
(124,800,c),
(91,800,o),
(89,845,o),
(56,845,c),
(56,149,l),
(177,28,ls),
(207,-1,o),
(238,-16,o),
(271,-16,cs),
(304,-16,o),
(336,-1,o),
(366,28,cs),
(487,149,l),
(487,483,ls),
(487,518,o),
(502,533,o),
(537,533,cs),
(570,533,l),
(570,845,l),
(537,845,o),
(527,800,o),
(494,800,cs),
(461,800,o),
(453,845,o),
(420,845,cs),
(358,845,o),
(353,800,o),
(353,533,cs)
);
}
);
width = 594;
}
);
unicode = 86;
},
{
glyphname = W;
lastChange = "2024-05-10 18:24:47 +0000";
layers = (
{
layerId = m01;
shapes = (
{
closed = 1;
nodes = (
(549,177,l),
(528,156,ls),
(516,144,o),
(504,138,o),
(492,138,cs),
(481,138,o),
(469,144,o),
(457,156,cs),
(436,177,l),
(436,667,l),
(412,667,o),
(388,667,o),
(364,667,c),
(343,667,o),
(323,667,o),
(302,667,c),
(302,177,l),
(281,156,ls),
(270,144,o),
(259,138,o),
(246,138,cs),
(234,138,o),
(222,144,o),
(210,156,cs),
(189,177,l),
(189,667,l),
(169,667,o),
(149,667,o),
(129,667,c),
(105,667,o),
(80,667,o),
(56,667,c),
(56,123,l),
(151,28,ls),
(182,-3,o),
(208,-16,o),
(235,-16,cs),
(261,-16,o),
(289,-1,o),
(318,28,cs),
(369,79,l),
(420,28,ls),
(451,-3,o),
(477,-16,o),
(504,-16,cs),
(530,-16,o),
(558,-1,o),
(587,28,cs),
(682,123,l),
(682,483,ls),
(682,516,o),
(699,533,o),
(732,533,cs),
(766,533,l),
(766,667,l),
(751,667,o),
(736,667,o),
(721,667,c),
(708,667,o),
(695,667,o),
(682,667,cs),
(599,667,o),
(549,617,o),
(549,533,cs)
);
}
);
width = 789;
},
{
layerId = m002;
shapes = (
{
closed = 1;
nodes = (
(549,177,l),
(528,156,ls),
(516,144,o),
(504,138,o),
(492,138,cs),
(481,138,o),
(469,144,o),
(457,156,cs),
(436,177,l),
(436,800,l),
(414,800,o),
(391,800,o),
(369,800,c),
(347,800,o),
(324,800,o),
(302,800,c),
(302,177,l),
(281,156,ls),
(270,144,o),
(259,138,o),
(246,138,cs),
(234,138,o),
(222,144,o),
(210,156,cs),
(189,177,l),
(189,800,l),
(168,800,o),
(147,800,o),
(126,800,c),
(103,800,o),
(79,800,o),
(56,800,c),
(56,123,l),
(151,28,ls),
(182,-3,o),
(208,-16,o),
(235,-16,cs),
(261,-16,o),
(289,-1,o),
(318,28,cs),
(369,79,l),
(420,28,ls),
(451,-3,o),
(477,-16,o),
(504,-16,cs),
(530,-16,o),
(558,-1,o),
(587,28,cs),
(682,123,l),
(682,483,ls),
(682,516,o),
(699,533,o),
(732,533,cs),
(766,533,l),
(766,800,l),
(752,800,o),
(738,800,o),
(724,800,c),
(710,800,o),
(696,800,o),
(682,800,cs),
(599,800,o),
(549,750,o),
(549,533,cs)
);
}
);
width = 789;
},
{
layerId = m003;
shapes = (
{
closed = 1;
nodes = (
(549,177,l),
(528,156,ls),
(516,144,o),
(504,138,o),
(492,138,cs),
(481,138,o),
(469,144,o),
(457,156,cs),
(436,177,l),
(436,845,l),
(403,845,o),
(405,800,o),
(372,800,c),
(339,800,o),
(335,845,o),
(302,845,c),
(302,177,l),
(281,156,ls),
(270,144,o),
(259,138,o),
(246,138,cs),
(234,138,o),
(222,144,o),
(210,156,cs),
(189,177,l),
(189,845,l),
(156,845,o),
(156,800,o),
(123,800,c),
(90,800,o),
(89,845,o),
(56,845,c),
(56,123,l),
(151,28,ls),
(182,-3,o),
(208,-16,o),
(235,-16,cs),
(261,-16,o),
(289,-1,o),
(318,28,cs),
(369,79,l),
(420,28,ls),
(451,-3,o),
(477,-16,o),
(504,-16,cs),
(530,-16,o),
(558,-1,o),
(587,28,cs),
(682,123,l),
(682,483,ls),
(682,516,o),
(699,533,o),
(732,533,cs),
(766,533,l),
(766,845,l),
(733,845,o),
(724,800,o),
(694,800,c),
(664,800,o),
(657,845,o),
(624,845,cs),
(558,845,o),
(549,750,o),
(549,533,cs)
);
}
);
width = 789;
}
);
unicode = 87;
},
{
glyphname = X;
lastChange = "2024-05-10 18:26:12 +0000";
layers = (
{
layerId = m01;
shapes = (
{
closed = 1;
nodes = (
(376,349,l),
(487,460,l),
(487,667,l),
(465,667,o),
(443,667,o),
(421,667,c),
(398,667,o),
(376,667,o),
(353,667,c),
(353,508,l),
(307,461,l),
(294,450,o),
(282,444,o),
(271,444,cs),
(260,444,o),
(249,450,o),
(236,461,c),
(189,508,l),
(189,667,l),
(168,667,o),
(148,667,o),
(127,667,c),
(103,667,o),
(80,667,o),
(56,667,c),
(56,460,l),
(167,349,l),
(56,238,l),
(56,0,l),
(189,0,l),
(189,190,l),
(236,237,ls),
(247,248,o),
(259,254,o),
(271,254,cs),
(283,254,o),
(295,248,o),
(307,237,cs),
(353,190,l),
(353,0,l),
(487,0,l),
(487,238,l)
);
}
);
width = 544;
},
{
layerId = m002;
shapes = (
{
closed = 1;
nodes = (
(376,349,l),
(487,460,l),
(487,800,l),
(466,800,o),
(446,800,o),
(425,800,c),
(401,800,o),
(377,800,o),
(353,800,c),
(353,508,l),
(307,461,l),
(294,450,o),
(282,444,o),
(271,444,cs),
(260,444,o),
(249,450,o),
(236,461,c),
(189,508,l),
(189,800,l),
(168,800,o),
(146,800,o),
(125,800,c),
(102,800,o),
(79,800,o),
(56,800,c),
(56,460,l),
(167,349,l),
(56,238,l),
(56,0,l),
(189,0,l),
(189,190,l),
(236,237,ls),
(247,248,o),
(259,254,o),
(271,254,cs),
(283,254,o),
(295,248,o),
(307,237,cs),
(353,190,l),
(353,0,l),
(487,0,l),
(487,238,l)
);
}
);
width = 544;
},
{
layerId = m003;
shapes = (
{
closed = 1;
nodes = (
(376,349,l),
(487,460,l),
(487,845,l),
(454,845,o),
(455,800,o),
(422,800,c),
(389,800,o),
(386,845,o),
(353,845,c),
(353,508,l),
(307,461,l),
(294,450,o),
(282,444,o),
(271,444,cs),
(260,444,o),
(249,450,o),
(236,461,c),
(189,508,l),
(189,845,l),
(156,845,o),
(157,800,o),
(124,800,c),
(91,800,o),
(89,845,o),
(56,845,c),
(56,460,l),
(167,349,l),
(56,238,l),
(56,0,l),
(189,0,l),
(189,190,l),
(236,237,ls),
(247,248,o),
(259,254,o),
(271,254,cs),
(283,254,o),
(295,248,o),
(307,237,cs),
(353,190,l),
(353,0,l),
(487,0,l),
(487,238,l)
);
}
);
width = 544;
}
);
unicode = 88;
},
{
glyphname = Y;
lastChange = "2024-05-10 18:27:26 +0000";
layers = (
{
layerId = m01;
shapes = (
{
closed = 1;
nodes = (
(476,410,l),
(476,667,l),
(451,667,o),
(426,667,o),
(401,667,c),
(381,667,o),
(362,667,o),
(342,667,c),
(342,458,l),
(296,411,ls),
(284,400,o),
(272,394,o),
(260,394,cs),
(248,394,o),
(236,400,o),
(224,411,cs),
(178,458,l),
(178,667,l),
(155,667,o),
(131,667,o),
(108,667,c),
(87,667,o),
(65,667,o),
(44,667,c),
(44,410,l),
(193,261,l),
(193,0,l),
(327,0,l),
(327,261,l)
);
}
);
width = 522;
},
{
layerId = m002;
shapes = (
{
closed = 1;
nodes = (
(476,410,l),
(476,800,l),
(454,800,o),
(433,800,o),
(411,800,c),
(388,800,o),
(365,800,o),
(342,800,c),
(342,458,l),
(296,411,ls),
(284,400,o),
(272,394,o),
(260,394,cs),
(248,394,o),
(236,400,o),
(224,411,cs),
(178,458,l),
(178,800,l),
(155,800,o),
(133,800,o),
(110,800,c),
(88,800,o),
(66,800,o),
(44,800,c),
(44,410,l),
(193,261,l),
(193,0,l),
(327,0,l),
(327,261,l)
);
}
);
width = 522;
},
{
layerId = m003;
shapes = (
{
closed = 1;
nodes = (
(476,410,l),
(476,845,l),
(443,845,o),
(445,800,o),
(412,800,c),
(379,800,o),
(375,845,o),
(342,845,c),
(342,458,l),
(296,411,ls),
(284,400,o),
(272,394,o),
(260,394,cs),
(248,394,o),
(236,400,o),
(224,411,cs),
(178,458,l),
(178,845,l),
(145,845,o),
(145,800,o),
(112,800,c),
(79,800,o),
(77,845,o),
(44,845,c),
(44,410,l),
(193,261,l),
(193,0,l),
(327,0,l),
(327,261,l)
);
}
);
width = 522;
}
);
unicode = 89;
},
{
glyphname = Z;
lastChange = "2024-05-10 18:30:22 +0000";
layers = (
{
layerId = m01;
shapes = (
{
closed = 1;
nodes = (
(289,267,ls),
(372,267,o),
(422,316,o),
(422,400,cs),
(422,667,l),
(402,667,o),
(382,667,o),
(362,667,c),
(341,667,o),
(320,667,o),
(299,667,c),
(278,667,o),
(256,667,o),
(235,667,c),
(216,667,o),
(196,667,o),
(177,667,c),
(158,667,o),
(138,667,o),
(119,667,c),
(98,667,o),
(77,667,o),
(56,667,c),
(56,533,l),
(289,533,l),
(289,450,ls),
(289,417,o),
(272,400,o),
(239,400,cs),
(178,400,ls),
(94,400,o),
(44,351,o),
(44,267,cs),
(44,0,l),
(433,0,l),
(433,133,l),
(178,133,l),
(178,217,ls),
(178,250,o),
(195,267,o),
(228,267,cs)
);
}
);
width = 478;
},
{
layerId = m002;
shapes = (
{
closed = 1;
nodes = (
(289,267,ls),
(372,267,o),
(422,316,o),
(422,400,cs),
(422,800,l),
(410,800,o),
(398,800,o),
(386,800,c),
(368,800,o),
(350,800,o),
(332,800,c),
(311,800,o),
(291,800,o),
(270,800,c),
(247,800,o),
(223,800,o),
(200,800,c),
(173,800,o),
(147,800,o),
(120,800,c),
(99,800,o),
(77,800,o),
(56,800,c),
(56,533,l),
(289,533,l),
(289,450,ls),
(289,417,o),
(272,400,o),
(239,400,cs),
(178,400,ls),
(94,400,o),
(44,351,o),
(44,267,cs),
(44,0,l),
(433,0,l),
(433,133,l),
(178,133,l),
(178,217,ls),
(178,250,o),
(195,267,o),
(228,267,cs)
);
}
);
width = 478;
},
{
layerId = m003;
shapes = (
{
closed = 1;
nodes = (
(289,267,ls),
(372,267,o),
(422,316,o),
(422,400,cs),
(422,845,l),
(389,845,o),
(395,800,o),
(362,800,cs),
(329,800,o),
(337,845,o),
(304,845,cs),
(271,845,o),
(274,800,o),
(241,800,c),
(208,800,o),
(213,845,o),
(180,845,c),
(147,845,o),
(150,800,o),
(117,800,c),
(84,800,o),
(89,845,o),
(56,845,c),
(56,533,l),
(289,533,l),
(289,450,ls),
(289,417,o),
(272,400,o),
(239,400,cs),
(178,400,ls),
(94,400,o),
(44,351,o),
(44,267,cs),
(44,0,l),
(433,0,l),
(433,133,l),
(178,133,l),
(178,217,ls),
(178,250,o),
(195,267,o),
(228,267,cs)
);
}
);
width = 478;
}
);
unicode = 90;
},
{
glyphname = a;
lastChange = "2024-05-10 06:56:29 +0000";
layers = (
{
layerId = m01;
shapes = (
{
closed = 1;
nodes = (
(189,467,ls),
(105,467,o),
(56,417,o),
(56,333,cs),
(56,133,ls),
(56,50,o),
(106,0,o),
(189,0,cs),
(506,0,l),
(506,133,l),
(494,133,ls),
(461,133,o),
(444,150,o),
(444,183,cs),
(444,467,l)
);
},
{
closed = 1;
nodes = (
(311,333,l),
(311,133,l),
(239,133,ls),
(206,133,o),
(189,150,o),
(189,183,cs),
(189,283,ls),
(189,316,o),
(206,333,o),
(239,333,cs)
);
}
);
width = 533;
},
{
layerId = m002;
shapes = (
{
closed = 1;
nodes = (
(189,600,ls),
(105,600,o),
(56,550,o),
(56,333,cs),
(56,133,ls),
(56,50,o),
(106,0,o),
(189,0,cs),
(506,0,l),
(506,133,l),
(494,133,ls),
(461,133,o),
(444,150,o),
(444,183,cs),
(444,600,l)
);
},
{
closed = 1;
nodes = (
(311,333,l),
(311,133,l),
(239,133,ls),
(206,133,o),
(189,150,o),
(189,183,cs),
(189,283,ls),
(189,316,o),
(206,333,o),
(239,333,cs)
);
}
);
width = 533;
},
{
layerId = m003;
shapes = (
{
closed = 1;
nodes = (
(189,600,ls),
(105,600,o),
(56,550,o),
(56,333,cs),
(56,133,ls),
(56,50,o),
(106,0,o),
(189,0,cs),
(506,0,l),
(506,133,l),
(494,133,ls),
(461,133,o),
(444,150,o),
(444,183,cs),
(444,600,l)
);
},
{
closed = 1;
nodes = (
(311,333,l),
(311,133,l),
(239,133,ls),
(206,133,o),
(189,150,o),
(189,183,cs),
(189,283,ls),
(189,316,o),
(206,333,o),
(239,333,cs)
);
}
);
width = 533;
}
);
unicode = 97;
},
{
glyphname = b;
lastChange = "2024-05-10 06:56:29 +0000";
layers = (
{
hints = (
{
horizontal = 1;
place = (667,-20);
target = down;
type = TopGhost;
},
{
horizontal = 1;
place = (333,134);
type = Stem;
},
{
horizontal = 1;
place = (0,133);
type = Stem;
},
{
place = (311,133);
type = Stem;
},
{
place = (56,133);
type = Stem;
}
);
layerId = m01;
shapes = (
{
closed = 1;
nodes = (
(56,133,ls),
(56,50,o),
(106,0,o),
(189,0,cs),
(311,0,ls),
(394,0,o),
(444,49,o),
(444,133,cs),
(444,333,ls),
(444,417,o),
(394,467,o),
(311,467,cs),
(189,467,l),
(189,667,l),
(56,667,l)
);
},
{
closed = 1;
nodes = (
(189,333,l),
(261,333,ls),
(294,333,o),
(311,316,o),
(311,283,cs),
(311,183,ls),
(311,150,o),
(294,133,o),
(261,133,cs),
(239,133,ls),
(206,133,o),
(189,150,o),
(189,183,cs)
);
}
);
width = 500;
},
{
hints = (
{
horizontal = 1;
place = (667,-20);
target = down;
type = TopGhost;
},
{
horizontal = 1;
place = (333,134);
type = Stem;
},
{
horizontal = 1;
place = (0,133);
type = Stem;
},
{
place = (311,133);
type = Stem;
},
{
place = (56,133);
type = Stem;
}
);
layerId = m002;
shapes = (
{
closed = 1;
nodes = (
(56,133,ls),
(56,50,o),
(106,0,o),
(189,0,cs),
(311,0,ls),
(394,0,o),
(444,49,o),
(444,133,cs),
(444,333,ls),
(444,550,o),
(394,600,o),
(311,600,cs),
(189,600,l),
(189,800,l),
(56,800,l)
);
},
{
closed = 1;
nodes = (
(189,333,l),
(261,333,ls),
(294,333,o),
(311,316,o),
(311,283,cs),
(311,183,ls),
(311,150,o),
(294,133,o),
(261,133,cs),
(239,133,ls),
(206,133,o),
(189,150,o),
(189,183,cs)
);
}
);
width = 500;
},
{
hints = (
{
horizontal = 1;
place = (667,-20);
target = down;
type = TopGhost;
},
{
horizontal = 1;
place = (333,134);
type = Stem;
},
{
horizontal = 1;
place = (0,133);
type = Stem;
},
{
place = (311,133);
type = Stem;
},
{
place = (56,133);
type = Stem;
}
);
layerId = m003;
shapes = (
{
closed = 1;
nodes = (
(56,133,ls),
(56,50,o),
(106,0,o),
(189,0,cs),
(311,0,ls),
(394,0,o),
(444,49,o),
(444,133,cs),
(444,333,ls),
(444,550,o),
(394,600,o),
(311,600,cs),
(189,600,l),
(189,800,l),
(56,800,l)
);
},
{
closed = 1;
nodes = (
(189,333,l),
(261,333,ls),
(294,333,o),
(311,316,o),
(311,283,cs),
(311,183,ls),
(311,150,o),
(294,133,o),
(261,133,cs),
(239,133,ls),
(206,133,o),
(189,150,o),
(189,183,cs)
);
}
);
width = 500;
}
);
unicode = 98;
},
{
glyphname = c;
lastChange = "2024-05-10 06:56:29 +0000";
layers = (
{
layerId = m01;
shapes = (
{
closed = 1;
nodes = (
(433,369,l),
(357,446,ls),
(333,470,o),
(303,482,o),
(268,482,cs),
(235,482,o),
(204,470,o),
(179,446,cs),
(56,322,ls),
(31,297,o),
(19,268,o),
(19,233,cs),
(19,201,o),
(32,171,o),
(56,144,c),
(179,21,ls),
(204,-4,o),
(233,-16,o),
(268,-16,cs),
(303,-16,o),
(333,-4,o),
(357,21,cs),
(433,98,l),
(340,191,l),
(303,154,ls),
(292,143,o),
(280,137,o),
(268,137,cs),
(257,137,o),
(245,143,o),
(232,154,c),
(189,198,ls),
(178,211,o),
(172,223,o),
(172,234,cs),
(172,245,o),
(178,257,o),
(189,269,cs),
(232,312,ls),
(244,324,o),
(256,330,o),
(268,330,cs),
(281,330,o),
(292,324,o),
(303,312,cs),
(340,276,l)
);
}
);
width = 467;
},
{
layerId = m002;
shapes = (
{
closed = 1;
nodes = (
(433,369,l),
(357,564,ls),
(345,596,o),
(303,600,o),
(268,600,cs),
(235,600,o),
(195,595,o),
(179,564,cs),
(56,322,ls),
(41,293,o),
(19,268,o),
(19,233,cs),
(19,201,o),
(32,171,o),
(56,144,c),
(179,21,ls),
(204,-4,o),
(233,-16,o),
(268,-16,cs),
(303,-16,o),
(333,-4,o),
(357,21,cs),
(433,98,l),
(340,191,l),
(303,154,ls),
(292,143,o),
(280,137,o),
(268,137,cs),
(257,137,o),
(245,143,o),
(232,154,c),
(189,198,ls),
(178,211,o),
(172,223,o),
(172,234,cs),
(172,245,o),
(178,257,o),
(189,269,cs),
(232,312,ls),
(244,324,o),
(256,330,o),
(268,330,cs),
(281,330,o),
(292,324,o),
(303,312,cs),
(340,276,l)
);
}
);
width = 467;
},
{
layerId = m003;
shapes = (
{
closed = 1;
nodes = (
(433,369,l),
(357,564,ls),
(345,596,o),
(303,600,o),
(268,600,cs),
(235,600,o),
(195,595,o),
(179,564,cs),
(56,322,ls),
(41,293,o),
(19,268,o),
(19,233,cs),
(19,201,o),
(32,171,o),
(56,144,c),
(179,21,ls),
(204,-4,o),
(233,-16,o),
(268,-16,cs),
(303,-16,o),
(333,-4,o),
(357,21,cs),
(433,98,l),
(340,191,l),
(303,154,ls),
(292,143,o),
(280,137,o),
(268,137,cs),
(257,137,o),
(245,143,o),
(232,154,c),
(189,198,ls),
(178,211,o),
(172,223,o),
(172,234,cs),
(172,245,o),
(178,257,o),
(189,269,cs),
(232,312,ls),
(244,324,o),
(256,330,o),
(268,330,cs),
(281,330,o),
(292,324,o),
(303,312,cs),
(340,276,l)
);
}
);
width = 467;
}
);
unicode = 99;
},
{
glyphname = d;
lastChange = "2024-05-10 06:56:29 +0000";
layers = (
{
layerId = m01;
shapes = (
{
closed = 1;
nodes = (
(444,667,l),
(311,667,l),
(311,467,l),
(189,467,ls),
(106,467,o),
(56,417,o),
(56,333,cs),
(56,133,ls),
(56,50,o),
(106,0,o),
(189,0,cs),
(506,0,l),
(506,133,l),
(494,133,ls),
(461,133,o),
(444,150,o),
(444,183,cs)
);
},
{
closed = 1;
nodes = (
(311,333,l),
(311,133,l),
(239,133,ls),
(206,133,o),
(189,150,o),
(189,183,cs),
(189,283,ls),
(189,316,o),
(206,333,o),
(239,333,cs)
);
}
);
width = 533;
},
{
layerId = m002;
shapes = (
{
closed = 1;
nodes = (
(444,800,l),
(311,800,l),
(311,600,l),
(189,600,ls),
(106,600,o),
(56,550,o),
(56,333,cs),
(56,133,ls),
(56,50,o),
(106,0,o),
(189,0,cs),
(506,0,l),
(506,133,l),
(494,133,ls),
(461,133,o),
(444,150,o),
(444,183,cs)
);
},
{
closed = 1;
nodes = (
(311,333,l),
(311,133,l),
(239,133,ls),
(206,133,o),
(189,150,o),
(189,183,cs),
(189,283,ls),
(189,316,o),
(206,333,o),
(239,333,cs)
);
}
);
width = 533;
},
{
layerId = m003;
shapes = (
{
closed = 1;
nodes = (
(444,800,l),
(311,800,l),
(311,600,l),
(189,600,ls),
(106,600,o),
(56,550,o),
(56,333,cs),
(56,133,ls),
(56,50,o),
(106,0,o),
(189,0,cs),
(506,0,l),
(506,133,l),
(494,133,ls),
(461,133,o),
(444,150,o),
(444,183,cs)
);
},
{
closed = 1;
nodes = (
(311,333,l),
(311,133,l),
(239,133,ls),
(206,133,o),
(189,150,o),
(189,183,cs),
(189,283,ls),
(189,316,o),
(206,333,o),
(239,333,cs)
);
}
);
width = 533;
}
);
unicode = 100;
},
{
glyphname = e;
lastChange = "2024-05-10 06:56:29 +0000";
layers = (
{
layerId = m01;
shapes = (
{
closed = 1;
nodes = (
(399,254,ls),
(435,291,o),
(453,327,o),
(453,362,cs),
(453,431,o),
(380,467,o),
(282,467,cs),
(178,467,ls),
(94,467,o),
(44,417,o),
(44,333,cs),
(44,180,ls),
(44,132,o),
(63,95,o),
(78,80,cs),
(227,-69,l),
(321,26,l),
(246,101,l)
);
},
{
closed = 1;
nodes = (
(177,286,ls),
(177,318,o),
(194,334,o),
(227,334,cs),
(251,334,ls),
(268,334,o),
(276,327,o),
(276,312,cs),
(276,306,o),
(275,302,o),
(272,299,cs),
(177,203,l)
);
}
);
width = 467;
},
{
layerId = m002;
shapes = (
{
closed = 1;
nodes = (
(399,254,ls),
(435,291,o),
(453,327,o),
(453,362,cs),
(453,564,o),
(380,600,o),
(282,600,cs),
(178,600,ls),
(94,600,o),
(44,550,o),
(44,333,cs),
(44,180,ls),
(44,132,o),
(63,95,o),
(78,80,cs),
(227,-69,l),
(321,26,l),
(246,101,l)
);
},
{
closed = 1;
nodes = (
(177,286,ls),
(177,318,o),
(194,334,o),
(227,334,cs),
(251,334,ls),
(268,334,o),
(276,327,o),
(276,312,cs),
(276,306,o),
(275,302,o),
(272,299,cs),
(177,203,l)
);
}
);
width = 467;
},
{
layerId = m003;
shapes = (
{
closed = 1;
nodes = (
(399,254,ls),
(435,291,o),
(453,327,o),
(453,362,cs),
(453,564,o),
(380,600,o),
(282,600,cs),
(178,600,ls),
(94,600,o),
(44,550,o),
(44,333,cs),
(44,180,ls),
(44,132,o),
(63,95,o),
(78,80,cs),
(227,-69,l),
(321,26,l),
(246,101,l)
);
},
{
closed = 1;
nodes = (
(177,286,ls),
(177,318,o),
(194,334,o),
(227,334,cs),
(251,334,ls),
(268,334,o),
(276,327,o),
(276,312,cs),
(276,306,o),
(275,302,o),
(272,299,cs),
(177,203,l)
);
}
);
width = 467;
}
);
unicode = 101;
},
{
glyphname = f;
lastChange = "2024-05-10 06:56:29 +0000";
layers = (
{
layerId = m01;
shapes = (
{
closed = 1;
nodes = (
(239,333,l),
(317,333,l),
(317,467,l),
(239,467,l),
(239,483,ls),
(239,516,o),
(256,533,o),
(289,533,cs),
(322,533,l),
(322,667,l),
(239,667,ls),
(155,667,o),
(106,617,o),
(106,533,cs),
(106,467,l),
(28,467,l),
(28,333,l),
(106,333,l),
(106,183,ls),
(106,150,o),
(89,133,o),
(56,133,cs),
(44,133,l),
(44,0,l),
(106,0,ls),
(187,0,o),
(239,49,o),
(239,133,cs)
);
}
);
width = 344;
},
{
layerId = m002;
shapes = (
{
closed = 1;
nodes = (
(239,333,l),
(317,333,l),
(317,467,l),
(239,467,l),
(239,483,ls),
(239,516,o),
(256,533,o),
(289,533,cs),
(322,533,l),
(322,800,l),
(239,800,ls),
(155,800,o),
(106,750,o),
(106,533,cs),
(106,467,l),
(28,467,l),
(28,333,l),
(106,333,l),
(106,183,ls),
(106,150,o),
(89,133,o),
(56,133,cs),
(44,133,l),
(44,0,l),
(106,0,ls),
(187,0,o),
(239,49,o),
(239,133,cs)
);
}
);
width = 344;
},
{
layerId = m003;
shapes = (
{
closed = 1;
nodes = (
(239,333,l),
(317,333,l),
(317,467,l),
(239,467,l),
(239,483,ls),
(239,516,o),
(256,533,o),
(289,533,cs),
(322,533,l),
(322,800,l),
(239,800,ls),
(155,800,o),
(106,750,o),
(106,533,cs),
(106,467,l),
(28,467,l),
(28,333,l),
(106,333,l),
(106,183,ls),
(106,150,o),
(89,133,o),
(56,133,cs),
(44,133,l),
(44,0,l),
(106,0,ls),
(187,0,o),
(239,49,o),
(239,133,cs)
);
}
);
width = 344;
}
);
unicode = 102;
},
{
glyphname = g;
lastChange = "2024-05-10 06:56:29 +0000";
layers = (
{
layerId = m01;
shapes = (
{
closed = 1;
nodes = (
(207,31,ls),
(218,20,o),
(223,9,o),
(223,-3,cs),
(223,-15,o),
(217,-27,o),
(206,-39,cs),
(139,-106,l),
(232,-199,l),
(333,-98,ls),
(362,-69,o),
(377,-38,o),
(377,-4,cs),
(377,31,o),
(362,62,o),
(333,91,cs),
(331,93,l),
(416,178,ls),
(440,203,o),
(452,233,o),
(452,267,cs),
(452,300,o),
(439,333,o),
(416,356,cs),
(367,404,ls),
(355,416,o),
(349,428,o),
(349,440,cs),
(349,452,o),
(355,464,o),
(367,476,cs),
(374,483,l),
(281,577,l),
(266,563,o),
(244,541,o),
(215,511,cs),
(186,482,o),
(164,459,o),
(149,444,cs),
(60,356,ls),
(37,333,o),
(23,299,o),
(23,267,cs),
(23,234,o),
(35,204,o),
(60,178,cs)
);
},
{
closed = 1;
nodes = (
(238,187,l),
(193,231,l),
(182,244,o),
(176,256,o),
(176,267,cs),
(176,279,o),
(182,291,o),
(193,302,cs),
(202,311,ls),
(213,322,o),
(225,328,o),
(238,328,cs),
(251,328,o),
(263,322,o),
(273,311,cs),
(282,302,ls),
(294,291,o),
(300,280,o),
(300,267,cs),
(300,255,o),
(294,243,o),
(282,231,cs)
);
}
);
width = 483;
},
{
layerId = m002;
shapes = (
{
closed = 1;
nodes = (
(207,31,ls),
(218,20,o),
(223,9,o),
(223,-3,cs),
(223,-15,o),
(217,-27,o),
(206,-39,cs),
(139,-106,l),
(232,-199,l),
(333,-98,ls),
(362,-69,o),
(377,-38,o),
(377,-4,cs),
(377,31,o),
(362,62,o),
(333,91,cs),
(331,93,l),
(416,178,ls),
(440,203,o),
(452,233,o),
(452,267,cs),
(452,300,o),
(434,330,o),
(416,356,cs),
(367,427,ls),
(357,441,o),
(349,451,o),
(349,463,cs),
(349,475,o),
(355,487,o),
(367,499,cs),
(374,506,l),
(281,600,l),
(266,586,o),
(244,564,o),
(215,534,cs),
(186,505,o),
(162,484,o),
(149,467,cs),
(60,356,ls),
(40,331,o),
(23,299,o),
(23,267,cs),
(23,234,o),
(35,204,o),
(60,178,cs)
);
},
{
closed = 1;
nodes = (
(238,187,l),
(193,231,l),
(182,244,o),
(176,256,o),
(176,267,cs),
(176,279,o),
(182,291,o),
(193,302,cs),
(202,311,ls),
(213,322,o),
(225,328,o),
(238,328,cs),
(251,328,o),
(263,322,o),
(273,311,cs),
(282,302,ls),
(294,291,o),
(300,280,o),
(300,267,cs),
(300,255,o),
(294,243,o),
(282,231,cs)
);
}
);
width = 483;
},
{
layerId = m003;
shapes = (
{
closed = 1;
nodes = (
(207,31,ls),
(218,20,o),
(223,9,o),
(223,-3,cs),
(223,-15,o),
(217,-27,o),
(206,-39,cs),
(139,-106,l),
(232,-199,l),
(333,-98,ls),
(362,-69,o),
(377,-38,o),
(377,-4,cs),
(377,31,o),
(362,62,o),
(333,91,cs),
(331,93,l),
(416,178,ls),
(440,203,o),
(452,233,o),
(452,267,cs),
(452,300,o),
(434,330,o),
(416,356,cs),
(367,427,ls),
(357,441,o),
(349,451,o),
(349,463,cs),
(349,475,o),
(355,487,o),
(367,499,cs),
(374,506,l),
(281,600,l),
(266,586,o),
(244,564,o),
(215,534,cs),
(186,505,o),
(162,484,o),
(149,467,cs),
(60,356,ls),
(40,331,o),
(23,299,o),
(23,267,cs),
(23,234,o),
(35,204,o),
(60,178,cs)
);
},
{
closed = 1;
nodes = (
(238,187,l),
(193,231,l),
(182,244,o),
(176,256,o),
(176,267,cs),
(176,279,o),
(182,291,o),
(193,302,cs),
(202,311,ls),
(213,322,o),
(225,328,o),
(238,328,cs),
(251,328,o),
(263,322,o),
(273,311,cs),
(282,302,ls),
(294,291,o),
(300,280,o),
(300,267,cs),
(300,255,o),
(294,243,o),
(282,231,cs)
);
}
);
width = 483;
}
);
unicode = 103;
},
{
glyphname = h;
lastChange = "2024-05-10 06:56:29 +0000";
layers = (
{
layerId = m01;
shapes = (
{
closed = 1;
nodes = (
(56,0,l),
(189,0,l),
(189,333,l),
(256,333,ls),
(289,333,o),
(306,316,o),
(306,283,cs),
(306,133,ls),
(306,50,o),
(356,0,o),
(439,0,cs),
(500,0,l),
(500,133,l),
(489,133,ls),
(456,133,o),
(439,150,o),
(439,183,cs),
(439,333,ls),
(439,417,o),
(389,467,o),
(306,467,cs),
(189,467,l),
(189,667,l),
(56,667,l)
);
}
);
width = 528;
},
{
layerId = m002;
shapes = (
{
closed = 1;
nodes = (
(56,0,l),
(189,0,l),
(189,333,l),
(256,333,ls),
(289,333,o),
(306,316,o),
(306,283,cs),
(306,133,ls),
(306,50,o),
(356,0,o),
(439,0,cs),
(500,0,l),
(500,133,l),
(489,133,ls),
(456,133,o),
(439,150,o),
(439,183,cs),
(439,333,ls),
(439,550,o),
(389,600,o),
(306,600,cs),
(189,600,l),
(189,800,l),
(56,800,l)
);
}
);
width = 528;
},
{
layerId = m003;
shapes = (
{
closed = 1;
nodes = (
(56,0,l),
(189,0,l),
(189,333,l),
(256,333,ls),
(289,333,o),
(306,316,o),
(306,283,cs),
(306,133,ls),
(306,50,o),
(356,0,o),
(439,0,cs),
(500,0,l),
(500,133,l),
(489,133,ls),
(456,133,o),
(439,150,o),
(439,183,cs),
(439,333,ls),
(439,550,o),
(389,600,o),
(306,600,cs),
(189,600,l),
(189,800,l),
(56,800,l)
);
}
);
width = 528;
}
);
unicode = 104;
},
{
glyphname = i;
lastChange = "2024-05-10 06:56:29 +0000";
layers = (
{
layerId = m01;
shapes = (
{
closed = 1;
nodes = (
(85,656,o),
(56,626,o),
(56,589,cs),
(56,552,o),
(85,522,o),
(122,522,cs),
(159,522,o),
(189,552,o),
(189,589,cs),
(189,626,o),
(159,656,o),
(122,656,cs)
);
},
{
closed = 1;
nodes = (
(56,133,ls),
(56,50,o),
(106,0,o),
(189,0,cs),
(250,0,l),
(250,133,l),
(239,133,ls),
(206,133,o),
(189,150,o),
(189,183,cs),
(189,467,l),
(56,467,l)
);
}
);
width = 278;
},
{
layerId = m002;
shapes = (
{
closed = 1;
nodes = (
(85,800,o),
(56,770,o),
(56,733,cs),
(56,696,o),
(85,666,o),
(122,666,cs),
(159,666,o),
(189,696,o),
(189,733,cs),
(189,770,o),
(159,800,o),
(122,800,cs)
);
},
{
closed = 1;
nodes = (
(56,133,ls),
(56,50,o),
(106,0,o),
(189,0,cs),
(250,0,l),
(250,133,l),
(239,133,ls),
(206,133,o),
(189,150,o),
(189,183,cs),
(189,600,l),
(56,600,l)
);
}
);
width = 278;
},
{
layerId = m003;
shapes = (
{
closed = 1;
nodes = (
(85,800,o),
(56,770,o),
(56,733,cs),
(56,696,o),
(85,666,o),
(122,666,cs),
(159,666,o),
(189,696,o),
(189,733,cs),
(189,770,o),
(159,800,o),
(122,800,cs)
);
},
{
closed = 1;
nodes = (
(56,133,ls),
(56,50,o),
(106,0,o),
(189,0,cs),
(250,0,l),
(250,133,l),
(239,133,ls),
(206,133,o),
(189,150,o),
(189,183,cs),
(189,600,l),
(56,600,l)
);
}
);
width = 278;
}
);
unicode = 105;
},
{
glyphname = j;
lastChange = "2024-05-10 06:56:29 +0000";
layers = (
{
layerId = m01;
shapes = (
{
closed = 1;
nodes = (
(97,656,o),
(67,625,o),
(67,589,cs),
(67,553,o),
(97,522,o),
(133,522,cs),
(170,522,o),
(200,552,o),
(200,589,cs),
(200,626,o),
(170,656,o),
(133,656,cs)
);
},
{
closed = 1;
nodes = (
(67,6,ls),
(67,-27,o),
(50,-44,o),
(17,-44,cs),
(6,-44,l),
(6,-178,l),
(67,-178,ls),
(150,-178,o),
(200,-128,o),
(200,-44,cs),
(200,467,l),
(67,467,l)
);
}
);
width = 256;
},
{
layerId = m002;
shapes = (
{
closed = 1;
nodes = (
(97,800,o),
(67,769,o),
(67,733,cs),
(67,697,o),
(97,666,o),
(133,666,cs),
(170,666,o),
(200,696,o),
(200,733,cs),
(200,770,o),
(170,800,o),
(133,800,cs)
);
},
{
closed = 1;
nodes = (
(67,6,ls),
(67,-27,o),
(50,-44,o),
(17,-44,cs),
(6,-44,l),
(6,-178,l),
(67,-178,ls),
(150,-178,o),
(200,-128,o),
(200,-44,cs),
(200,600,l),
(67,600,l)
);
}
);
width = 256;
},
{
layerId = m003;
shapes = (
{
closed = 1;
nodes = (
(97,800,o),
(67,769,o),
(67,733,cs),
(67,697,o),
(97,666,o),
(133,666,cs),
(170,666,o),
(200,696,o),
(200,733,cs),
(200,770,o),
(170,800,o),
(133,800,cs)
);
},
{
closed = 1;
nodes = (
(67,6,ls),
(67,-27,o),
(50,-44,o),
(17,-44,cs),
(6,-44,l),
(6,-178,l),
(67,-178,ls),
(150,-178,o),
(200,-128,o),
(200,-44,cs),
(200,600,l),
(67,600,l)
);
}
);
width = 256;
}
);
unicode = 106;
},
{
glyphname = k;
lastChange = "2024-05-10 06:56:29 +0000";
layers = (
{
layerId = m01;
shapes = (
{
closed = 1;
nodes = (
(473,411,l),
(390,494,l),
(223,328,l),
(223,667,l),
(90,667,l),
(90,183,ls),
(90,150,o),
(73,133,o),
(40,133,cs),
(29,133,l),
(29,0,l),
(90,0,ls),
(171,0,o),
(223,50,o),
(223,133,cs),
(223,162,l),
(290,162,ls),
(323,162,o),
(340,145,o),
(340,112,cs),
(340,0,l),
(473,0,l),
(473,162,ls),
(473,243,o),
(431,284,o),
(358,296,c)
);
}
);
width = 528;
},
{
layerId = m002;
shapes = (
{
closed = 1;
nodes = (
(479,500,l),
(390,600,l),
(223,328,l),
(223,800,l),
(90,800,l),
(90,183,ls),
(90,150,o),
(73,133,o),
(40,133,cs),
(29,133,l),
(29,0,l),
(90,0,ls),
(171,0,o),
(223,50,o),
(223,133,cs),
(223,162,l),
(290,162,ls),
(323,162,o),
(340,145,o),
(340,112,cs),
(340,0,l),
(473,0,l),
(473,162,ls),
(473,243,o),
(457,328,o),
(358,296,c)
);
}
);
width = 528;
},
{
layerId = m003;
shapes = (
{
closed = 1;
nodes = (
(479,500,l),
(390,600,l),
(223,328,l),
(223,800,l),
(90,800,l),
(90,183,ls),
(90,150,o),
(73,133,o),
(40,133,cs),
(29,133,l),
(29,0,l),
(90,0,ls),
(171,0,o),
(223,50,o),
(223,133,cs),
(223,162,l),
(290,162,ls),
(323,162,o),
(340,145,o),
(340,112,cs),
(340,0,l),
(473,0,l),
(473,162,ls),
(473,243,o),
(457,328,o),
(358,296,c)
);
}
);
width = 528;
}
);
unicode = 107;
},
{
glyphname = l;
lastChange = "2024-05-10 06:56:29 +0000";
layers = (
{
layerId = m01;
shapes = (
{
closed = 1;
nodes = (
(56,133,ls),
(56,50,o),
(106,0,o),
(189,0,cs),
(250,0,l),
(250,133,l),
(239,133,ls),
(206,133,o),
(189,150,o),
(189,183,cs),
(189,667,l),
(56,667,l)
);
}
);
width = 278;
},
{
layerId = m002;
shapes = (
{
closed = 1;
nodes = (
(56,133,ls),
(56,50,o),
(106,0,o),
(189,0,cs),
(250,0,l),
(250,133,l),
(239,133,ls),
(206,133,o),
(189,150,o),
(189,183,cs),
(189,800,l),
(56,800,l)
);
}
);
width = 278;
},
{
layerId = m003;
shapes = (
{
closed = 1;
nodes = (
(56,133,ls),
(56,50,o),
(106,0,o),
(189,0,cs),
(250,0,l),
(250,133,l),
(239,133,ls),
(206,133,o),
(189,150,o),
(189,183,cs),
(189,800,l),
(56,800,l)
);
}
);
width = 278;
}
);
unicode = 108;
},
{
glyphname = m;
lastChange = "2024-05-10 06:56:29 +0000";
layers = (
{
layerId = m01;
shapes = (
{
closed = 1;
nodes = (
(424,296,l),
(440,311,ls),
(452,323,o),
(464,329,o),
(475,329,cs),
(487,329,o),
(499,323,o),
(511,311,cs),
(527,296,l),
(527,133,ls),
(527,50,o),
(579,0,o),
(660,0,cs),
(721,0,l),
(721,133,l),
(710,133,ls),
(677,133,o),
(660,150,o),
(660,183,cs),
(660,349,l),
(570,439,ls),
(541,468,o),
(513,483,o),
(487,483,cs),
(461,483,o),
(433,468,o),
(403,439,cs),
(358,393,l),
(312,439,ls),
(284,468,o),
(256,483,o),
(229,483,cs),
(202,483,o),
(174,468,o),
(146,439,cs),
(56,349,l),
(56,0,l),
(189,0,l),
(189,296,l),
(204,311,ls),
(217,324,o),
(229,330,o),
(240,330,cs),
(253,330,o),
(265,324,o),
(276,311,cs),
(291,296,l),
(291,0,l),
(424,0,l)
);
}
);
width = 750;
},
{
layerId = m002;
shapes = (
{
closed = 1;
nodes = (
(424,296,l),
(440,311,ls),
(452,323,o),
(464,329,o),
(475,329,cs),
(487,329,o),
(499,323,o),
(511,311,cs),
(527,296,l),
(527,133,ls),
(527,50,o),
(579,0,o),
(660,0,cs),
(721,0,l),
(721,133,l),
(710,133,ls),
(677,133,o),
(660,150,o),
(660,183,cs),
(660,466,l),
(570,556,ls),
(541,585,o),
(513,600,o),
(487,600,cs),
(461,600,o),
(433,585,o),
(403,556,cs),
(358,510,l),
(312,556,ls),
(284,585,o),
(256,600,o),
(229,600,cs),
(202,600,o),
(174,585,o),
(146,556,cs),
(56,466,l),
(56,0,l),
(189,0,l),
(189,296,l),
(204,311,ls),
(217,324,o),
(229,330,o),
(240,330,cs),
(253,330,o),
(265,324,o),
(276,311,cs),
(291,296,l),
(291,0,l),
(424,0,l)
);
}
);
width = 750;
},
{
layerId = m003;
shapes = (
{
closed = 1;
nodes = (
(424,296,l),
(440,311,ls),
(452,323,o),
(464,329,o),
(475,329,cs),
(487,329,o),
(499,323,o),
(511,311,cs),
(527,296,l),
(527,133,ls),
(527,50,o),
(579,0,o),
(660,0,cs),
(721,0,l),
(721,133,l),
(710,133,ls),
(677,133,o),
(660,150,o),
(660,183,cs),
(660,466,l),
(570,556,ls),
(541,585,o),
(513,600,o),
(487,600,cs),
(461,600,o),
(433,585,o),
(403,556,cs),
(358,510,l),
(312,556,ls),
(284,585,o),
(256,600,o),
(229,600,cs),
(202,600,o),
(174,585,o),
(146,556,cs),
(56,466,l),
(56,0,l),
(189,0,l),
(189,296,l),
(204,311,ls),
(217,324,o),
(229,330,o),
(240,330,cs),
(253,330,o),
(265,324,o),
(276,311,cs),
(291,296,l),
(291,0,l),
(424,0,l)
);
}
);
width = 750;
}
);
unicode = 109;
},
{
glyphname = n;
lastChange = "2024-05-10 06:56:29 +0000";
layers = (
{
layerId = m01;
shapes = (
{
closed = 1;
nodes = (
(222,0,l),
(222,333,l),
(289,333,ls),
(322,333,o),
(339,316,o),
(339,283,cs),
(339,133,ls),
(339,50,o),
(391,0,o),
(472,0,cs),
(533,0,l),
(533,133,l),
(522,133,ls),
(489,133,o),
(472,150,o),
(472,183,cs),
(472,333,ls),
(472,417,o),
(422,467,o),
(339,467,cs),
(28,467,l),
(28,333,l),
(39,333,ls),
(72,333,o),
(89,316,o),
(89,283,cs),
(89,0,l)
);
}
);
width = 561;
},
{
layerId = m002;
shapes = (
{
closed = 1;
nodes = (
(222,0,l),
(222,333,l),
(289,333,ls),
(322,333,o),
(339,316,o),
(339,283,cs),
(339,133,ls),
(339,50,o),
(391,0,o),
(472,0,cs),
(533,0,l),
(533,133,l),
(522,133,ls),
(489,133,o),
(472,150,o),
(472,183,cs),
(472,333,ls),
(472,550,o),
(422,600,o),
(339,600,cs),
(28,600,l),
(28,333,l),
(39,333,ls),
(72,333,o),
(89,316,o),
(89,283,cs),
(89,0,l)
);
}
);
width = 561;
},
{
layerId = m003;
shapes = (
{
closed = 1;
nodes = (
(222,0,l),
(222,333,l),
(289,333,ls),
(322,333,o),
(339,316,o),
(339,283,cs),
(339,133,ls),
(339,50,o),
(391,0,o),
(472,0,cs),
(533,0,l),
(533,133,l),
(522,133,ls),
(489,133,o),
(472,150,o),
(472,183,cs),
(472,333,ls),
(472,550,o),
(422,600,o),
(339,600,cs),
(28,600,l),
(28,333,l),
(39,333,ls),
(72,333,o),
(89,316,o),
(89,283,cs),
(89,0,l)
);
}
);
width = 561;
}
);
unicode = 110;
},
{
glyphname = o;
lastChange = "2024-05-10 06:56:29 +0000";
layers = (
{
layerId = m01;
shapes = (
{
closed = 1;
nodes = (
(56,322,ls),
(31,297,o),
(19,268,o),
(19,233,cs),
(19,201,o),
(32,171,o),
(56,144,c),
(179,21,ls),
(204,-4,o),
(233,-16,o),
(268,-16,cs),
(303,-16,o),
(333,-4,o),
(357,21,cs),
(480,144,ls),
(505,169,o),
(517,198,o),
(517,233,cs),
(517,268,o),
(505,298,o),
(480,322,cs),
(357,446,ls),
(333,470,o),
(303,482,o),
(268,482,cs),
(235,482,o),
(204,470,o),
(179,446,cs)
);
},
{
closed = 1;
nodes = (
(303,154,ls),
(292,143,o),
(280,137,o),
(268,137,cs),
(257,137,o),
(245,143,o),
(232,154,c),
(189,198,ls),
(178,211,o),
(172,223,o),
(172,234,cs),
(172,245,o),
(178,257,o),
(189,269,cs),
(232,312,ls),
(244,324,o),
(256,330,o),
(268,330,cs),
(281,330,o),
(292,324,o),
(303,312,cs),
(347,269,ls),
(358,258,o),
(364,247,o),
(364,234,cs),
(364,221,o),
(358,209,o),
(347,198,cs)
);
}
);
width = 567;
},
{
layerId = m002;
shapes = (
{
closed = 1;
nodes = (
(56,322,ls),
(41,292,o),
(19,268,o),
(19,233,cs),
(19,201,o),
(32,171,o),
(56,144,c),
(179,21,ls),
(204,-4,o),
(233,-16,o),
(268,-16,cs),
(303,-16,o),
(333,-4,o),
(357,21,cs),
(480,144,ls),
(505,169,o),
(517,198,o),
(517,233,cs),
(517,268,o),
(495,292,o),
(480,322,cs),
(357,566,ls),
(342,596,o),
(303,602,o),
(268,602,cs),
(235,602,o),
(195,597,o),
(179,566,cs)
);
},
{
closed = 1;
nodes = (
(303,154,ls),
(292,143,o),
(280,137,o),
(268,137,cs),
(257,137,o),
(245,143,o),
(232,154,c),
(189,198,ls),
(178,211,o),
(172,223,o),
(172,234,cs),
(172,245,o),
(178,257,o),
(189,269,cs),
(232,312,ls),
(244,324,o),
(256,330,o),
(268,330,cs),
(281,330,o),
(292,324,o),
(303,312,cs),
(347,269,ls),
(358,258,o),
(364,247,o),
(364,234,cs),
(364,221,o),
(358,209,o),
(347,198,cs)
);
}
);
width = 567;
},
{
layerId = m003;
shapes = (
{
closed = 1;
nodes = (
(56,322,ls),
(41,292,o),
(19,268,o),
(19,233,cs),
(19,201,o),
(32,171,o),
(56,144,c),
(179,21,ls),
(204,-4,o),
(233,-16,o),
(268,-16,cs),
(303,-16,o),
(333,-4,o),
(357,21,cs),
(480,144,ls),
(505,169,o),
(517,198,o),
(517,233,cs),
(517,268,o),
(495,292,o),
(480,322,cs),
(357,566,ls),
(342,596,o),
(303,602,o),
(268,602,cs),
(235,602,o),
(195,597,o),
(179,566,cs)
);
},
{
closed = 1;
nodes = (
(303,154,ls),
(292,143,o),
(280,137,o),
(268,137,cs),
(257,137,o),
(245,143,o),
(232,154,c),
(189,198,ls),
(178,211,o),
(172,223,o),
(172,234,cs),
(172,245,o),
(178,257,o),
(189,269,cs),
(232,312,ls),
(244,324,o),
(256,330,o),
(268,330,cs),
(281,330,o),
(292,324,o),
(303,312,cs),
(347,269,ls),
(358,258,o),
(364,247,o),
(364,234,cs),
(364,221,o),
(358,209,o),
(347,198,cs)
);
}
);
width = 567;
}
);
unicode = 111;
},
{
glyphname = p;
lastChange = "2024-05-10 06:56:29 +0000";
layers = (
{
layerId = m01;
shapes = (
{
closed = 1;
nodes = (
(89,-178,l),
(222,-178,l),
(222,0,l),
(344,0,ls),
(426,0,o),
(478,49,o),
(478,133,cs),
(478,333,ls),
(478,417,o),
(429,467,o),
(344,467,cs),
(28,467,l),
(28,333,l),
(39,333,ls),
(71,333,o),
(89,316,o),
(89,283,cs)
);
},
{
closed = 1;
nodes = (
(222,133,l),
(222,333,l),
(294,333,ls),
(327,333,o),
(344,316,o),
(344,283,cs),
(344,183,ls),
(344,150,o),
(327,133,o),
(294,133,cs)
);
}
);
width = 533;
},
{
layerId = m002;
shapes = (
{
closed = 1;
nodes = (
(89,-178,l),
(222,-178,l),
(222,0,l),
(344,0,ls),
(426,0,o),
(478,49,o),
(478,133,cs),
(478,333,ls),
(478,550,o),
(429,600,o),
(344,600,cs),
(28,600,l),
(28,333,l),
(39,333,ls),
(71,333,o),
(89,316,o),
(89,283,cs)
);
},
{
closed = 1;
nodes = (
(222,133,l),
(222,333,l),
(294,333,ls),
(327,333,o),
(344,316,o),
(344,283,cs),
(344,183,ls),
(344,150,o),
(327,133,o),
(294,133,cs)
);
}
);
width = 533;
},
{
layerId = m003;
shapes = (
{
closed = 1;
nodes = (
(89,-178,l),
(222,-178,l),
(222,0,l),
(344,0,ls),
(426,0,o),
(478,49,o),
(478,133,cs),
(478,333,ls),
(478,550,o),
(429,600,o),
(344,600,cs),
(28,600,l),
(28,333,l),
(39,333,ls),
(71,333,o),
(89,316,o),
(89,283,cs)
);
},
{
closed = 1;
nodes = (
(222,133,l),
(222,333,l),
(294,333,ls),
(327,333,o),
(344,316,o),
(344,283,cs),
(344,183,ls),
(344,150,o),
(327,133,o),
(294,133,cs)
);
}
);
width = 533;
}
);
unicode = 112;
},
{
glyphname = q;
lastChange = "2024-05-10 06:56:29 +0000";
layers = (
{
layerId = m01;
shapes = (
{
closed = 1;
nodes = (
(311,-44,ls),
(311,-127,o),
(361,-178,o),
(444,-178,cs),
(506,-178,l),
(506,-44,l),
(494,-44,ls),
(461,-44,o),
(444,-27,o),
(444,6,cs),
(444,283,ls),
(444,316,o),
(461,333,o),
(494,333,cs),
(506,333,l),
(506,467,l),
(189,467,ls),
(105,467,o),
(56,417,o),
(56,333,cs),
(56,133,ls),
(56,50,o),
(108,0,o),
(189,0,cs),
(311,0,l)
);
},
{
closed = 1;
nodes = (
(239,133,ls),
(206,133,o),
(189,150,o),
(189,183,cs),
(189,283,ls),
(189,316,o),
(206,333,o),
(239,333,cs),
(311,333,l),
(311,133,l)
);
}
);
width = 533;
},
{
layerId = m002;
shapes = (
{
closed = 1;
nodes = (
(311,-44,ls),
(311,-127,o),
(361,-178,o),
(444,-178,cs),
(506,-178,l),
(506,-44,l),
(494,-44,ls),
(461,-44,o),
(444,-27,o),
(444,6,cs),
(444,283,ls),
(444,316,o),
(461,333,o),
(494,333,cs),
(506,333,l),
(506,600,l),
(189,600,ls),
(105,600,o),
(56,550,o),
(56,333,cs),
(56,133,ls),
(56,50,o),
(108,0,o),
(189,0,cs),
(311,0,l)
);
},
{
closed = 1;
nodes = (
(239,133,ls),
(206,133,o),
(189,150,o),
(189,183,cs),
(189,283,ls),
(189,316,o),
(206,333,o),
(239,333,cs),
(311,333,l),
(311,133,l)
);
}
);
width = 533;
},
{
layerId = m003;
shapes = (
{
closed = 1;
nodes = (
(311,-44,ls),
(311,-127,o),
(361,-178,o),
(444,-178,cs),
(506,-178,l),
(506,-44,l),
(494,-44,ls),
(461,-44,o),
(444,-27,o),
(444,6,cs),
(444,283,ls),
(444,316,o),
(461,333,o),
(494,333,cs),
(506,333,l),
(506,600,l),
(189,600,ls),
(105,600,o),
(56,550,o),
(56,333,cs),
(56,133,ls),
(56,50,o),
(108,0,o),
(189,0,cs),
(311,0,l)
);
},
{
closed = 1;
nodes = (
(239,133,ls),
(206,133,o),
(189,150,o),
(189,183,cs),
(189,283,ls),
(189,316,o),
(206,333,o),
(239,333,cs),
(311,333,l),
(311,133,l)
);
}
);
width = 533;
}
);
unicode = 113;
},
{
glyphname = r;
lastChange = "2024-05-10 06:56:29 +0000";
layers = (
{
layerId = m01;
shapes = (
{
closed = 1;
nodes = (
(189,0,l),
(189,283,ls),
(189,316,o),
(206,333,o),
(239,333,cs),
(328,333,l),
(328,467,l),
(56,467,l),
(56,0,l)
);
}
);
width = 350;
},
{
layerId = m002;
shapes = (
{
closed = 1;
nodes = (
(189,0,l),
(189,283,ls),
(189,316,o),
(206,333,o),
(239,333,cs),
(328,333,l),
(328,600,l),
(56,600,l),
(56,0,l)
);
}
);
width = 350;
},
{
layerId = m003;
shapes = (
{
closed = 1;
nodes = (
(189,0,l),
(189,283,ls),
(189,316,o),
(206,333,o),
(239,333,cs),
(328,333,l),
(328,600,l),
(56,600,l),
(56,0,l)
);
}
);
width = 350;
}
);
unicode = 114;
},
{
glyphname = s;
lastChange = "2024-05-10 06:56:29 +0000";
layers = (
{
layerId = m01;
shapes = (
{
closed = 1;
nodes = (
(173,522,l),
(70,419,ls),
(41,390,o),
(26,358,o),
(26,325,cs),
(26,292,o),
(41,260,o),
(70,230,cs),
(117,183,ls),
(128,172,o),
(133,161,o),
(133,149,cs),
(133,136,o),
(127,124,o),
(116,113,cs),
(51,49,l),
(148,-48,l),
(250,54,ls),
(279,83,o),
(294,115,o),
(294,149,cs),
(294,183,o),
(279,214,o),
(250,243,cs),
(203,290,ls),
(192,301,o),
(187,312,o),
(187,324,cs),
(187,337,o),
(193,349,o),
(204,360,cs),
(270,426,l)
);
}
);
width = 322;
},
{
layerId = m002;
shapes = (
{
closed = 1;
nodes = (
(199,600,l),
(96,497,ls),
(20,421,o),
(26,358,o),
(26,325,cs),
(26,292,o),
(41,260,o),
(70,230,cs),
(117,183,ls),
(128,172,o),
(133,161,o),
(133,149,cs),
(133,136,o),
(127,124,o),
(116,113,cs),
(51,49,l),
(148,-48,l),
(250,54,ls),
(279,83,o),
(294,115,o),
(294,149,cs),
(294,183,o),
(279,214,o),
(250,243,cs),
(203,290,ls),
(193,300,o),
(189,313,o),
(187,324,cs),
(184,338,o),
(185,353,o),
(199,371,c),
(306,500,l)
);
}
);
width = 322;
},
{
layerId = m003;
shapes = (
{
closed = 1;
nodes = (
(199,600,l),
(96,497,ls),
(20,421,o),
(26,358,o),
(26,325,cs),
(26,292,o),
(41,260,o),
(70,230,cs),
(117,183,ls),
(128,172,o),
(133,161,o),
(133,149,cs),
(133,136,o),
(127,124,o),
(116,113,cs),
(51,49,l),
(148,-48,l),
(250,54,ls),
(279,83,o),
(294,115,o),
(294,149,cs),
(294,183,o),
(279,214,o),
(250,243,cs),
(203,290,ls),
(193,300,o),
(189,313,o),
(187,324,cs),
(184,338,o),
(185,353,o),
(199,371,c),
(306,500,l)
);
}
);
width = 322;
}
);
unicode = 115;
},
{
glyphname = t;
lastChange = "2024-05-10 06:56:29 +0000";
layers = (
{
layerId = m01;
shapes = (
{
closed = 1;
nodes = (
(89,333,l),
(89,133,ls),
(89,50,o),
(141,0,o),
(222,0,cs),
(294,0,l),
(294,133,l),
(272,133,ls),
(239,133,o),
(222,150,o),
(222,183,cs),
(222,333,l),
(317,333,l),
(317,467,l),
(222,467,l),
(222,600,l),
(89,600,l),
(89,517,ls),
(89,484,o),
(72,467,o),
(39,467,cs),
(28,467,l),
(28,333,l)
);
}
);
width = 344;
},
{
layerId = m002;
shapes = (
{
closed = 1;
nodes = (
(89,333,l),
(89,133,ls),
(89,50,o),
(141,0,o),
(222,0,cs),
(294,0,l),
(294,133,l),
(272,133,ls),
(239,133,o),
(222,150,o),
(222,183,cs),
(222,333,l),
(317,333,l),
(317,550,l),
(222,550,l),
(222,800,l),
(89,800,l),
(89,600,ls),
(89,567,o),
(72,550,o),
(39,550,cs),
(28,550,l),
(28,333,l)
);
}
);
width = 344;
},
{
layerId = m003;
shapes = (
{
closed = 1;
nodes = (
(89,333,l),
(89,133,ls),
(89,50,o),
(141,0,o),
(222,0,cs),
(294,0,l),
(294,133,l),
(272,133,ls),
(239,133,o),
(222,150,o),
(222,183,cs),
(222,333,l),
(317,333,l),
(317,550,l),
(222,550,l),
(222,800,l),
(89,800,l),
(89,600,ls),
(89,567,o),
(72,550,o),
(39,550,cs),
(28,550,l),
(28,333,l)
);
}
);
width = 344;
}
);
unicode = 116;
},
{
glyphname = u;
lastChange = "2024-05-10 06:56:29 +0000";
layers = (
{
layerId = m01;
shapes = (
{
closed = 1;
nodes = (
(311,467,l),
(311,133,l),
(239,133,ls),
(206,133,o),
(189,150,o),
(189,183,cs),
(189,467,l),
(56,467,l),
(56,133,ls),
(56,50,o),
(106,0,o),
(189,0,cs),
(506,0,l),
(506,133,l),
(494,133,ls),
(461,133,o),
(444,150,o),
(444,183,cs),
(444,467,l)
);
}
);
width = 533;
},
{
layerId = m002;
shapes = (
{
closed = 1;
nodes = (
(311,600,l),
(311,133,l),
(239,133,ls),
(206,133,o),
(189,150,o),
(189,183,cs),
(189,600,l),
(56,600,l),
(56,133,ls),
(56,50,o),
(106,0,o),
(189,0,cs),
(506,0,l),
(506,133,l),
(494,133,ls),
(461,133,o),
(444,150,o),
(444,183,cs),
(444,600,l)
);
}
);
width = 533;
},
{
layerId = m003;
shapes = (
{
closed = 1;
nodes = (
(311,600,l),
(311,133,l),
(239,133,ls),
(206,133,o),
(189,150,o),
(189,183,cs),
(189,600,l),
(56,600,l),
(56,133,ls),
(56,50,o),
(106,0,o),
(189,0,cs),
(506,0,l),
(506,133,l),
(494,133,ls),
(461,133,o),
(444,150,o),
(444,183,cs),
(444,600,l)
);
}
);
width = 533;
}
);
unicode = 117;
},
{
glyphname = v;
lastChange = "2024-05-10 06:56:29 +0000";
layers = (
{
layerId = m01;
shapes = (
{
closed = 1;
nodes = (
(331,191,l),
(296,156,ls),
(284,144,o),
(272,138,o),
(260,138,cs),
(248,138,o),
(236,144,o),
(224,156,cs),
(189,191,l),
(189,467,l),
(56,467,l),
(56,138,l),
(166,28,ls),
(194,-1,o),
(225,-16,o),
(260,-16,cs),
(295,-16,o),
(326,-1,o),
(354,28,cs),
(464,138,l),
(464,283,ls),
(464,316,o),
(481,333,o),
(514,333,cs),
(526,333,l),
(526,467,l),
(464,467,ls),
(380,467,o),
(331,417,o),
(331,333,cs)
);
}
);
width = 556;
},
{
layerId = m002;
shapes = (
{
closed = 1;
nodes = (
(331,191,l),
(296,156,ls),
(284,144,o),
(272,138,o),
(260,138,cs),
(248,138,o),
(236,144,o),
(224,156,cs),
(189,191,l),
(189,600,l),
(56,600,l),
(56,138,l),
(166,28,ls),
(194,-1,o),
(225,-16,o),
(260,-16,cs),
(295,-16,o),
(326,-1,o),
(354,28,cs),
(464,138,l),
(464,283,ls),
(464,316,o),
(481,333,o),
(514,333,cs),
(526,333,l),
(526,600,l),
(464,600,ls),
(380,600,o),
(331,550,o),
(331,333,cs)
);
}
);
width = 556;
},
{
layerId = m003;
shapes = (
{
closed = 1;
nodes = (
(331,191,l),
(296,156,ls),
(284,144,o),
(272,138,o),
(260,138,cs),
(248,138,o),
(236,144,o),
(224,156,cs),
(189,191,l),
(189,600,l),
(56,600,l),
(56,138,l),
(166,28,ls),
(194,-1,o),
(225,-16,o),
(260,-16,cs),
(295,-16,o),
(326,-1,o),
(354,28,cs),
(464,138,l),
(464,283,ls),
(464,316,o),
(481,333,o),
(514,333,cs),
(526,333,l),
(526,600,l),
(464,600,ls),
(380,600,o),
(331,550,o),
(331,333,cs)
);
}
);
width = 556;
}
);
unicode = 118;
},
{
glyphname = w;
lastChange = "2024-05-10 06:56:29 +0000";
layers = (
{
layerId = m01;
shapes = (
{
closed = 1;
nodes = (
(424,467,l),
(291,467,l),
(291,171,l),
(276,156,ls),
(263,143,o),
(251,137,o),
(240,137,cs),
(229,137,o),
(217,143,o),
(204,156,cs),
(189,171,l),
(189,467,l),
(56,467,l),
(56,118,l),
(146,28,ls),
(174,-1,o),
(202,-16,o),
(229,-16,cs),
(256,-16,o),
(284,-1,o),
(312,28,cs),
(358,73,l),
(403,28,ls),
(433,-1,o),
(461,-16,o),
(487,-16,cs),
(513,-16,o),
(541,-1,o),
(570,28,cs),
(660,118,l),
(660,283,ls),
(660,316,o),
(677,333,o),
(710,333,cs),
(721,333,l),
(721,467,l),
(660,467,ls),
(577,467,o),
(527,417,o),
(527,333,cs),
(527,171,l),
(511,156,ls),
(499,144,o),
(487,138,o),
(476,138,cs),
(464,138,o),
(452,144,o),
(440,156,cs),
(424,171,l)
);
}
);
width = 750;
},
{
layerId = m002;
shapes = (
{
closed = 1;
nodes = (
(424,600,l),
(291,600,l),
(291,171,l),
(276,156,ls),
(263,143,o),
(251,137,o),
(240,137,cs),
(229,137,o),
(217,143,o),
(204,156,cs),
(189,171,l),
(189,600,l),
(56,600,l),
(56,118,l),
(146,28,ls),
(174,-1,o),
(202,-16,o),
(229,-16,cs),
(256,-16,o),
(284,-1,o),
(312,28,cs),
(358,73,l),
(403,28,ls),
(433,-1,o),
(461,-16,o),
(487,-16,cs),
(513,-16,o),
(541,-1,o),
(570,28,cs),
(660,118,l),
(660,283,ls),
(660,316,o),
(677,333,o),
(710,333,cs),
(721,333,l),
(721,600,l),
(660,600,ls),
(577,600,o),
(527,550,o),
(527,333,cs),
(527,171,l),
(511,156,ls),
(499,144,o),
(487,138,o),
(476,138,cs),
(464,138,o),
(452,144,o),
(440,156,cs),
(424,171,l)
);
}
);
width = 750;
},
{
layerId = m003;
shapes = (
{
closed = 1;
nodes = (
(424,600,l),
(291,600,l),
(291,171,l),
(276,156,ls),
(263,143,o),
(251,137,o),
(240,137,cs),
(229,137,o),
(217,143,o),
(204,156,cs),
(189,171,l),
(189,600,l),
(56,600,l),
(56,118,l),
(146,28,ls),
(174,-1,o),
(202,-16,o),
(229,-16,cs),
(256,-16,o),
(284,-1,o),
(312,28,cs),
(358,73,l),
(403,28,ls),
(433,-1,o),
(461,-16,o),
(487,-16,cs),
(513,-16,o),
(541,-1,o),
(570,28,cs),
(660,118,l),
(660,283,ls),
(660,316,o),
(677,333,o),
(710,333,cs),
(721,333,l),
(721,600,l),
(660,600,ls),
(577,600,o),
(527,550,o),
(527,333,cs),
(527,171,l),
(511,156,ls),
(499,144,o),
(487,138,o),
(476,138,cs),
(464,138,o),
(452,144,o),
(440,156,cs),
(424,171,l)
);
}
);
width = 750;
}
);
unicode = 119;
},
{
glyphname = x;
lastChange = "2024-05-10 06:56:29 +0000";
layers = (
{
layerId = m01;
shapes = (
{
closed = 1;
nodes = (
(56,148,l),
(56,0,l),
(189,0,l),
(189,100,l),
(226,137,ls),
(237,148,o),
(249,154,o),
(261,154,cs),
(274,154,o),
(286,148,o),
(297,137,cs),
(333,100,l),
(333,0,l),
(467,0,l),
(467,148,l),
(366,249,l),
(467,350,l),
(467,467,l),
(333,467,l),
(333,398,l),
(297,361,ls),
(285,350,o),
(273,344,o),
(261,344,cs),
(250,344,o),
(238,350,o),
(226,361,cs),
(189,398,l),
(189,467,l),
(56,467,l),
(56,350,l),
(157,249,l)
);
}
);
width = 522;
},
{
layerId = m002;
shapes = (
{
closed = 1;
nodes = (
(56,148,l),
(56,0,l),
(189,0,l),
(189,100,l),
(226,137,ls),
(237,148,o),
(249,154,o),
(261,154,cs),
(274,154,o),
(286,148,o),
(297,137,cs),
(333,100,l),
(333,0,l),
(467,0,l),
(467,148,l),
(366,249,l),
(467,350,l),
(467,600,l),
(333,600,l),
(333,398,l),
(297,361,ls),
(285,350,o),
(273,344,o),
(261,344,cs),
(250,344,o),
(238,350,o),
(226,361,cs),
(189,398,l),
(189,600,l),
(56,600,l),
(56,350,l),
(157,249,l)
);
}
);
width = 522;
},
{
layerId = m003;
shapes = (
{
closed = 1;
nodes = (
(56,148,l),
(56,0,l),
(189,0,l),
(189,100,l),
(226,137,ls),
(237,148,o),
(249,154,o),
(261,154,cs),
(274,154,o),
(286,148,o),
(297,137,cs),
(333,100,l),
(333,0,l),
(467,0,l),
(467,148,l),
(366,249,l),
(467,350,l),
(467,600,l),
(333,600,l),
(333,398,l),
(297,361,ls),
(285,350,o),
(273,344,o),
(261,344,cs),
(250,344,o),
(238,350,o),
(226,361,cs),
(189,398,l),
(189,600,l),
(56,600,l),
(56,350,l),
(157,249,l)
);
}
);
width = 522;
}
);
unicode = 120;
},
{
glyphname = y;
lastChange = "2024-05-10 06:56:29 +0000";
layers = (
{
layerId = m01;
shapes = (
{
closed = 1;
nodes = (
(467,112,l),
(467,467,l),
(333,467,l),
(333,166,l),
(297,129,l),
(284,118,o),
(272,112,o),
(261,112,cs),
(250,112,o),
(239,118,o),
(226,129,c),
(189,166,l),
(189,467,l),
(56,467,l),
(56,112,l),
(168,0,l),
(68,-100,l),
(161,-193,l)
);
}
);
width = 522;
},
{
layerId = m002;
shapes = (
{
closed = 1;
nodes = (
(467,112,l),
(467,600,l),
(333,600,l),
(333,166,l),
(297,129,l),
(284,118,o),
(272,112,o),
(261,112,cs),
(250,112,o),
(239,118,o),
(226,129,c),
(189,166,l),
(189,600,l),
(56,600,l),
(56,112,l),
(168,0,l),
(68,-100,l),
(161,-193,l)
);
}
);
width = 522;
},
{
layerId = m003;
shapes = (
{
closed = 1;
nodes = (
(467,112,l),
(467,600,l),
(333,600,l),
(333,166,l),
(297,129,l),
(284,118,o),
(272,112,o),
(261,112,cs),
(250,112,o),
(239,118,o),
(226,129,c),
(189,166,l),
(189,600,l),
(56,600,l),
(56,112,l),
(168,0,l),
(68,-100,l),
(161,-193,l)
);
}
);
width = 522;
}
);
unicode = 121;
},
{
glyphname = z;
lastChange = "2024-05-10 06:56:29 +0000";
layers = (
{
layerId = m01;
shapes = (
{
closed = 1;
nodes = (
(344,240,ls),
(357,253,o),
(378,289,o),
(378,340,cs),
(378,467,l),
(33,467,l),
(33,333,l),
(244,333,l),
(111,200,ls),
(82,170,o),
(67,139,o),
(67,106,cs),
(67,73,o),
(82,42,o),
(111,11,cs),
(244,-122,l),
(341,-26,l),
(246,70,ls),
(234,82,o),
(228,94,o),
(228,106,cs),
(228,119,o),
(234,130,o),
(246,141,cs)
);
}
);
width = 422;
},
{
layerId = m002;
shapes = (
{
closed = 1;
nodes = (
(344,240,ls),
(357,253,o),
(378,289,o),
(378,340,cs),
(378,600,l),
(33,600,l),
(33,333,l),
(244,333,l),
(111,200,ls),
(82,170,o),
(67,139,o),
(67,106,cs),
(67,73,o),
(82,42,o),
(111,11,cs),
(244,-122,l),
(341,-26,l),
(246,70,ls),
(234,82,o),
(228,94,o),
(228,106,cs),
(228,119,o),
(234,130,o),
(246,141,cs)
);
}
);
width = 422;
},
{
layerId = m003;
shapes = (
{
closed = 1;
nodes = (
(344,240,ls),
(357,253,o),
(378,289,o),
(378,340,cs),
(378,600,l),
(33,600,l),
(33,333,l),
(244,333,l),
(111,200,ls),
(82,170,o),
(67,139,o),
(67,106,cs),
(67,73,o),
(82,42,o),
(111,11,cs),
(244,-122,l),
(341,-26,l),
(246,70,ls),
(234,82,o),
(228,94,o),
(228,106,cs),
(228,119,o),
(234,130,o),
(246,141,cs)
);
}
);
width = 422;
}
);
unicode = 122;
},
{
glyphname = zero;
lastChange = "2024-05-10 19:02:03 +0000";
layers = (
{
layerId = m01;
shapes = (
{
closed = 1;
nodes = (
(56,149,l),
(177,28,ls),
(207,-1,o),
(238,-16,o),
(271,-16,cs),
(304,-16,o),
(336,-1,o),
(366,28,cs),
(487,149,l),
(487,518,l),
(366,639,ls),
(336,668,o),
(304,683,o),
(271,683,cs),
(238,683,o),
(207,668,o),
(177,639,cs),
(56,518,l)
);
},
{
closed = 1;
nodes = (
(353,202,l),
(307,156,ls),
(295,144,o),
(283,138,o),
(271,138,cs),
(260,138,o),
(248,144,o),
(236,156,cs),
(189,202,l),
(189,464,l),
(236,511,ls),
(247,522,o),
(259,528,o),
(271,528,cs),
(284,528,o),
(296,522,o),
(307,511,cs),
(353,464,l)
);
}
);
width = 544;
},
{
layerId = m002;
shapes = (
{
closed = 1;
nodes = (
(56,149,l),
(177,28,ls),
(207,-1,o),
(238,-16,o),
(271,-16,cs),
(304,-16,o),
(336,-1,o),
(366,28,cs),
(487,149,l),
(487,600,l),
(366,756,ls),
(338,792,o),
(304,800,o),
(271,800,cs),
(238,800,o),
(204,791,o),
(177,756,cs),
(56,600,l)
);
},
{
closed = 1;
nodes = (
(353,202,l),
(307,156,ls),
(295,144,o),
(283,138,o),
(271,138,cs),
(260,138,o),
(248,144,o),
(236,156,cs),
(189,202,l),
(189,464,l),
(236,511,ls),
(247,522,o),
(259,528,o),
(271,528,cs),
(284,528,o),
(296,522,o),
(307,511,cs),
(353,464,l)
);
}
);
width = 544;
},
{
layerId = m003;
shapes = (
{
closed = 1;
nodes = (
(56,149,l),
(177,28,ls),
(207,-1,o),
(238,-16,o),
(271,-16,cs),
(304,-16,o),
(336,-1,o),
(366,28,cs),
(487,149,l),
(487,600,l),
(386,801,ls),
(334,904,o),
(304,800,o),
(271,800,cs),
(238,800,o),
(209,904,o),
(157,801,cs),
(56,600,l)
);
},
{
closed = 1;
nodes = (
(353,202,l),
(307,156,ls),
(295,144,o),
(283,138,o),
(271,138,cs),
(260,138,o),
(248,144,o),
(236,156,cs),
(189,202,l),
(189,464,l),
(236,511,ls),
(247,522,o),
(259,528,o),
(271,528,cs),
(284,528,o),
(296,522,o),
(307,511,cs),
(353,464,l)
);
}
);
width = 544;
}
);
unicode = 48;
},
{
glyphname = one;
lastChange = "2024-05-10 19:38:31 +0000";
layers = (
{
layerId = m01;
shapes = (
{
closed = 1;
nodes = (
(239,533,ls),
(239,618,o),
(189,667,o),
(106,667,cs),
(97,667,o),
(87,667,o),
(78,667,c),
(67,667,o),
(55,667,o),
(44,667,c),
(44,533,l),
(56,533,ls),
(89,533,o),
(106,516,o),
(106,483,cs),
(106,183,ls),
(106,150,o),
(89,133,o),
(56,133,cs),
(44,133,l),
(44,0,l),
(300,0,l),
(300,133,l),
(289,133,ls),
(256,133,o),
(239,150,o),
(239,183,cs)
);
}
);
width = 344;
},
{
layerId = m002;
shapes = (
{
closed = 1;
nodes = (
(239,533,ls),
(239,733,o),
(239,800,o),
(106,800,cs),
(95,800,o),
(84,800,o),
(73,800,c),
(63,800,o),
(54,800,o),
(44,800,c),
(44,533,l),
(56,533,ls),
(89,533,o),
(106,516,o),
(106,483,cs),
(106,183,ls),
(106,150,o),
(89,133,o),
(56,133,cs),
(44,133,l),
(44,0,l),
(300,0,l),
(300,133,l),
(289,133,ls),
(256,133,o),
(239,150,o),
(239,183,cs)
);
}
);
width = 344;
},
{
layerId = m003;
shapes = (
{
closed = 1;
nodes = (
(239,533,ls),
(239,733,o),
(232,845,o),
(190,845,cs),
(157,845,o),
(147,800,o),
(114,800,c),
(81,800,o),
(76,845,o),
(43,845,c),
(44,533,l),
(56,533,ls),
(89,533,o),
(106,516,o),
(106,483,cs),
(106,183,ls),
(106,150,o),
(89,133,o),
(56,133,cs),
(44,133,l),
(44,0,l),
(300,0,l),
(300,133,l),
(289,133,ls),
(256,133,o),
(239,150,o),
(239,183,cs)
);
}
);
width = 344;
}
);
unicode = 49;
},
{
glyphname = two;
lastChange = "2024-05-10 19:38:04 +0000";
layers = (
{
layerId = m01;
shapes = (
{
closed = 1;
nodes = (
(289,267,ls),
(372,267,o),
(422,316,o),
(422,400,cs),
(422,533,ls),
(422,618,o),
(373,667,o),
(289,667,cs),
(273,667,o),
(256,667,o),
(240,667,c),
(223,667,o),
(205,667,o),
(188,667,c),
(170,667,o),
(153,667,o),
(135,667,c),
(120,667,o),
(104,667,o),
(89,667,c),
(89,533,l),
(239,533,ls),
(272,533,o),
(289,516,o),
(289,483,cs),
(289,450,ls),
(289,417,o),
(272,400,o),
(239,400,cs),
(189,400,ls),
(105,400,o),
(56,350,o),
(56,267,cs),
(56,0,l),
(428,0,l),
(428,133,l),
(189,133,l),
(189,217,ls),
(189,250,o),
(206,267,o),
(239,267,cs)
);
}
);
width = 478;
},
{
layerId = m002;
shapes = (
{
closed = 1;
nodes = (
(289,267,ls),
(372,267,o),
(422,316,o),
(422,400,cs),
(422,533,ls),
(422,733,o),
(422,800,o),
(289,800,cs),
(267,800,o),
(244,800,o),
(222,800,c),
(205,800,o),
(187,800,o),
(170,800,c),
(155,800,o),
(141,800,o),
(126,800,c),
(114,800,o),
(101,800,o),
(89,800,c),
(89,533,l),
(239,533,ls),
(272,533,o),
(289,516,o),
(289,483,cs),
(289,450,ls),
(289,417,o),
(272,400,o),
(239,400,cs),
(189,400,ls),
(105,400,o),
(56,350,o),
(56,267,cs),
(56,0,l),
(428,0,l),
(428,133,l),
(189,133,l),
(189,217,ls),
(189,250,o),
(206,267,o),
(239,267,cs)
);
}
);
width = 478;
},
{
layerId = m003;
shapes = (
{
closed = 1;
nodes = (
(289,267,ls),
(372,267,o),
(422,316,o),
(422,400,cs),
(422,534,ls),
(422,734,o),
(422,845,o),
(369,845,cs),
(336,845,o),
(333,800,o),
(300,800,c),
(267,800,o),
(263,845,o),
(230,845,c),
(197,845,o),
(193,800,o),
(160,800,c),
(127,800,o),
(122,845,o),
(89,845,c),
(89,533,l),
(239,534,ls),
(272,534,o),
(289,516,o),
(289,483,cs),
(289,450,ls),
(289,417,o),
(272,400,o),
(239,400,cs),
(189,400,ls),
(105,400,o),
(56,350,o),
(56,267,cs),
(56,0,l),
(428,0,l),
(428,133,l),
(189,133,l),
(189,217,ls),
(189,250,o),
(206,267,o),
(239,267,cs)
);
}
);
width = 478;
}
);
unicode = 50;
},
{
glyphname = three;
lastChange = "2024-05-10 19:39:12 +0000";
layers = (
{
layerId = m01;
shapes = (
{
closed = 1;
nodes = (
(400,533,ls),
(400,618,o),
(351,667,o),
(267,667,cs),
(250,667,o),
(232,667,o),
(215,667,c),
(195,667,o),
(176,667,o),
(156,667,c),
(134,667,o),
(111,667,o),
(89,667,c),
(72,667,o),
(56,667,o),
(39,667,c),
(39,533,l),
(217,533,ls),
(250,533,o),
(267,516,o),
(267,483,cs),
(267,456,ls),
(267,423,o),
(250,406,o),
(217,406,cs),
(100,406,l),
(100,272,l),
(217,272,ls),
(250,272,o),
(267,255,o),
(267,222,cs),
(267,183,ls),
(267,150,o),
(250,133,o),
(217,133,cs),
(44,133,l),
(44,0,l),
(267,0,ls),
(350,0,o),
(400,49,o),
(400,133,cs),
(400,250,ls),
(400,298,o),
(368,334,o),
(362,340,c),
(369,347,o),
(400,376,o),
(400,428,cs)
);
}
);
width = 456;
},
{
layerId = m002;
shapes = (
{
closed = 1;
nodes = (
(400,533,ls),
(400,733,o),
(400,800,o),
(267,800,cs),
(249,800,o),
(231,800,o),
(213,800,c),
(196,800,o),
(178,800,o),
(161,800,c),
(143,800,o),
(126,800,o),
(108,800,c),
(85,800,o),
(62,800,o),
(39,800,c),
(39,533,l),
(217,533,ls),
(250,533,o),
(267,516,o),
(267,483,cs),
(267,456,ls),
(267,423,o),
(250,406,o),
(217,406,cs),
(100,406,l),
(100,272,l),
(217,272,ls),
(250,272,o),
(267,255,o),
(267,222,cs),
(267,183,ls),
(267,150,o),
(250,133,o),
(217,133,cs),
(44,133,l),
(44,0,l),
(267,0,ls),
(350,0,o),
(400,49,o),
(400,133,cs),
(400,250,ls),
(400,298,o),
(368,334,o),
(362,340,c),
(369,347,o),
(400,376,o),
(400,428,cs)
);
}
);
width = 456;
},
{
layerId = m003;
shapes = (
{
closed = 1;
nodes = (
(400,533,ls),
(400,733,o),
(387,845,o),
(346,845,cs),
(313,845,o),
(301,800,o),
(268,800,c),
(235,800,o),
(228,845,o),
(195,845,c),
(162,845,o),
(147,800,o),
(114,800,c),
(81,800,o),
(72,845,o),
(39,845,c),
(39,533,l),
(217,533,ls),
(250,533,o),
(267,516,o),
(267,483,cs),
(267,456,ls),
(267,423,o),
(250,406,o),
(217,406,cs),
(100,406,l),
(100,272,l),
(217,272,ls),
(250,272,o),
(267,255,o),
(267,222,cs),
(267,183,ls),
(267,150,o),
(250,133,o),
(217,133,cs),
(44,133,l),
(44,0,l),
(267,0,ls),
(350,0,o),
(400,49,o),
(400,133,cs),
(400,250,ls),
(400,298,o),
(368,334,o),
(362,340,c),
(369,347,o),
(400,376,o),
(400,428,cs)
);
}
);
width = 456;
}
);
unicode = 51;
},
{
glyphname = four;
lastChange = "2024-05-10 19:07:53 +0000";
layers = (
{
layerId = m01;
shapes = (
{
closed = 1;
nodes = (
(300,200,l),
(300,0,l),
(433,0,l),
(433,667,l),
(412,667,o),
(392,667,o),
(371,667,c),
(347,667,o),
(324,667,o),
(300,667,c),
(300,333,l),
(217,333,ls),
(184,333,o),
(167,350,o),
(167,383,cs),
(167,667,l),
(145,667,o),
(122,667,o),
(100,667,c),
(78,667,o),
(55,667,o),
(33,667,c),
(33,333,ls),
(33,250,o),
(84,200,o),
(167,200,cs)
);
}
);
width = 489;
},
{
layerId = m002;
shapes = (
{
closed = 1;
nodes = (
(300,200,l),
(300,0,l),
(433,0,l),
(433,800,l),
(412,800,o),
(391,800,o),
(370,800,c),
(347,800,o),
(323,800,o),
(300,800,c),
(300,333,l),
(217,333,ls),
(184,333,o),
(167,350,o),
(167,383,cs),
(167,800,l),
(147,800,o),
(126,800,o),
(106,800,c),
(82,800,o),
(57,800,o),
(33,800,c),
(33,333,ls),
(33,250,o),
(84,200,o),
(167,200,cs)
);
}
);
width = 489;
},
{
layerId = m003;
shapes = (
{
closed = 1;
nodes = (
(300,200,l),
(300,0,l),
(433,0,l),
(433,845,l),
(400,845,o),
(400,800,o),
(367,800,c),
(334,800,o),
(333,845,o),
(300,845,c),
(300,333,l),
(217,333,ls),
(184,333,o),
(167,350,o),
(167,383,cs),
(167,845,l),
(134,845,o),
(133,800,o),
(100,800,c),
(67,800,o),
(66,845,o),
(33,845,c),
(33,333,ls),
(33,250,o),
(84,200,o),
(167,200,cs)
);
}
);
width = 489;
}
);
unicode = 52;
},
{
glyphname = five;
lastChange = "2024-05-10 19:38:55 +0000";
layers = (
{
layerId = m01;
shapes = (
{
closed = 1;
nodes = (
(278,0,ls),
(359,0,o),
(411,50,o),
(411,133,cs),
(411,267,ls),
(411,350,o),
(361,400,o),
(278,400,cs),
(189,400,l),
(189,533,l),
(389,533,l),
(389,667,l),
(369,667,o),
(349,667,o),
(329,667,c),
(295,667,o),
(261,667,o),
(227,667,c),
(194,667,o),
(161,667,o),
(128,667,c),
(104,667,o),
(80,667,o),
(56,667,c),
(56,267,l),
(228,267,ls),
(261,267,o),
(278,250,o),
(278,217,cs),
(278,183,ls),
(278,150,o),
(261,133,o),
(228,133,cs),
(44,133,l),
(44,0,l)
);
}
);
width = 467;
},
{
layerId = m002;
shapes = (
{
closed = 1;
nodes = (
(278,0,ls),
(359,0,o),
(411,50,o),
(411,133,cs),
(411,267,ls),
(411,350,o),
(361,400,o),
(278,400,cs),
(189,400,l),
(189,533,l),
(389,533,l),
(389,800,l),
(371,800,o),
(352,800,o),
(334,800,c),
(302,800,o),
(271,800,o),
(239,800,c),
(204,800,o),
(168,800,o),
(133,800,c),
(107,800,o),
(82,800,o),
(56,800,c),
(56,267,l),
(228,267,ls),
(261,267,o),
(278,250,o),
(278,217,cs),
(278,183,ls),
(278,150,o),
(261,133,o),
(228,133,cs),
(44,133,l),
(44,0,l)
);
}
);
width = 467;
},
{
layerId = m003;
shapes = (
{
closed = 1;
nodes = (
(278,0,ls),
(359,0,o),
(411,50,o),
(411,133,cs),
(411,267,ls),
(411,350,o),
(361,400,o),
(278,400,cs),
(189,400,l),
(189,533,l),
(389,533,l),
(389,845,l),
(356,845,o),
(337,800,o),
(304,800,c),
(271,800,o),
(261,845,o),
(228,845,c),
(195,845,o),
(172,800,o),
(139,800,c),
(106,800,o),
(89,845,o),
(56,845,c),
(56,267,l),
(228,267,ls),
(261,267,o),
(278,250,o),
(278,217,cs),
(278,183,ls),
(278,150,o),
(261,133,o),
(228,133,cs),
(44,133,l),
(44,0,l)
);
}
);
width = 467;
}
);
unicode = 53;
},
{
glyphname = six;
lastChange = "2024-05-10 19:39:49 +0000";
layers = (
{
layerId = m01;
shapes = (
{
closed = 1;
nodes = (
(56,133,ls),
(56,50,o),
(106,0,o),
(189,0,cs),
(311,0,ls),
(394,0,o),
(444,49,o),
(444,133,cs),
(444,313,ls),
(444,397,o),
(395,447,o),
(311,447,cs),
(189,447,l),
(189,483,ls),
(189,516,o),
(206,533,o),
(239,533,cs),
(338,533,l),
(338,667,l),
(325,667,o),
(311,667,o),
(298,667,c),
(287,667,o),
(275,667,o),
(264,667,c),
(251,667,o),
(237,667,o),
(224,667,c),
(212,667,o),
(201,667,o),
(189,667,cs),
(105,667,o),
(56,617,o),
(56,533,cs)
);
},
{
closed = 1;
nodes = (
(189,311,l),
(261,311,ls),
(294,311,o),
(311,294,o),
(311,261,cs),
(311,183,ls),
(311,150,o),
(294,133,o),
(261,133,cs),
(239,133,ls),
(206,133,o),
(189,150,o),
(189,183,cs)
);
}
);
width = 494;
},
{
layerId = m002;
shapes = (
{
closed = 1;
nodes = (
(56,133,ls),
(56,50,o),
(106,0,o),
(189,0,cs),
(311,0,ls),
(394,0,o),
(444,49,o),
(444,133,cs),
(444,313,ls),
(444,397,o),
(395,447,o),
(311,447,cs),
(189,447,l),
(189,500,ls),
(189,533,o),
(206,533,o),
(239,533,cs),
(338,533,l),
(338,800,l),
(327,800,o),
(317,800,o),
(306,800,c),
(293,800,o),
(280,800,o),
(267,800,c),
(253,800,o),
(239,800,o),
(225,800,c),
(213,800,o),
(201,800,o),
(189,800,cs),
(56,800,o),
(56,733,o),
(56,533,cs)
);
},
{
closed = 1;
nodes = (
(189,311,l),
(261,311,ls),
(294,311,o),
(311,294,o),
(311,261,cs),
(311,183,ls),
(311,150,o),
(294,133,o),
(261,133,cs),
(239,133,ls),
(206,133,o),
(189,150,o),
(189,183,cs)
);
}
);
width = 494;
},
{
layerId = m003;
shapes = (
{
closed = 1;
nodes = (
(56,133,ls),
(56,50,o),
(106,0,o),
(189,0,cs),
(311,0,ls),
(394,0,o),
(444,49,o),
(444,133,cs),
(444,313,ls),
(444,397,o),
(395,447,o),
(311,447,cs),
(189,447,l),
(189,500,ls),
(189,533,o),
(206,533,o),
(239,533,cs),
(338,533,l),
(338,845,l),
(305,845,o),
(310,800,o),
(277,800,c),
(244,800,o),
(250,845,o),
(217,845,c),
(184,845,o),
(188,800,o),
(155,800,c),
(122,800,o),
(127,845,o),
(94,845,cs),
(62,845,o),
(56,733,o),
(56,533,cs)
);
},
{
closed = 1;
nodes = (
(189,311,l),
(261,311,ls),
(294,311,o),
(311,294,o),
(311,261,cs),
(311,183,ls),
(311,150,o),
(294,133,o),
(261,133,cs),
(239,133,ls),
(206,133,o),
(189,150,o),
(189,183,cs)
);
}
);
width = 494;
}
);
unicode = 54;
},
{
glyphname = seven;
lastChange = "2024-05-10 19:40:02 +0000";
layers = (
{
layerId = m01;
shapes = (
{
closed = 1;
nodes = (
(211,217,ls),
(211,250,o),
(228,267,o),
(261,267,cs),
(263,267,ls),
(347,267,o),
(397,316,o),
(397,400,cs),
(397,667,l),
(374,667,o),
(351,667,o),
(328,667,c),
(295,667,o),
(261,667,o),
(228,667,c),
(189,667,o),
(149,667,o),
(110,667,c),
(81,667,o),
(51,667,o),
(22,667,c),
(22,533,l),
(263,533,l),
(263,450,ls),
(263,417,o),
(246,400,o),
(213,400,cs),
(211,400,ls),
(127,400,o),
(78,350,o),
(78,267,cs),
(78,0,l),
(211,0,l)
);
}
);
width = 422;
},
{
layerId = m002;
shapes = (
{
closed = 1;
nodes = (
(211,217,ls),
(211,250,o),
(228,267,o),
(261,267,cs),
(263,267,ls),
(347,267,o),
(397,316,o),
(397,400,cs),
(397,800,l),
(368,800,o),
(339,800,o),
(310,800,c),
(283,800,o),
(255,800,o),
(228,800,c),
(190,800,o),
(153,800,o),
(115,800,c),
(84,800,o),
(53,800,o),
(22,800,c),
(22,533,l),
(263,533,l),
(263,450,ls),
(263,417,o),
(246,400,o),
(213,400,cs),
(211,400,ls),
(127,400,o),
(78,350,o),
(78,267,cs),
(78,0,l),
(211,0,l)
);
}
);
width = 422;
},
{
layerId = m003;
shapes = (
{
closed = 1;
nodes = (
(211,217,ls),
(211,250,o),
(228,267,o),
(261,267,cs),
(263,267,ls),
(347,267,o),
(397,316,o),
(397,400,cs),
(397,845,l),
(364,845,o),
(338,800,o),
(305,800,c),
(272,800,o),
(246,845,o),
(213,845,c),
(180,845,o),
(150,800,o),
(117,800,c),
(84,800,o),
(55,845,o),
(22,845,c),
(22,533,l),
(263,533,l),
(263,450,ls),
(263,417,o),
(246,400,o),
(213,400,cs),
(211,400,ls),
(127,400,o),
(78,350,o),
(78,267,cs),
(78,0,l),
(211,0,l)
);
}
);
width = 422;
}
);
unicode = 55;
},
{
glyphname = eight;
lastChange = "2024-05-10 19:24:16 +0000";
layers = (
{
layerId = m01;
shapes = (
{
closed = 1;
nodes = (
(65,325,o),
(50,297,o),
(50,244,cs),
(50,133,ls),
(50,50,o),
(102,0,o),
(183,0,cs),
(376,0,ls),
(459,0,o),
(509,49,o),
(509,133,cs),
(509,244,ls),
(509,297,o),
(493,326,o),
(454,354,c),
(461,372,o),
(464,387,o),
(464,400,cs),
(464,533,ls),
(464,618,o),
(415,667,o),
(331,667,cs),
(321,667,o),
(312,667,o),
(302,667,c),
(294,667,o),
(287,667,o),
(279,667,c),
(270,667,o),
(261,667,o),
(252,667,c),
(244,667,o),
(236,667,o),
(228,667,cs),
(144,667,o),
(94,617,o),
(94,533,cs),
(94,400,ls),
(94,391,o),
(97,375,o),
(104,354,c)
);
},
{
closed = 1;
nodes = (
(331,428,ls),
(331,395,o),
(314,378,o),
(281,378,cs),
(278,378,ls),
(243,378,o),
(228,393,o),
(228,428,cs),
(228,483,ls),
(228,518,o),
(243,533,o),
(278,533,cs),
(281,533,ls),
(314,533,o),
(331,516,o),
(331,483,cs)
);
},
{
closed = 1;
nodes = (
(376,183,ls),
(376,150,o),
(359,133,o),
(326,133,cs),
(233,133,ls),
(200,133,o),
(183,150,o),
(183,183,cs),
(183,194,ls),
(183,227,o),
(200,244,o),
(233,244,cs),
(326,244,ls),
(359,244,o),
(376,227,o),
(376,194,cs)
);
}
);
width = 561;
},
{
layerId = m002;
shapes = (
{
closed = 1;
nodes = (
(65,325,o),
(50,297,o),
(50,244,cs),
(50,133,ls),
(50,50,o),
(102,0,o),
(183,0,cs),
(376,0,ls),
(459,0,o),
(509,49,o),
(509,133,cs),
(509,244,ls),
(509,297,o),
(493,326,o),
(454,354,c),
(461,372,o),
(464,387,o),
(464,400,cs),
(464,600,ls),
(464,700,o),
(464,800,o),
(331,800,cs),
(324,800,o),
(316,800,o),
(309,800,c),
(302,800,o),
(294,800,o),
(287,800,c),
(278,800,o),
(270,800,o),
(261,800,c),
(250,800,o),
(239,800,o),
(228,800,cs),
(94,800,o),
(94,700,o),
(94,600,cs),
(94,400,ls),
(94,391,o),
(97,375,o),
(104,354,c)
);
},
{
closed = 1;
nodes = (
(331,428,ls),
(331,395,o),
(314,378,o),
(281,378,cs),
(278,378,ls),
(243,378,o),
(228,393,o),
(228,428,cs),
(228,483,ls),
(228,518,o),
(243,533,o),
(278,533,cs),
(281,533,ls),
(314,533,o),
(331,516,o),
(331,483,cs)
);
},
{
closed = 1;
nodes = (
(376,183,ls),
(376,150,o),
(359,133,o),
(326,133,cs),
(233,133,ls),
(200,133,o),
(183,150,o),
(183,183,cs),
(183,194,ls),
(183,227,o),
(200,244,o),
(233,244,cs),
(326,244,ls),
(359,244,o),
(376,227,o),
(376,194,cs)
);
}
);
width = 561;
},
{
layerId = m003;
shapes = (
{
closed = 1;
nodes = (
(65,325,o),
(50,297,o),
(50,244,cs),
(50,133,ls),
(50,50,o),
(102,0,o),
(183,0,cs),
(376,0,ls),
(459,0,o),
(509,49,o),
(509,133,cs),
(509,244,ls),
(509,297,o),
(493,326,o),
(454,354,c),
(461,372,o),
(464,387,o),
(464,400,cs),
(464,600,ls),
(464,700,o),
(441,845,o),
(401,845,cs),
(368,845,o),
(375,800,o),
(342,800,cs),
(309,800,o),
(314,845,o),
(281,845,cs),
(248,845,o),
(253,800,o),
(220,800,c),
(187,800,o),
(191,845,o),
(158,845,cs),
(118,845,o),
(94,700,o),
(94,600,cs),
(94,400,ls),
(94,391,o),
(97,375,o),
(104,354,c)
);
},
{
closed = 1;
nodes = (
(331,428,ls),
(331,395,o),
(314,378,o),
(281,378,cs),
(278,378,ls),
(243,378,o),
(228,393,o),
(228,428,cs),
(228,483,ls),
(228,518,o),
(243,533,o),
(278,533,cs),
(281,533,ls),
(314,533,o),
(331,516,o),
(331,483,cs)
);
},
{
closed = 1;
nodes = (
(376,183,ls),
(376,150,o),
(359,133,o),
(326,133,cs),
(233,133,ls),
(200,133,o),
(183,150,o),
(183,183,cs),
(183,194,ls),
(183,227,o),
(200,244,o),
(233,244,cs),
(326,244,ls),
(359,244,o),
(376,227,o),
(376,194,cs)
);
}
);
width = 561;
}
);
unicode = 56;
},
{
glyphname = nine;
lastChange = "2024-05-10 19:46:22 +0000";
layers = (
{
layerId = m01;
shapes = (
{
closed = 1;
nodes = (
(439,533,ls),
(439,618,o),
(390,667,o),
(306,667,cs),
(293,667,o),
(279,667,o),
(266,667,c),
(257,667,o),
(248,667,o),
(239,667,c),
(231,667,o),
(224,667,o),
(216,667,c),
(205,667,o),
(194,667,o),
(183,667,cs),
(100,667,o),
(50,617,o),
(50,533,cs),
(50,353,ls),
(50,270,o),
(102,220,o),
(183,220,cs),
(306,220,l),
(306,183,ls),
(306,150,o),
(289,133,o),
(256,133,cs),
(134,133,l),
(134,0,l),
(306,0,ls),
(389,0,o),
(439,49,o),
(439,133,cs)
);
},
{
closed = 1;
nodes = (
(306,356,l),
(233,356,ls),
(200,356,o),
(183,373,o),
(183,406,cs),
(183,483,ls),
(183,516,o),
(200,533,o),
(233,533,cs),
(256,533,ls),
(289,533,o),
(306,516,o),
(306,483,cs)
);
}
);
width = 494;
},
{
layerId = m002;
shapes = (
{
closed = 1;
nodes = (
(438,600,ls),
(438,700,o),
(438,800,o),
(306,800,cs),
(295,800,o),
(283,800,o),
(272,800,c),
(263,800,o),
(254,800,o),
(245,800,c),
(236,800,o),
(227,800,o),
(218,800,c),
(206,800,o),
(195,800,o),
(183,800,cs),
(49,800,o),
(49,700,o),
(49,600,cs),
(50,353,ls),
(50,270,o),
(102,220,o),
(183,220,cs),
(306,220,l),
(306,183,ls),
(306,150,o),
(289,133,o),
(256,133,cs),
(134,133,l),
(134,0,l),
(306,0,ls),
(389,0,o),
(439,49,o),
(439,133,cs)
);
},
{
closed = 1;
nodes = (
(306,356,l),
(233,356,ls),
(200,356,o),
(183,373,o),
(183,406,cs),
(183,483,ls),
(183,516,o),
(200,533,o),
(233,533,cs),
(256,533,ls),
(289,533,o),
(306,516,o),
(306,483,cs)
);
}
);
width = 494;
},
{
layerId = m003;
shapes = (
{
closed = 1;
nodes = (
(438,600,ls),
(438,700,o),
(424,845,o),
(384,845,c),
(351,845,o),
(349,800,o),
(316,800,c),
(283,800,o),
(280,845,o),
(247,845,c),
(214,845,o),
(209,800,o),
(176,800,c),
(143,800,o),
(152,845,o),
(119,845,cs),
(79,845,o),
(49,700,o),
(49,600,cs),
(50,353,ls),
(50,270,o),
(102,220,o),
(183,220,cs),
(306,220,l),
(306,183,ls),
(306,150,o),
(289,133,o),
(256,133,cs),
(134,133,l),
(134,0,l),
(306,0,ls),
(389,0,o),
(439,49,o),
(439,133,cs)
);
},
{
closed = 1;
nodes = (
(306,356,l),
(233,356,ls),
(200,356,o),
(183,373,o),
(183,406,cs),
(183,483,ls),
(183,516,o),
(200,533,o),
(233,533,cs),
(256,533,ls),
(289,533,o),
(306,516,o),
(306,483,cs)
);
}
);
width = 494;
}
);
unicode = 57;
},
{
glyphname = period;
lastChange = "2024-05-10 06:56:29 +0000";
layers = (
{
layerId = m01;
shapes = (
{
closed = 1;
nodes = (
(92,144,o),
(56,110,o),
(56,67,cs),
(56,24,o),
(92,-11,o),
(133,-11,cs),
(176,-11,o),
(211,24,o),
(211,67,cs),
(211,110,o),
(176,144,o),
(133,144,cs)
);
}
);
width = 300;
},
{
layerId = m002;
shapes = (
{
closed = 1;
nodes = (
(92,144,o),
(56,110,o),
(56,67,cs),
(56,24,o),
(92,-11,o),
(133,-11,cs),
(176,-11,o),
(211,24,o),
(211,67,cs),
(211,110,o),
(176,144,o),
(133,144,cs)
);
}
);
width = 300;
},
{
layerId = m003;
shapes = (
{
closed = 1;
nodes = (
(92,144,o),
(56,110,o),
(56,67,cs),
(56,24,o),
(92,-11,o),
(133,-11,cs),
(176,-11,o),
(211,24,o),
(211,67,cs),
(211,110,o),
(176,144,o),
(133,144,cs)
);
}
);
width = 300;
}
);
unicode = 46;
},
{
glyphname = comma;
lastChange = "2024-05-10 06:56:29 +0000";
layers = (
{
layerId = m01;
shapes = (
{
closed = 1;
nodes = (
(200,-41,ls),
(225,-16,o),
(243,20,o),
(243,52,cs),
(243,84,o),
(223,122,o),
(199,146,cs),
(156,189,l),
(72,106,l),
(91,87,ls),
(102,76,o),
(108,64,o),
(108,51,cs),
(108,40,o),
(103,29,o),
(92,18,cs),
(49,-26,l),
(132,-109,l)
);
}
);
width = 300;
},
{
layerId = m002;
shapes = (
{
closed = 1;
nodes = (
(200,-41,ls),
(225,-16,o),
(243,20,o),
(243,52,cs),
(243,84,o),
(223,122,o),
(199,146,cs),
(156,189,l),
(72,106,l),
(91,87,ls),
(102,76,o),
(108,64,o),
(108,51,cs),
(108,40,o),
(103,29,o),
(92,18,cs),
(49,-26,l),
(132,-109,l)
);
}
);
width = 300;
},
{
layerId = m003;
shapes = (
{
closed = 1;
nodes = (
(200,-41,ls),
(225,-16,o),
(243,20,o),
(243,52,cs),
(243,84,o),
(223,122,o),
(199,146,cs),
(156,189,l),
(72,106,l),
(91,87,ls),
(102,76,o),
(108,64,o),
(108,51,cs),
(108,40,o),
(103,29,o),
(92,18,cs),
(49,-26,l),
(132,-109,l)
);
}
);
width = 300;
}
);
unicode = 44;
},
{
glyphname = colon;
lastChange = "2024-05-10 06:56:29 +0000";
layers = (
{
layerId = m01;
shapes = (
{
closed = 1;
nodes = (
(92,144,o),
(56,110,o),
(56,67,cs),
(56,24,o),
(92,-11,o),
(133,-11,cs),
(176,-11,o),
(211,24,o),
(211,67,cs),
(211,110,o),
(176,144,o),
(133,144,cs)
);
},
{
closed = 1;
nodes = (
(92,422,o),
(56,387,o),
(56,344,cs),
(56,303,o),
(92,267,o),
(133,267,cs),
(176,267,o),
(211,303,o),
(211,344,cs),
(211,388,o),
(176,422,o),
(133,422,cs)
);
}
);
width = 300;
},
{
layerId = m002;
shapes = (
{
closed = 1;
nodes = (
(92,144,o),
(56,110,o),
(56,67,cs),
(56,24,o),
(92,-11,o),
(133,-11,cs),
(176,-11,o),
(211,24,o),
(211,67,cs),
(211,110,o),
(176,144,o),
(133,144,cs)
);
},
{
closed = 1;
nodes = (
(92,422,o),
(56,387,o),
(56,344,cs),
(56,303,o),
(92,267,o),
(133,267,cs),
(176,267,o),
(211,303,o),
(211,344,cs),
(211,388,o),
(176,422,o),
(133,422,cs)
);
}
);
width = 300;
},
{
layerId = m003;
shapes = (
{
closed = 1;
nodes = (
(92,144,o),
(56,110,o),
(56,67,cs),
(56,24,o),
(92,-11,o),
(133,-11,cs),
(176,-11,o),
(211,24,o),
(211,67,cs),
(211,110,o),
(176,144,o),
(133,144,cs)
);
},
{
closed = 1;
nodes = (
(92,422,o),
(56,387,o),
(56,344,cs),
(56,303,o),
(92,267,o),
(133,267,cs),
(176,267,o),
(211,303,o),
(211,344,cs),
(211,388,o),
(176,422,o),
(133,422,cs)
);
}
);
width = 300;
}
);
unicode = 58;
},
{
glyphname = semicolon;
lastChange = "2024-05-10 06:56:29 +0000";
layers = (
{
layerId = m01;
shapes = (
{
closed = 1;
nodes = (
(92,422,o),
(56,387,o),
(56,344,cs),
(56,303,o),
(92,267,o),
(133,267,cs),
(176,267,o),
(211,303,o),
(211,344,cs),
(211,388,o),
(176,422,o),
(133,422,cs)
);
},
{
closed = 1;
nodes = (
(194,-41,ls),
(219,-17,o),
(238,19,o),
(238,52,cs),
(238,85,o),
(220,121,o),
(193,146,cs),
(150,189,l),
(67,106,l),
(86,87,ls),
(97,76,o),
(103,64,o),
(103,51,cs),
(103,40,o),
(98,29,o),
(87,18,cs),
(43,-26,l),
(127,-109,l)
);
}
);
width = 300;
},
{
layerId = m002;
shapes = (
{
closed = 1;
nodes = (
(92,422,o),
(56,387,o),
(56,344,cs),
(56,303,o),
(92,267,o),
(133,267,cs),
(176,267,o),
(211,303,o),
(211,344,cs),
(211,388,o),
(176,422,o),
(133,422,cs)
);
},
{
closed = 1;
nodes = (
(194,-41,ls),
(219,-17,o),
(238,19,o),
(238,52,cs),
(238,85,o),
(220,121,o),
(193,146,cs),
(150,189,l),
(67,106,l),
(86,87,ls),
(97,76,o),
(103,64,o),
(103,51,cs),
(103,40,o),
(98,29,o),
(87,18,cs),
(43,-26,l),
(127,-109,l)
);
}
);
width = 300;
},
{
layerId = m003;
shapes = (
{
closed = 1;
nodes = (
(92,422,o),
(56,387,o),
(56,344,cs),
(56,303,o),
(92,267,o),
(133,267,cs),
(176,267,o),
(211,303,o),
(211,344,cs),
(211,388,o),
(176,422,o),
(133,422,cs)
);
},
{
closed = 1;
nodes = (
(194,-41,ls),
(219,-17,o),
(238,19,o),
(238,52,cs),
(238,85,o),
(220,121,o),
(193,146,cs),
(150,189,l),
(67,106,l),
(86,87,ls),
(97,76,o),
(103,64,o),
(103,51,cs),
(103,40,o),
(98,29,o),
(87,18,cs),
(43,-26,l),
(127,-109,l)
);
}
);
width = 300;
}
);
unicode = 59;
},
{
glyphname = ellipsis;
lastChange = "2024-05-10 06:56:29 +0000";
layers = (
{
layerId = m01;
shapes = (
{
closed = 1;
nodes = (
(92,144,o),
(56,110,o),
(56,67,cs),
(56,24,o),
(92,-11,o),
(133,-11,cs),
(176,-11,o),
(211,24,o),
(211,67,cs),
(211,110,o),
(176,144,o),
(133,144,cs)
);
},
{
closed = 1;
nodes = (
(392,144,o),
(356,110,o),
(356,67,cs),
(356,24,o),
(392,-11,o),
(433,-11,cs),
(476,-11,o),
(511,24,o),
(511,67,cs),
(511,110,o),
(476,144,o),
(433,144,cs)
);
},
{
closed = 1;
nodes = (
(692,144,o),
(656,110,o),
(656,67,cs),
(656,24,o),
(692,-11,o),
(733,-11,cs),
(776,-11,o),
(811,24,o),
(811,67,cs),
(811,110,o),
(776,144,o),
(733,144,cs)
);
}
);
width = 900;
},
{
layerId = m002;
shapes = (
{
closed = 1;
nodes = (
(92,144,o),
(56,110,o),
(56,67,cs),
(56,24,o),
(92,-11,o),
(133,-11,cs),
(176,-11,o),
(211,24,o),
(211,67,cs),
(211,110,o),
(176,144,o),
(133,144,cs)
);
},
{
closed = 1;
nodes = (
(392,144,o),
(356,110,o),
(356,67,cs),
(356,24,o),
(392,-11,o),
(433,-11,cs),
(476,-11,o),
(511,24,o),
(511,67,cs),
(511,110,o),
(476,144,o),
(433,144,cs)
);
},
{
closed = 1;
nodes = (
(692,144,o),
(656,110,o),
(656,67,cs),
(656,24,o),
(692,-11,o),
(733,-11,cs),
(776,-11,o),
(811,24,o),
(811,67,cs),
(811,110,o),
(776,144,o),
(733,144,cs)
);
}
);
width = 900;
},
{
layerId = m003;
shapes = (
{
closed = 1;
nodes = (
(92,144,o),
(56,110,o),
(56,67,cs),
(56,24,o),
(92,-11,o),
(133,-11,cs),
(176,-11,o),
(211,24,o),
(211,67,cs),
(211,110,o),
(176,144,o),
(133,144,cs)
);
},
{
closed = 1;
nodes = (
(392,144,o),
(356,110,o),
(356,67,cs),
(356,24,o),
(392,-11,o),
(433,-11,cs),
(476,-11,o),
(511,24,o),
(511,67,cs),
(511,110,o),
(476,144,o),
(433,144,cs)
);
},
{
closed = 1;
nodes = (
(692,144,o),
(656,110,o),
(656,67,cs),
(656,24,o),
(692,-11,o),
(733,-11,cs),
(776,-11,o),
(811,24,o),
(811,67,cs),
(811,110,o),
(776,144,o),
(733,144,cs)
);
}
);
width = 900;
}
);
unicode = 8230;
},
{
glyphname = exclam;
lastChange = "2024-05-10 06:56:29 +0000";
layers = (
{
layerId = m01;
shapes = (
{
closed = 1;
nodes = (
(107,122,o),
(78,92,o),
(78,56,cs),
(78,19,o),
(108,-11,o),
(144,-11,cs),
(180,-11,o),
(211,19,o),
(211,56,cs),
(211,92,o),
(181,122,o),
(144,122,cs)
);
},
{
closed = 1;
nodes = (
(78,200,l),
(211,200,l),
(211,667,l),
(78,667,l)
);
}
);
width = 333;
},
{
layerId = m002;
shapes = (
{
closed = 1;
nodes = (
(107,122,o),
(78,92,o),
(78,56,cs),
(78,19,o),
(108,-11,o),
(144,-11,cs),
(180,-11,o),
(211,19,o),
(211,56,cs),
(211,92,o),
(181,122,o),
(144,122,cs)
);
},
{
closed = 1;
nodes = (
(78,200,l),
(211,200,l),
(211,667,l),
(78,667,l)
);
}
);
width = 333;
},
{
layerId = m003;
shapes = (
{
closed = 1;
nodes = (
(107,122,o),
(78,92,o),
(78,56,cs),
(78,19,o),
(108,-11,o),
(144,-11,cs),
(180,-11,o),
(211,19,o),
(211,56,cs),
(211,92,o),
(181,122,o),
(144,122,cs)
);
},
{
closed = 1;
nodes = (
(78,200,l),
(211,200,l),
(211,667,l),
(78,667,l)
);
}
);
width = 333;
}
);
unicode = 33;
},
{
glyphname = question;
lastChange = "2024-05-10 06:56:29 +0000";
layers = (
{
layerId = m01;
shapes = (
{
closed = 1;
nodes = (
(158,122,o),
(128,91,o),
(128,56,cs),
(128,20,o),
(158,-11,o),
(194,-11,cs),
(231,-11,o),
(261,19,o),
(261,56,cs),
(261,92,o),
(231,122,o),
(194,122,cs)
);
},
{
closed = 1;
nodes = (
(107,596,l),
(161,541,ls),
(172,529,o),
(178,517,o),
(178,505,cs),
(178,493,o),
(173,482,o),
(162,471,cs),
(116,424,ls),
(87,395,o),
(72,363,o),
(72,330,cs),
(72,297,o),
(87,265,o),
(116,236,cs),
(193,158,l),
(288,253,l),
(246,296,ls),
(234,308,o),
(228,320,o),
(228,332,cs),
(228,344,o),
(233,355,o),
(244,366,cs),
(291,412,ls),
(320,441,o),
(335,473,o),
(335,507,cs),
(335,541,o),
(320,572,o),
(291,601,cs),
(201,691,l)
);
}
);
width = 411;
},
{
layerId = m002;
shapes = (
{
closed = 1;
nodes = (
(158,122,o),
(128,91,o),
(128,56,cs),
(128,20,o),
(158,-11,o),
(194,-11,cs),
(231,-11,o),
(261,19,o),
(261,56,cs),
(261,92,o),
(231,122,o),
(194,122,cs)
);
},
{
closed = 1;
nodes = (
(107,596,l),
(161,541,ls),
(172,529,o),
(178,517,o),
(178,505,cs),
(178,493,o),
(173,482,o),
(162,471,cs),
(116,424,ls),
(87,395,o),
(72,363,o),
(72,330,cs),
(72,297,o),
(87,265,o),
(116,236,cs),
(193,158,l),
(288,253,l),
(246,296,ls),
(234,308,o),
(228,320,o),
(228,332,cs),
(228,344,o),
(233,355,o),
(244,366,cs),
(291,412,ls),
(320,441,o),
(335,473,o),
(335,507,cs),
(335,541,o),
(320,572,o),
(291,601,cs),
(201,691,l)
);
}
);
width = 411;
},
{
layerId = m003;
shapes = (
{
closed = 1;
nodes = (
(158,122,o),
(128,91,o),
(128,56,cs),
(128,20,o),
(158,-11,o),
(194,-11,cs),
(231,-11,o),
(261,19,o),
(261,56,cs),
(261,92,o),
(231,122,o),
(194,122,cs)
);
},
{
closed = 1;
nodes = (
(107,596,l),
(161,541,ls),
(172,529,o),
(178,517,o),
(178,505,cs),
(178,493,o),
(173,482,o),
(162,471,cs),
(116,424,ls),
(87,395,o),
(72,363,o),
(72,330,cs),
(72,297,o),
(87,265,o),
(116,236,cs),
(193,158,l),
(288,253,l),
(246,296,ls),
(234,308,o),
(228,320,o),
(228,332,cs),
(228,344,o),
(233,355,o),
(244,366,cs),
(291,412,ls),
(320,441,o),
(335,473,o),
(335,507,cs),
(335,541,o),
(320,572,o),
(291,601,cs),
(201,691,l)
);
}
);
width = 411;
}
);
unicode = 63;
},
{
glyphname = bullet;
lastChange = "2024-05-10 06:56:29 +0000";
layers = (
{
layerId = m01;
shapes = (
{
closed = 1;
nodes = (
(134,456,o),
(78,400,o),
(78,333,cs),
(78,268,o),
(134,211,o),
(200,211,cs),
(266,211,o),
(322,268,o),
(322,333,cs),
(322,400,o),
(266,456,o),
(200,456,cs)
);
}
);
width = 400;
},
{
layerId = m002;
shapes = (
{
closed = 1;
nodes = (
(134,456,o),
(78,400,o),
(78,333,cs),
(78,268,o),
(134,211,o),
(200,211,cs),
(266,211,o),
(322,268,o),
(322,333,cs),
(322,400,o),
(266,456,o),
(200,456,cs)
);
}
);
width = 400;
},
{
layerId = m003;
shapes = (
{
closed = 1;
nodes = (
(134,456,o),
(78,400,o),
(78,333,cs),
(78,268,o),
(134,211,o),
(200,211,cs),
(266,211,o),
(322,268,o),
(322,333,cs),
(322,400,o),
(266,456,o),
(200,456,cs)
);
}
);
width = 400;
}
);
unicode = 8226;
},
{
glyphname = asterisk;
lastChange = "2024-05-10 06:56:29 +0000";
layers = (
{
layerId = m01;
shapes = (
{
closed = 1;
nodes = (
(286,369,l),
(380,463,l),
(348,496,ls),
(337,506,o),
(331,517,o),
(331,530,cs),
(331,542,o),
(337,554,o),
(348,566,cs),
(380,598,l),
(286,692,l),
(218,624,l),
(150,692,l),
(56,598,l),
(88,566,ls),
(99,555,o),
(105,543,o),
(105,531,cs),
(105,519,o),
(99,507,o),
(88,496,cs),
(56,463,l),
(150,369,l),
(218,437,l)
);
}
);
width = 433;
},
{
layerId = m002;
shapes = (
{
closed = 1;
nodes = (
(286,369,l),
(380,463,l),
(348,496,ls),
(337,506,o),
(331,517,o),
(331,530,cs),
(331,542,o),
(337,554,o),
(348,566,cs),
(380,598,l),
(286,692,l),
(218,624,l),
(150,692,l),
(56,598,l),
(88,566,ls),
(99,555,o),
(105,543,o),
(105,531,cs),
(105,519,o),
(99,507,o),
(88,496,cs),
(56,463,l),
(150,369,l),
(218,437,l)
);
}
);
width = 433;
},
{
layerId = m003;
shapes = (
{
closed = 1;
nodes = (
(286,369,l),
(380,463,l),
(348,496,ls),
(337,506,o),
(331,517,o),
(331,530,cs),
(331,542,o),
(337,554,o),
(348,566,cs),
(380,598,l),
(286,692,l),
(218,624,l),
(150,692,l),
(56,598,l),
(88,566,ls),
(99,555,o),
(105,543,o),
(105,531,cs),
(105,519,o),
(99,507,o),
(88,496,cs),
(56,463,l),
(150,369,l),
(218,437,l)
);
}
);
width = 433;
}
);
unicode = 42;
},
{
glyphname = numbersign;
lastChange = "2024-05-10 06:56:29 +0000";
layers = (
{
layerId = m01;
shapes = (
{
closed = 1;
nodes = (
(136,433,l),
(56,433,l),
(56,353,l),
(136,353,l),
(136,277,l),
(216,277,l),
(216,353,l),
(296,353,l),
(296,277,l),
(376,277,l),
(376,353,l),
(457,353,l),
(457,433,l),
(376,433,l),
(376,510,l),
(457,510,l),
(457,590,l),
(376,590,l),
(376,667,l),
(296,667,l),
(296,590,l),
(216,590,l),
(216,667,l),
(136,667,l),
(136,590,l),
(56,590,l),
(56,510,l),
(136,510,l)
);
},
{
closed = 1;
nodes = (
(216,510,l),
(296,510,l),
(296,433,l),
(216,433,l)
);
}
);
width = 511;
},
{
layerId = m002;
shapes = (
{
closed = 1;
nodes = (
(136,433,l),
(56,433,l),
(56,353,l),
(136,353,l),
(136,277,l),
(216,277,l),
(216,353,l),
(296,353,l),
(296,277,l),
(376,277,l),
(376,353,l),
(457,353,l),
(457,433,l),
(376,433,l),
(376,510,l),
(457,510,l),
(457,590,l),
(376,590,l),
(376,667,l),
(296,667,l),
(296,590,l),
(216,590,l),
(216,667,l),
(136,667,l),
(136,590,l),
(56,590,l),
(56,510,l),
(136,510,l)
);
},
{
closed = 1;
nodes = (
(216,510,l),
(296,510,l),
(296,433,l),
(216,433,l)
);
}
);
width = 511;
},
{
layerId = m003;
shapes = (
{
closed = 1;
nodes = (
(136,433,l),
(56,433,l),
(56,353,l),
(136,353,l),
(136,277,l),
(216,277,l),
(216,353,l),
(296,353,l),
(296,277,l),
(376,277,l),
(376,353,l),
(457,353,l),
(457,433,l),
(376,433,l),
(376,510,l),
(457,510,l),
(457,590,l),
(376,590,l),
(376,667,l),
(296,667,l),
(296,590,l),
(216,590,l),
(216,667,l),
(136,667,l),
(136,590,l),
(56,590,l),
(56,510,l),
(136,510,l)
);
},
{
closed = 1;
nodes = (
(216,510,l),
(296,510,l),
(296,433,l),
(216,433,l)
);
}
);
width = 511;
}
);
unicode = 35;
},
{
glyphname = slash;
lastChange = "2024-05-10 06:56:29 +0000";
layers = (
{
layerId = m01;
shapes = (
{
closed = 1;
nodes = (
(183,217,ls),
(183,250,o),
(200,267,o),
(233,267,cs),
(236,267,ls),
(317,267,o),
(369,317,o),
(369,400,cs),
(369,667,l),
(236,667,l),
(236,450,ls),
(236,417,o),
(219,400,o),
(186,400,cs),
(183,400,ls),
(100,400,o),
(50,350,o),
(50,267,cs),
(50,0,l),
(183,0,l)
);
}
);
width = 422;
},
{
layerId = m002;
shapes = (
{
closed = 1;
nodes = (
(183,217,ls),
(183,250,o),
(200,267,o),
(233,267,cs),
(236,267,ls),
(317,267,o),
(369,317,o),
(369,400,cs),
(369,667,l),
(236,667,l),
(236,450,ls),
(236,417,o),
(219,400,o),
(186,400,cs),
(183,400,ls),
(100,400,o),
(50,350,o),
(50,267,cs),
(50,0,l),
(183,0,l)
);
}
);
width = 422;
},
{
layerId = m003;
shapes = (
{
closed = 1;
nodes = (
(183,217,ls),
(183,250,o),
(200,267,o),
(233,267,cs),
(236,267,ls),
(317,267,o),
(369,317,o),
(369,400,cs),
(369,667,l),
(236,667,l),
(236,450,ls),
(236,417,o),
(219,400,o),
(186,400,cs),
(183,400,ls),
(100,400,o),
(50,350,o),
(50,267,cs),
(50,0,l),
(183,0,l)
);
}
);
width = 422;
}
);
unicode = 47;
},
{
glyphname = hyphen;
lastChange = "2024-05-10 06:56:29 +0000";
layers = (
{
layerId = m01;
shapes = (
{
closed = 1;
nodes = (
(303,367,l),
(83,367,l),
(83,233,l),
(303,233,l)
);
}
);
width = 389;
},
{
layerId = m002;
shapes = (
{
closed = 1;
nodes = (
(303,367,l),
(83,367,l),
(83,233,l),
(303,233,l)
);
}
);
width = 389;
},
{
layerId = m003;
shapes = (
{
closed = 1;
nodes = (
(303,367,l),
(83,367,l),
(83,233,l),
(303,233,l)
);
}
);
width = 389;
}
);
unicode = 45;
},
{
glyphname = endash;
lastChange = "2024-05-10 06:56:29 +0000";
layers = (
{
layerId = m01;
shapes = (
{
closed = 1;
nodes = (
(811,367,l),
(0,367,l),
(0,233,l),
(811,233,l)
);
}
);
width = 811;
},
{
layerId = m002;
shapes = (
{
closed = 1;
nodes = (
(811,367,l),
(0,367,l),
(0,233,l),
(811,233,l)
);
}
);
width = 811;
},
{
layerId = m003;
shapes = (
{
closed = 1;
nodes = (
(811,367,l),
(0,367,l),
(0,233,l),
(811,233,l)
);
}
);
width = 811;
}
);
unicode = 8211;
},
{
glyphname = emdash;
lastChange = "2024-05-10 06:56:29 +0000";
layers = (
{
layerId = m01;
shapes = (
{
closed = 1;
nodes = (
(567,367,l),
(0,367,l),
(0,233,l),
(567,233,l)
);
}
);
width = 567;
},
{
layerId = m002;
shapes = (
{
closed = 1;
nodes = (
(567,367,l),
(0,367,l),
(0,233,l),
(567,233,l)
);
}
);
width = 567;
},
{
layerId = m003;
shapes = (
{
closed = 1;
nodes = (
(567,367,l),
(0,367,l),
(0,233,l),
(567,233,l)
);
}
);
width = 567;
}
);
unicode = 8212;
},
{
glyphname = underscore;
lastChange = "2024-05-10 06:56:29 +0000";
layers = (
{
layerId = m01;
shapes = (
{
closed = 1;
nodes = (
(456,0,l),
(0,0,l),
(0,-133,l),
(456,-133,l)
);
}
);
width = 456;
},
{
layerId = m002;
shapes = (
{
closed = 1;
nodes = (
(456,0,l),
(0,0,l),
(0,-133,l),
(456,-133,l)
);
}
);
width = 456;
},
{
layerId = m003;
shapes = (
{
closed = 1;
nodes = (
(456,0,l),
(0,0,l),
(0,-133,l),
(456,-133,l)
);
}
);
width = 456;
}
);
unicode = 95;
},
{
glyphname = parenleft;
lastChange = "2024-05-10 06:56:29 +0000";
layers = (
{
layerId = m01;
shapes = (
{
closed = 1;
nodes = (
(244,133,l),
(207,133,o),
(189,147,o),
(189,183,cs),
(189,483,ls),
(189,519,o),
(207,533,o),
(244,533,c),
(244,667,l),
(189,667,ls),
(105,667,o),
(56,617,o),
(56,533,cs),
(56,133,ls),
(56,50,o),
(106,0,o),
(189,0,cs),
(244,0,l)
);
}
);
width = 300;
},
{
layerId = m002;
shapes = (
{
closed = 1;
nodes = (
(244,133,l),
(207,133,o),
(189,147,o),
(189,183,cs),
(189,483,ls),
(189,519,o),
(207,533,o),
(244,533,c),
(244,667,l),
(189,667,ls),
(105,667,o),
(56,617,o),
(56,533,cs),
(56,133,ls),
(56,50,o),
(106,0,o),
(189,0,cs),
(244,0,l)
);
}
);
width = 300;
},
{
layerId = m003;
shapes = (
{
closed = 1;
nodes = (
(244,133,l),
(207,133,o),
(189,147,o),
(189,183,cs),
(189,483,ls),
(189,519,o),
(207,533,o),
(244,533,c),
(244,667,l),
(189,667,ls),
(105,667,o),
(56,617,o),
(56,533,cs),
(56,133,ls),
(56,50,o),
(106,0,o),
(189,0,cs),
(244,0,l)
);
}
);
width = 300;
}
);
unicode = 40;
},
{
glyphname = parenright;
lastChange = "2024-05-10 06:56:29 +0000";
layers = (
{
layerId = m01;
shapes = (
{
closed = 1;
nodes = (
(56,0,l),
(111,0,ls),
(192,0,o),
(244,50,o),
(244,133,cs),
(244,533,ls),
(244,617,o),
(194,667,o),
(111,667,cs),
(56,667,l),
(56,533,l),
(95,533,o),
(111,519,o),
(111,483,cs),
(111,183,ls),
(111,147,o),
(95,133,o),
(56,133,c)
);
}
);
width = 300;
},
{
layerId = m002;
shapes = (
{
closed = 1;
nodes = (
(56,0,l),
(111,0,ls),
(192,0,o),
(244,50,o),
(244,133,cs),
(244,533,ls),
(244,617,o),
(194,667,o),
(111,667,cs),
(56,667,l),
(56,533,l),
(95,533,o),
(111,519,o),
(111,483,cs),
(111,183,ls),
(111,147,o),
(95,133,o),
(56,133,c)
);
}
);
width = 300;
},
{
layerId = m003;
shapes = (
{
closed = 1;
nodes = (
(56,0,l),
(111,0,ls),
(192,0,o),
(244,50,o),
(244,133,cs),
(244,533,ls),
(244,617,o),
(194,667,o),
(111,667,cs),
(56,667,l),
(56,533,l),
(95,533,o),
(111,519,o),
(111,483,cs),
(111,183,ls),
(111,147,o),
(95,133,o),
(56,133,c)
);
}
);
width = 300;
}
);
unicode = 41;
},
{
glyphname = braceleft;
lastChange = "2024-05-10 06:56:29 +0000";
layers = (
{
layerId = m01;
shapes = (
{
closed = 1;
nodes = (
(89,133,ls),
(89,50,o),
(141,0,o),
(222,0,cs),
(278,0,l),
(278,133,l),
(241,133,o),
(222,150,o),
(222,183,cs),
(222,483,ls),
(222,518,o),
(239,533,o),
(278,533,c),
(278,667,l),
(222,667,ls),
(139,667,o),
(89,617,o),
(89,533,cs),
(89,450,ls),
(89,417,o),
(72,400,o),
(39,400,cs),
(28,400,l),
(28,267,l),
(39,267,ls),
(72,267,o),
(89,250,o),
(89,217,cs)
);
}
);
width = 333;
},
{
layerId = m002;
shapes = (
{
closed = 1;
nodes = (
(89,133,ls),
(89,50,o),
(141,0,o),
(222,0,cs),
(278,0,l),
(278,133,l),
(241,133,o),
(222,150,o),
(222,183,cs),
(222,483,ls),
(222,518,o),
(239,533,o),
(278,533,c),
(278,667,l),
(222,667,ls),
(139,667,o),
(89,617,o),
(89,533,cs),
(89,450,ls),
(89,417,o),
(72,400,o),
(39,400,cs),
(28,400,l),
(28,267,l),
(39,267,ls),
(72,267,o),
(89,250,o),
(89,217,cs)
);
}
);
width = 333;
},
{
layerId = m003;
shapes = (
{
closed = 1;
nodes = (
(89,133,ls),
(89,50,o),
(141,0,o),
(222,0,cs),
(278,0,l),
(278,133,l),
(241,133,o),
(222,150,o),
(222,183,cs),
(222,483,ls),
(222,518,o),
(239,533,o),
(278,533,c),
(278,667,l),
(222,667,ls),
(139,667,o),
(89,617,o),
(89,533,cs),
(89,450,ls),
(89,417,o),
(72,400,o),
(39,400,cs),
(28,400,l),
(28,267,l),
(39,267,ls),
(72,267,o),
(89,250,o),
(89,217,cs)
);
}
);
width = 333;
}
);
unicode = 123;
},
{
glyphname = braceright;
lastChange = "2024-05-10 06:56:29 +0000";
layers = (
{
layerId = m01;
shapes = (
{
closed = 1;
nodes = (
(244,217,ls),
(244,250,o),
(261,267,o),
(294,267,cs),
(306,267,l),
(306,400,l),
(294,400,ls),
(261,400,o),
(244,417,o),
(244,450,cs),
(244,533,ls),
(244,617,o),
(194,667,o),
(111,667,cs),
(56,667,l),
(56,533,l),
(95,533,o),
(111,518,o),
(111,483,cs),
(111,183,ls),
(111,150,o),
(93,133,o),
(56,133,c),
(56,0,l),
(111,0,ls),
(192,0,o),
(244,50,o),
(244,133,cs)
);
}
);
width = 333;
},
{
layerId = m002;
shapes = (
{
closed = 1;
nodes = (
(244,217,ls),
(244,250,o),
(261,267,o),
(294,267,cs),
(306,267,l),
(306,400,l),
(294,400,ls),
(261,400,o),
(244,417,o),
(244,450,cs),
(244,533,ls),
(244,617,o),
(194,667,o),
(111,667,cs),
(56,667,l),
(56,533,l),
(95,533,o),
(111,518,o),
(111,483,cs),
(111,183,ls),
(111,150,o),
(93,133,o),
(56,133,c),
(56,0,l),
(111,0,ls),
(192,0,o),
(244,50,o),
(244,133,cs)
);
}
);
width = 333;
},
{
layerId = m003;
shapes = (
{
closed = 1;
nodes = (
(244,217,ls),
(244,250,o),
(261,267,o),
(294,267,cs),
(306,267,l),
(306,400,l),
(294,400,ls),
(261,400,o),
(244,417,o),
(244,450,cs),
(244,533,ls),
(244,617,o),
(194,667,o),
(111,667,cs),
(56,667,l),
(56,533,l),
(95,533,o),
(111,518,o),
(111,483,cs),
(111,183,ls),
(111,150,o),
(93,133,o),
(56,133,c),
(56,0,l),
(111,0,ls),
(192,0,o),
(244,50,o),
(244,133,cs)
);
}
);
width = 333;
}
);
unicode = 125;
},
{
glyphname = bracketleft;
lastChange = "2024-05-10 06:56:29 +0000";
layers = (
{
layerId = m01;
shapes = (
{
closed = 1;
nodes = (
(244,133,l),
(189,133,l),
(189,533,l),
(244,533,l),
(244,667,l),
(56,667,l),
(56,0,l),
(244,0,l)
);
}
);
width = 300;
},
{
layerId = m002;
shapes = (
{
closed = 1;
nodes = (
(244,133,l),
(189,133,l),
(189,533,l),
(244,533,l),
(244,667,l),
(56,667,l),
(56,0,l),
(244,0,l)
);
}
);
width = 300;
},
{
layerId = m003;
shapes = (
{
closed = 1;
nodes = (
(244,133,l),
(189,133,l),
(189,533,l),
(244,533,l),
(244,667,l),
(56,667,l),
(56,0,l),
(244,0,l)
);
}
);
width = 300;
}
);
unicode = 91;
},
{
glyphname = bracketright;
lastChange = "2024-05-10 06:56:29 +0000";
layers = (
{
layerId = m01;
shapes = (
{
closed = 1;
nodes = (
(56,0,l),
(244,0,l),
(244,667,l),
(56,667,l),
(56,533,l),
(111,533,l),
(111,133,l),
(56,133,l)
);
}
);
width = 300;
},
{
layerId = m002;
shapes = (
{
closed = 1;
nodes = (
(56,0,l),
(244,0,l),
(244,667,l),
(56,667,l),
(56,533,l),
(111,533,l),
(111,133,l),
(56,133,l)
);
}
);
width = 300;
},
{
layerId = m003;
shapes = (
{
closed = 1;
nodes = (
(56,0,l),
(244,0,l),
(244,667,l),
(56,667,l),
(56,533,l),
(111,533,l),
(111,133,l),
(56,133,l)
);
}
);
width = 300;
}
);
unicode = 93;
},
{
glyphname = quoteleft;
lastChange = "2024-05-10 06:56:29 +0000";
layers = (
{
layerId = m01;
shapes = (
{
closed = 1;
nodes = (
(162,402,l),
(246,486,l),
(202,529,ls),
(191,540,o),
(186,551,o),
(186,562,cs),
(186,575,o),
(192,587,o),
(203,598,cs),
(222,617,l),
(139,700,l),
(96,657,ls),
(66,627,o),
(51,596,o),
(51,563,cs),
(51,531,o),
(70,494,o),
(94,470,cs)
);
}
);
width = 300;
},
{
layerId = m002;
shapes = (
{
closed = 1;
nodes = (
(162,402,l),
(246,486,l),
(202,529,ls),
(191,540,o),
(186,551,o),
(186,562,cs),
(186,575,o),
(192,587,o),
(203,598,cs),
(222,617,l),
(139,700,l),
(96,657,ls),
(66,627,o),
(51,596,o),
(51,563,cs),
(51,531,o),
(70,494,o),
(94,470,cs)
);
}
);
width = 300;
},
{
layerId = m003;
shapes = (
{
closed = 1;
nodes = (
(162,402,l),
(246,486,l),
(202,529,ls),
(191,540,o),
(186,551,o),
(186,562,cs),
(186,575,o),
(192,587,o),
(203,598,cs),
(222,617,l),
(139,700,l),
(96,657,ls),
(66,627,o),
(51,596,o),
(51,563,cs),
(51,531,o),
(70,494,o),
(94,470,cs)
);
}
);
width = 300;
}
);
unicode = 8216;
},
{
glyphname = quoteright;
lastChange = "2024-05-10 06:56:29 +0000";
layers = (
{
layerId = m01;
shapes = (
{
closed = 1;
nodes = (
(200,470,ls),
(225,495,o),
(243,531,o),
(243,563,cs),
(243,596,o),
(224,632,o),
(199,657,cs),
(156,700,l),
(72,617,l),
(91,598,ls),
(102,587,o),
(108,575,o),
(108,562,cs),
(108,551,o),
(103,540,o),
(92,529,cs),
(49,486,l),
(132,402,l)
);
}
);
width = 300;
},
{
layerId = m002;
shapes = (
{
closed = 1;
nodes = (
(200,470,ls),
(225,495,o),
(243,531,o),
(243,563,cs),
(243,596,o),
(224,632,o),
(199,657,cs),
(156,700,l),
(72,617,l),
(91,598,ls),
(102,587,o),
(108,575,o),
(108,562,cs),
(108,551,o),
(103,540,o),
(92,529,cs),
(49,486,l),
(132,402,l)
);
}
);
width = 300;
},
{
layerId = m003;
shapes = (
{
closed = 1;
nodes = (
(200,470,ls),
(225,495,o),
(243,531,o),
(243,563,cs),
(243,596,o),
(224,632,o),
(199,657,cs),
(156,700,l),
(72,617,l),
(91,598,ls),
(102,587,o),
(108,575,o),
(108,562,cs),
(108,551,o),
(103,540,o),
(92,529,cs),
(49,486,l),
(132,402,l)
);
}
);
width = 300;
}
);
unicode = 8217;
},
{
glyphname = quotesingle;
lastChange = "2024-05-10 06:56:29 +0000";
layers = (
{
layerId = m01;
shapes = (
{
closed = 1;
nodes = (
(56,667,l),
(56,447,l),
(167,447,l),
(167,667,l)
);
}
);
width = 222;
},
{
layerId = m002;
shapes = (
{
closed = 1;
nodes = (
(56,667,l),
(56,447,l),
(167,447,l),
(167,667,l)
);
}
);
width = 222;
},
{
layerId = m003;
shapes = (
{
closed = 1;
nodes = (
(56,667,l),
(56,447,l),
(167,447,l),
(167,667,l)
);
}
);
width = 222;
}
);
unicode = 39;
},
{
glyphname = ampersand;
lastChange = "2024-05-10 06:56:29 +0000";
layers = (
{
layerId = m01;
shapes = (
{
closed = 1;
nodes = (
(467,311,l),
(333,311,l),
(333,183,ls),
(333,150,o),
(316,133,o),
(283,133,cs),
(239,133,ls),
(206,133,o),
(189,150,o),
(189,183,cs),
(189,222,ls),
(189,255,o),
(206,272,o),
(239,272,cs),
(289,272,l),
(289,406,l),
(239,406,ls),
(206,406,o),
(189,423,o),
(189,456,cs),
(189,483,ls),
(189,516,o),
(206,533,o),
(239,533,cs),
(383,533,l),
(383,667,l),
(189,667,ls),
(105,667,o),
(56,617,o),
(56,533,cs),
(56,428,ls),
(56,384,o),
(80,351,o),
(93,340,c),
(80,328,o),
(56,291,o),
(56,250,cs),
(56,133,ls),
(56,50,o),
(106,0,o),
(189,0,cs),
(333,0,ls),
(417,0,o),
(467,49,o),
(467,133,cs)
);
}
);
width = 511;
},
{
layerId = m002;
shapes = (
{
closed = 1;
nodes = (
(467,311,l),
(333,311,l),
(333,183,ls),
(333,150,o),
(316,133,o),
(283,133,cs),
(239,133,ls),
(206,133,o),
(189,150,o),
(189,183,cs),
(189,222,ls),
(189,255,o),
(206,272,o),
(239,272,cs),
(289,272,l),
(289,406,l),
(239,406,ls),
(206,406,o),
(189,423,o),
(189,456,cs),
(189,483,ls),
(189,516,o),
(206,533,o),
(239,533,cs),
(383,533,l),
(383,667,l),
(189,667,ls),
(105,667,o),
(56,617,o),
(56,533,cs),
(56,428,ls),
(56,384,o),
(80,351,o),
(93,340,c),
(80,328,o),
(56,291,o),
(56,250,cs),
(56,133,ls),
(56,50,o),
(106,0,o),
(189,0,cs),
(333,0,ls),
(417,0,o),
(467,49,o),
(467,133,cs)
);
}
);
width = 511;
},
{
layerId = m003;
shapes = (
{
closed = 1;
nodes = (
(467,311,l),
(333,311,l),
(333,183,ls),
(333,150,o),
(316,133,o),
(283,133,cs),
(239,133,ls),
(206,133,o),
(189,150,o),
(189,183,cs),
(189,222,ls),
(189,255,o),
(206,272,o),
(239,272,cs),
(289,272,l),
(289,406,l),
(239,406,ls),
(206,406,o),
(189,423,o),
(189,456,cs),
(189,483,ls),
(189,516,o),
(206,533,o),
(239,533,cs),
(383,533,l),
(383,667,l),
(189,667,ls),
(105,667,o),
(56,617,o),
(56,533,cs),
(56,428,ls),
(56,384,o),
(80,351,o),
(93,340,c),
(80,328,o),
(56,291,o),
(56,250,cs),
(56,133,ls),
(56,50,o),
(106,0,o),
(189,0,cs),
(333,0,ls),
(417,0,o),
(467,49,o),
(467,133,cs)
);
}
);
width = 511;
}
);
unicode = 38;
},
{
glyphname = dollar;
lastChange = "2024-05-10 06:56:29 +0000";
layers = (
{
layerId = m01;
shapes = (
{
closed = 1;
nodes = (
(256,33,l),
(339,37,o),
(389,83,o),
(389,167,cs),
(389,267,ls),
(389,350,o),
(339,400,o),
(256,400,cs),
(239,400,ls),
(206,400,o),
(189,417,o),
(189,450,cs),
(189,479,o),
(207,500,o),
(239,500,cs),
(378,500,l),
(378,633,l),
(322,633,l),
(322,767,l),
(189,767,l),
(189,633,l),
(105,630,o),
(56,583,o),
(56,500,cs),
(56,400,ls),
(56,317,o),
(106,267,o),
(189,267,cs),
(206,267,ls),
(237,267,o),
(256,245,o),
(256,217,cs),
(256,184,o),
(239,167,o),
(206,167,cs),
(67,167,l),
(67,33,l),
(122,33,l),
(122,-100,l),
(256,-100,l)
);
}
);
width = 444;
},
{
layerId = m002;
shapes = (
{
closed = 1;
nodes = (
(256,33,l),
(339,37,o),
(389,83,o),
(389,167,cs),
(389,267,ls),
(389,350,o),
(339,400,o),
(256,400,cs),
(239,400,ls),
(206,400,o),
(189,417,o),
(189,450,cs),
(189,479,o),
(207,500,o),
(239,500,cs),
(378,500,l),
(378,633,l),
(322,633,l),
(322,767,l),
(189,767,l),
(189,633,l),
(105,630,o),
(56,583,o),
(56,500,cs),
(56,400,ls),
(56,317,o),
(106,267,o),
(189,267,cs),
(206,267,ls),
(237,267,o),
(256,245,o),
(256,217,cs),
(256,184,o),
(239,167,o),
(206,167,cs),
(67,167,l),
(67,33,l),
(122,33,l),
(122,-100,l),
(256,-100,l)
);
}
);
width = 444;
},
{
layerId = m003;
shapes = (
{
closed = 1;
nodes = (
(256,33,l),
(339,37,o),
(389,83,o),
(389,167,cs),
(389,267,ls),
(389,350,o),
(339,400,o),
(256,400,cs),
(239,400,ls),
(206,400,o),
(189,417,o),
(189,450,cs),
(189,479,o),
(207,500,o),
(239,500,cs),
(378,500,l),
(378,633,l),
(322,633,l),
(322,767,l),
(189,767,l),
(189,633,l),
(105,630,o),
(56,583,o),
(56,500,cs),
(56,400,ls),
(56,317,o),
(106,267,o),
(189,267,cs),
(206,267,ls),
(237,267,o),
(256,245,o),
(256,217,cs),
(256,184,o),
(239,167,o),
(206,167,cs),
(67,167,l),
(67,33,l),
(122,33,l),
(122,-100,l),
(256,-100,l)
);
}
);
width = 444;
}
);
unicode = 36;
},
{
glyphname = plus;
lastChange = "2024-05-10 06:56:29 +0000";
layers = (
{
layerId = m01;
shapes = (
{
closed = 1;
nodes = (
(322,506,l),
(200,506,l),
(200,367,l),
(56,367,l),
(56,244,l),
(200,244,l),
(200,106,l),
(322,106,l),
(322,244,l),
(467,244,l),
(467,367,l),
(322,367,l)
);
}
);
width = 522;
},
{
layerId = m002;
shapes = (
{
closed = 1;
nodes = (
(322,506,l),
(200,506,l),
(200,367,l),
(56,367,l),
(56,244,l),
(200,244,l),
(200,106,l),
(322,106,l),
(322,244,l),
(467,244,l),
(467,367,l),
(322,367,l)
);
}
);
width = 522;
},
{
layerId = m003;
shapes = (
{
closed = 1;
nodes = (
(322,506,l),
(200,506,l),
(200,367,l),
(56,367,l),
(56,244,l),
(200,244,l),
(200,106,l),
(322,106,l),
(322,244,l),
(467,244,l),
(467,367,l),
(322,367,l)
);
}
);
width = 522;
}
);
unicode = 43;
},
{
glyphname = minus;
lastChange = "2024-05-10 06:56:29 +0000";
layers = (
{
layerId = m01;
shapes = (
{
closed = 1;
nodes = (
(268,367,l),
(88,367,l),
(88,233,l),
(268,233,l)
);
}
);
width = 388;
},
{
layerId = m002;
shapes = (
{
closed = 1;
nodes = (
(268,367,l),
(88,367,l),
(88,233,l),
(268,233,l)
);
}
);
width = 388;
},
{
layerId = m003;
shapes = (
{
closed = 1;
nodes = (
(268,367,l),
(88,367,l),
(88,233,l),
(268,233,l)
);
}
);
width = 388;
}
);
unicode = 8722;
},
{
glyphname = equal;
lastChange = "2024-05-10 06:56:29 +0000";
layers = (
{
layerId = m01;
shapes = (
{
closed = 1;
nodes = (
(303,244,l),
(83,244,l),
(83,133,l),
(303,133,l)
);
},
{
closed = 1;
nodes = (
(303,467,l),
(83,467,l),
(83,356,l),
(303,356,l)
);
}
);
width = 389;
},
{
layerId = m002;
shapes = (
{
closed = 1;
nodes = (
(303,244,l),
(83,244,l),
(83,133,l),
(303,133,l)
);
},
{
closed = 1;
nodes = (
(303,467,l),
(83,467,l),
(83,356,l),
(303,356,l)
);
}
);
width = 389;
},
{
layerId = m003;
shapes = (
{
closed = 1;
nodes = (
(303,244,l),
(83,244,l),
(83,133,l),
(303,133,l)
);
},
{
closed = 1;
nodes = (
(303,467,l),
(83,467,l),
(83,356,l),
(303,356,l)
);
}
);
width = 389;
}
);
unicode = 61;
},
{
glyphname = greater;
lastChange = "2024-05-10 06:56:29 +0000";
layers = (
{
layerId = m01;
shapes = (
{
closed = 1;
nodes = (
(189,470,ls),
(214,495,o),
(232,531,o),
(232,563,cs),
(232,596,o),
(213,632,o),
(188,657,cs),
(144,700,l),
(61,617,l),
(80,598,ls),
(91,587,o),
(97,575,o),
(97,562,cs),
(97,551,o),
(92,540,o),
(81,529,cs),
(38,486,l),
(121,402,l)
);
},
{
closed = 1;
nodes = (
(411,470,ls),
(436,495,o),
(454,531,o),
(454,563,cs),
(454,596,o),
(435,632,o),
(410,657,cs),
(367,700,l),
(283,617,l),
(302,598,ls),
(314,586,o),
(320,574,o),
(320,562,cs),
(320,551,o),
(314,540,o),
(303,529,cs),
(260,486,l),
(343,402,l)
);
}
);
width = 489;
},
{
layerId = m002;
shapes = (
{
closed = 1;
nodes = (
(189,470,ls),
(214,495,o),
(232,531,o),
(232,563,cs),
(232,596,o),
(213,632,o),
(188,657,cs),
(144,700,l),
(61,617,l),
(80,598,ls),
(91,587,o),
(97,575,o),
(97,562,cs),
(97,551,o),
(92,540,o),
(81,529,cs),
(38,486,l),
(121,402,l)
);
},
{
closed = 1;
nodes = (
(411,470,ls),
(436,495,o),
(454,531,o),
(454,563,cs),
(454,596,o),
(435,632,o),
(410,657,cs),
(367,700,l),
(283,617,l),
(302,598,ls),
(314,586,o),
(320,574,o),
(320,562,cs),
(320,551,o),
(314,540,o),
(303,529,cs),
(260,486,l),
(343,402,l)
);
}
);
width = 489;
},
{
layerId = m003;
shapes = (
{
closed = 1;
nodes = (
(189,470,ls),
(214,495,o),
(232,531,o),
(232,563,cs),
(232,596,o),
(213,632,o),
(188,657,cs),
(144,700,l),
(61,617,l),
(80,598,ls),
(91,587,o),
(97,575,o),
(97,562,cs),
(97,551,o),
(92,540,o),
(81,529,cs),
(38,486,l),
(121,402,l)
);
},
{
closed = 1;
nodes = (
(411,470,ls),
(436,495,o),
(454,531,o),
(454,563,cs),
(454,596,o),
(435,632,o),
(410,657,cs),
(367,700,l),
(283,617,l),
(302,598,ls),
(314,586,o),
(320,574,o),
(320,562,cs),
(320,551,o),
(314,540,o),
(303,529,cs),
(260,486,l),
(343,402,l)
);
}
);
width = 489;
}
);
unicode = 62;
},
{
glyphname = less;
lastChange = "2024-05-10 06:56:29 +0000";
layers = (
{
layerId = m01;
shapes = (
{
closed = 1;
nodes = (
(373,402,l),
(457,486,l),
(413,529,ls),
(402,540,o),
(397,551,o),
(397,562,cs),
(397,575,o),
(403,587,o),
(414,598,cs),
(433,617,l),
(350,700,l),
(307,657,ls),
(277,626,o),
(262,595,o),
(262,563,cs),
(262,529,o),
(277,498,o),
(306,470,cs)
);
},
{
closed = 1;
nodes = (
(151,402,l),
(234,486,l),
(191,529,ls),
(180,540,o),
(175,551,o),
(175,562,cs),
(175,575,o),
(181,587,o),
(192,598,cs),
(211,617,l),
(128,700,l),
(84,657,ls),
(55,626,o),
(40,594,o),
(40,563,cs),
(40,531,o),
(59,495,o),
(83,470,cs)
);
}
);
width = 489;
},
{
layerId = m002;
shapes = (
{
closed = 1;
nodes = (
(373,402,l),
(457,486,l),
(413,529,ls),
(402,540,o),
(397,551,o),
(397,562,cs),
(397,575,o),
(403,587,o),
(414,598,cs),
(433,617,l),
(350,700,l),
(307,657,ls),
(277,626,o),
(262,595,o),
(262,563,cs),
(262,529,o),
(277,498,o),
(306,470,cs)
);
},
{
closed = 1;
nodes = (
(151,402,l),
(234,486,l),
(191,529,ls),
(180,540,o),
(175,551,o),
(175,562,cs),
(175,575,o),
(181,587,o),
(192,598,cs),
(211,617,l),
(128,700,l),
(84,657,ls),
(55,626,o),
(40,594,o),
(40,563,cs),
(40,531,o),
(59,495,o),
(83,470,cs)
);
}
);
width = 489;
},
{
layerId = m003;
shapes = (
{
closed = 1;
nodes = (
(373,402,l),
(457,486,l),
(413,529,ls),
(402,540,o),
(397,551,o),
(397,562,cs),
(397,575,o),
(403,587,o),
(414,598,cs),
(433,617,l),
(350,700,l),
(307,657,ls),
(277,626,o),
(262,595,o),
(262,563,cs),
(262,529,o),
(277,498,o),
(306,470,cs)
);
},
{
closed = 1;
nodes = (
(151,402,l),
(234,486,l),
(191,529,ls),
(180,540,o),
(175,551,o),
(175,562,cs),
(175,575,o),
(181,587,o),
(192,598,cs),
(211,617,l),
(128,700,l),
(84,657,ls),
(55,626,o),
(40,594,o),
(40,563,cs),
(40,531,o),
(59,495,o),
(83,470,cs)
);
}
);
width = 489;
}
);
unicode = 60;
},
{
glyphname = percent;
lastChange = "2024-05-10 06:56:29 +0000";
layers = (
{
layerId = m01;
shapes = (
{
closed = 1;
nodes = (
(189,207,l),
(189,217,ls),
(189,250,o),
(206,267,o),
(239,267,cs),
(241,267,ls),
(324,267,o),
(374,316,o),
(374,400,cs),
(374,410,l),
(374,667,l),
(241,667,l),
(241,460,l),
(241,450,ls),
(241,417,o),
(224,400,o),
(191,400,cs),
(189,400,ls),
(105,400,o),
(56,350,o),
(56,267,cs),
(56,257,l),
(56,0,l),
(189,0,l)
);
},
{
closed = 1;
nodes = (
(272,144,o),
(236,110,o),
(236,67,cs),
(236,24,o),
(272,-11,o),
(313,-11,cs),
(356,-11,o),
(391,24,o),
(391,67,cs),
(391,110,o),
(356,144,o),
(313,144,cs)
);
},
{
closed = 1;
nodes = (
(158,522,o),
(194,559,o),
(194,600,cs),
(194,641,o),
(160,678,o),
(117,678,cs),
(76,678,o),
(39,643,o),
(39,600,cs),
(39,557,o),
(74,522,o),
(117,522,cs)
);
}
);
width = 433;
},
{
layerId = m002;
shapes = (
{
closed = 1;
nodes = (
(189,207,l),
(189,217,ls),
(189,250,o),
(206,267,o),
(239,267,cs),
(241,267,ls),
(324,267,o),
(374,316,o),
(374,400,cs),
(374,410,l),
(374,667,l),
(241,667,l),
(241,460,l),
(241,450,ls),
(241,417,o),
(224,400,o),
(191,400,cs),
(189,400,ls),
(105,400,o),
(56,350,o),
(56,267,cs),
(56,257,l),
(56,0,l),
(189,0,l)
);
},
{
closed = 1;
nodes = (
(272,144,o),
(236,110,o),
(236,67,cs),
(236,24,o),
(272,-11,o),
(313,-11,cs),
(356,-11,o),
(391,24,o),
(391,67,cs),
(391,110,o),
(356,144,o),
(313,144,cs)
);
},
{
closed = 1;
nodes = (
(158,522,o),
(194,559,o),
(194,600,cs),
(194,641,o),
(160,678,o),
(117,678,cs),
(76,678,o),
(39,643,o),
(39,600,cs),
(39,557,o),
(74,522,o),
(117,522,cs)
);
}
);
width = 433;
},
{
layerId = m003;
shapes = (
{
closed = 1;
nodes = (
(189,207,l),
(189,217,ls),
(189,250,o),
(206,267,o),
(239,267,cs),
(241,267,ls),
(324,267,o),
(374,316,o),
(374,400,cs),
(374,410,l),
(374,667,l),
(241,667,l),
(241,460,l),
(241,450,ls),
(241,417,o),
(224,400,o),
(191,400,cs),
(189,400,ls),
(105,400,o),
(56,350,o),
(56,267,cs),
(56,257,l),
(56,0,l),
(189,0,l)
);
},
{
closed = 1;
nodes = (
(272,144,o),
(236,110,o),
(236,67,cs),
(236,24,o),
(272,-11,o),
(313,-11,cs),
(356,-11,o),
(391,24,o),
(391,67,cs),
(391,110,o),
(356,144,o),
(313,144,cs)
);
},
{
closed = 1;
nodes = (
(158,522,o),
(194,559,o),
(194,600,cs),
(194,641,o),
(160,678,o),
(117,678,cs),
(76,678,o),
(39,643,o),
(39,600,cs),
(39,557,o),
(74,522,o),
(117,522,cs)
);
}
);
width = 433;
}
);
unicode = 37;
},
{
glyphname = quotebl;
lastChange = "2024-05-10 06:56:29 +0000";
layers = (
{
layerId = m01;
shapes = (
{
closed = 1;
nodes = (
(56,667,l),
(56,447,l),
(167,447,l),
(167,667,l)
);
},
{
closed = 1;
nodes = (
(244,667,l),
(244,447,l),
(356,447,l),
(356,667,l)
);
}
